<svg id="图层_1" data-name="图层 1" xmlns="http://www.w3.org/2000/svg" xmlns:xlink="http://www.w3.org/1999/xlink" viewBox="0 0 15.1 23.84"><defs><style>.cls-1{fill:none;}.cls-2{clip-path:url(#clip-path);}.cls-3{fill:#c3c7cb;}</style><clipPath id="clip-path" transform="translate(-4.5 -0.06)"><rect class="cls-1" x="4.5" width="15.1" height="24"/></clipPath></defs><g class="cls-2"><path class="cls-3" d="M10.8,20.8a.65.65,0,0,1,.6-.6h1.2a.58.58,0,0,1,.6.6v2.5a.65.65,0,0,1-.6.6H11.4a.58.58,0,0,1-.6-.6Zm3.9-6.2a4.88,4.88,0,0,0-.7.3,1.08,1.08,0,0,0-.7,1.1v.6a1.3,1.3,0,0,1-1.3,1,1.38,1.38,0,0,1-1.2-1.2,3.63,3.63,0,0,1,2.3-3.8,4.88,4.88,0,0,1,.7-.3,5,5,0,0,0,3.3-5.2,5.1,5.1,0,0,0-4.3-4.5A5,5,0,0,0,7,7.4a.9.9,0,0,1-.1.5,1.3,1.3,0,0,1-1.4.9,1.19,1.19,0,0,1-1-1.2A7.24,7.24,0,0,1,6.3,2.7,7.19,7.19,0,0,1,13.8.3,7.15,7.15,0,0,1,19.4,6c.1.5.1,1,.2,1.6a7.57,7.57,0,0,1-4.9,7Z" transform="translate(-4.5 -0.06)"/></g></svg>