<svg id="图层_1" data-name="图层 1" xmlns="http://www.w3.org/2000/svg" viewBox="0 0 908.4 908.4"><defs><style>.cls-1,.cls-3{stroke:#555c6c;stroke-miterlimit:10;}.cls-1{stroke-width:60px;}.cls-2{fill:#666;}.cls-3{fill:none;stroke-width:100px;}</style></defs><path class="cls-1" d="M1058.1,585.8a8.67,8.67,0,0,1-6-2.6,9.73,9.73,0,0,1,0-12.8c47.2-52.4,124.5-53.2,172.6-1.9a9.73,9.73,0,0,1,2.8,9.1,8.66,8.66,0,0,1-6.2,6.8,8.16,8.16,0,0,1-8.4-3c-41.7-44.2-108.3-43.4-149.1,1.9a7.89,7.89,0,0,1-5.7,2.5Z" transform="translate(-823.4 -264)"/><path class="cls-1" d="M1336.3,585.8a7.67,7.67,0,0,1-5.8-2.6,9.73,9.73,0,0,1,0-12.8c22.9-25.2,54-39.6,86.6-39.9,32.1-.6,62.9,13.1,85.4,38.1a9.73,9.73,0,0,1,2.8,9.1,8.66,8.66,0,0,1-6.2,6.8,8.16,8.16,0,0,1-8.4-3c-19.4-21.6-46.2-33.4-73.9-32.7-28.2.4-55.1,12.8-75,34.5a9.61,9.61,0,0,1-5.5,2.5Z" transform="translate(-823.4 -264)"/><path class="cls-2" d="M780.9,895.8" transform="translate(-823.4 -264)"/><path class="cls-1" d="M1278.5,947.9c-74.1,0-133.4-49-133.4-109.1,0-5.1,3.7-9.3,8.3-9.3s8.3,4.2,8.3,9.3c0,50.1,52.9,90.9,117.9,90.9,4.6,0,8.3,4.2,8.3,9.3s-3.7,9.3-8.3,9.3Z" transform="translate(-823.4 -264)"/><path class="cls-1" d="M1275.3,947.9c-4.6,0-8.3-4.2-8.3-9.3s3.7-9.3,8.3-9.3c65.2,0,118.1-40.8,118.1-90.9,0-5.1,3.7-9.3,8.3-9.3s8.3,4.2,8.3,9.3c.4,60.5-60.5,109.5-134.7,109.5Z" transform="translate(-823.4 -264)"/><circle class="cls-3" cx="454.2" cy="454.2" r="404.2"/></svg>