<?xml version="1.0" encoding="utf-8"?>
<!-- Generator: Adobe Illustrator 25.0.1, SVG Export Plug-In . SVG Version: 6.00 Build 0)  -->
<svg version="1.1" id="图层_1" xmlns="http://www.w3.org/2000/svg" xmlns:xlink="http://www.w3.org/1999/xlink" x="0px" y="0px"
	 viewBox="0 0 24 24" style="enable-background:new 0 0 24 24;" xml:space="preserve">
<style type="text/css">
	.st0{fill:#C3C6CA;}
</style>
<path class="st0" d="M0,0.3v21.3C0,23.4,0.7,24,1.3,24h21.3c0.7,0,1.3-0.6,1.3-1.4V1.4C24,0.3,23.6,0,22.7,0H1.2C0.6,0,0,0.6,0,0.3z
	 M8.8,16.3v-3.8c0-0.2,0.1-0.4,0.3-0.4h5.5c0.2,0,0.3,0.2,0.3,0.4l0,3.8c0,0.2-0.1,0.4-0.3,0.4H9.1c-0.1,0-0.1,0-0.2-0.1
	C8.9,16.5,8.8,16.4,8.8,16.3z M15,18.5v3.7c0,0.2-0.1,0.4-0.3,0.4H9.1c-0.2,0-0.3-0.2-0.3-0.4v-3.6c0-0.2,0.1-0.4,0.3-0.4l5.6,0
	c0.1,0,0.2,0,0.2,0.1C15,18.3,15,18.4,15,18.5z M15,5.4v3.8c0,0.2-0.1,0.4-0.3,0.4H9.1C9,9.6,8.8,9.4,8.8,9.2V5.5
	c0-0.2,0.1-0.4,0.3-0.4h5.6C15,5.1,15,5.4,15,5.4z M7.4,5.2c0.1,0.1,0.1,0.2,0.1,0.3v3.6c0,0.2-0.1,0.4-0.3,0.4H1.6
	c-0.2,0-0.3-0.2-0.3-0.4V5.5c0-0.2,0.1-0.4,0.3-0.4h5.4C7.2,5.1,7.3,5.2,7.4,5.2z M1.6,12.1h5.5c0.2,0,0.3,0.2,0.3,0.4v3.8
	c0,0.2-0.1,0.4-0.3,0.4H1.6c-0.2,0-0.3-0.2-0.3-0.4v-3.8c0-0.1,0-0.2,0.1-0.3C1.5,12.1,1.6,12.1,1.6,12.1z M16.5,12.1h5.8
	c0.2,0,0.3,0.2,0.3,0.4v3.8c0,0.2-0.1,0.4-0.3,0.4h-5.8c-0.2,0-0.3-0.2-0.3-0.4v-3.9c0-0.1,0-0.2,0.1-0.2
	C16.4,12.1,16.5,12.1,16.5,12.1z M16.4,9.5c-0.1-0.1-0.1-0.2-0.1-0.3l0-3.7c0-0.2,0.1-0.4,0.3-0.4h5.7c0.2,0,0.3,0.2,0.3,0.4v3.7
	c0,0.2-0.1,0.4-0.3,0.4h-5.7C16.6,9.6,16.5,9.6,16.4,9.5z M1.7,18.1h5.5c0.2,0,0.3,0.2,0.3,0.4v3.6c0,0.2-0.1,0.4-0.3,0.4H1.6
	c-0.2,0-0.3-0.2-0.3-0.4v-3.5c0-0.1,0-0.2,0.1-0.3C1.5,18.2,1.6,18.1,1.7,18.1z M16.3,22.1v-3.5c0-0.2,0.1-0.4,0.3-0.4h5.7
	c0.2,0,0.3,0.2,0.3,0.4v3.6c0,0.2-0.1,0.4-0.3,0.4h-5.7c-0.1,0-0.2,0-0.3-0.1C16.4,22.3,16.3,22.2,16.3,22.1z"/>
</svg>
