<?xml version="1.0" encoding="utf-8"?>
<!-- Generator: Adobe Illustrator 25.0.1, SVG Export Plug-In . SVG Version: 6.00 Build 0)  -->
<svg version="1.1" id="图层_1" xmlns="http://www.w3.org/2000/svg" xmlns:xlink="http://www.w3.org/1999/xlink" x="0px" y="0px"
	 viewBox="0 0 24 24" style="enable-background:new 0 0 24 24;" xml:space="preserve">
<style type="text/css">
	.st0{fill:#C3C6CA;}
</style>
<path class="st0" d="M23.4,24H0.6C0.3,24,0,23.7,0,23.4v-3.2c0-0.3,0.3-0.6,0.6-0.6h22.8c0.3,0,0.6,0.3,0.6,0.6v3.2
	C24,23.7,23.7,24,23.4,24z"/>
<path class="st0" d="M9.6,14.2H0.2c-0.1,0-0.2-0.3-0.2-0.6v-3.2c0-0.3,0.1-0.6,0.2-0.6h9.4c0.1,0,0.2,0.3,0.2,0.6v3.2
	C9.8,13.9,9.7,14.2,9.6,14.2z"/>
<path class="st0" d="M23.5,4.3H0.5C0.3,4.3,0,4,0,3.7V0.6C0,0.3,0.3,0,0.5,0h22.9C23.7,0,24,0.3,24,0.6v3.2
	C24,4.1,23.7,4.3,23.5,4.3z"/>
<path class="st0" d="M21.4,17.7c-0.3,0.3-0.8,0-1-0.2L18,15c-0.2-0.2-0.6-0.2-0.8,0l-2.5,2.5c-0.2,0.2-0.6,0.2-0.8,0l-2-2
	c-0.2-0.2-0.2-0.6,0-0.8l2.5-2.5c0.2-0.2,0.2-0.6,0-0.8L11.9,9c-0.2-0.2-0.2-0.6,0-0.8l2-2c0.2-0.2,0.6-0.2,0.8,0l2.7,2.7
	c0.2,0.2,0.6,0.2,0.8,0l2.5-2.5c0.2-0.2,0.6-0.2,0.8,0l2,2c0.2,0.2,0.2,0.6,0,0.8l-2.5,2.5c-0.2,0.2-0.2,0.6,0,0.8l2.5,2.5
	c0.2,0.2,0.2,0.6,0,0.8l-1.8,1.8L21.4,17.7z"/>
</svg>
