<svg id="图层_1" data-name="图层 1" xmlns="http://www.w3.org/2000/svg" viewBox="0 0 736.7 645.6"><defs><style>.cls-1{fill:#e6e6e6;}</style></defs><path class="cls-1" d="M1605.1,485.6H1147.5c-20.8,0-39.3-16-39.3-41.4s18.5-41.4,39.3-41.4h457.6c20.8,0,39.3,16,39.3,41.4s-18.5,41.4-39.3,41.4Z" transform="translate(-914 -402.8)"/><path class="cls-1" d="M962.2,499.3c-25.5,0-48.2-22.7-48.2-48.2s22.7-48.2,48.2-48.2,48.2,22.7,48.2,48.2-22.6,48.2-48.2,48.2Z" transform="translate(-914 -402.8)"/><path class="cls-1" d="M1163.2,939.3" transform="translate(-914 -402.8)"/><path class="cls-1" d="M1611.4,1034.7H1153.8c-20.8,0-39.3-16-39.3-41.4s18.5-41.4,39.3-41.4h457.6c20.8,0,39.3,16,39.3,41.4s-18.4,41.4-39.3,41.4Z" transform="translate(-914 -402.8)"/><path class="cls-1" d="M968.5,1048.4c-25.5,0-48.2-22.7-48.2-48.2S943,952,968.5,952s48.2,22.7,48.2,48.2-22.6,48.2-48.2,48.2Z" transform="translate(-914 -402.8)"/><path class="cls-1" d="M954.1,754.6h457.6c20.8,0,39.3-16,39.3-41.4s-18.5-41.4-39.3-41.4H954.1c-20.8,0-39.3,16-39.3,41.4s18.5,41.4,39.3,41.4Z" transform="translate(-914 -402.8)"/><path class="cls-1" d="M1597,768.2c25.5,0,48.2-22.7,48.2-48.2s-22.7-48.2-48.2-48.2-48.2,22.7-48.2,48.2,22.7,48.2,48.2,48.2Z" transform="translate(-914 -402.8)"/></svg>