<?xml version="1.0" encoding="utf-8"?>
<!-- Generator: Adobe Illustrator 25.0.1, SVG Export Plug-In . SVG Version: 6.00 Build 0)  -->
<svg version="1.1" id="图层_1" xmlns="http://www.w3.org/2000/svg" xmlns:xlink="http://www.w3.org/1999/xlink" x="0px" y="0px"
	 viewBox="0 0 24 24" style="enable-background:new 0 0 24 24;" xml:space="preserve">
<style type="text/css">
	.st0{fill:#C3C6CA;}
</style>
<path class="st0" d="M21.9,0C23.3,0,24,0.8,24,2.5v4.4c0,0.3-0.2,0.5-0.4,0.5l-1.4-1.3c-0.3-0.3-0.4-0.4-0.4-0.7V3.7h-9v16.6h9v-1.6
	c0-0.3,0.2-0.5,0.4-0.7l1.4-1.4c0.2,0,0.4,0.2,0.4,0.5v4.4c0,1.7-0.5,2.5-2.1,2.5H2.1C0.7,24,0,23.1,0,21.5v-4.4
	c0-0.3,0.2-0.5,0.4-0.5L1.8,18c0.3,0.3,0.4,0.4,0.4,0.7v1.6h9V3.7h-9v1.8c0,0.3-0.1,0.4-0.4,0.6L0.4,7.4C0.2,7.4,0,7.2,0,6.9V2.5
	C0,0.8,0.9,0,2.1,0H21.9z"/>
<path class="st0" d="M4.5,17.9v-3.5H9V9.6H4.5V6.3C2.2,9,0,11.4,0,11.9v0.4C-0.1,12.7,1.7,14.9,4.5,17.9z"/>
<path class="st0" d="M19.5,17.9v-3.5H15V9.6h4.5V6.3C21.8,9,24,11.4,24,11.9v0.4C24.1,12.7,22.3,14.9,19.5,17.9z"/>
</svg>
