<svg id="图层_1" data-name="图层 1" xmlns="http://www.w3.org/2000/svg" viewBox="0 0 728.2 728.2"><defs><style>.cls-1{fill:#575d6d;}</style></defs><path class="cls-1" d="M960.5,356h455.1a45.54,45.54,0,0,1,45.5,45.5h0a45.54,45.54,0,0,1-45.5,45.5H960.5A45.54,45.54,0,0,1,915,401.5h0A45.54,45.54,0,0,1,960.5,356Zm364.1,364.1h273.1a45.54,45.54,0,0,1,45.5,45.5h0a45.54,45.54,0,0,1-45.5,45.5H1324.6a45.54,45.54,0,0,1-45.5-45.5h0A45.54,45.54,0,0,1,1324.6,720.1ZM1142.6,447h91v591.6a45.54,45.54,0,0,1-45.5,45.5h0a45.54,45.54,0,0,1-45.5-45.5Z" transform="translate(-915 -356)"/><path class="cls-1" d="M1415.6,765.6h91v273.1a45.54,45.54,0,0,1-45.5,45.5h0a45.54,45.54,0,0,1-45.5-45.5Z" transform="translate(-915 -356)"/></svg>