<svg id="图层_1" data-name="图层 1" xmlns="http://www.w3.org/2000/svg" xmlns:xlink="http://www.w3.org/1999/xlink" viewBox="0 0 745.79 819.3"><defs><style>.cls-1{fill:none;}.cls-2{clip-path:url(#clip-path);}.cls-3{fill:#575d6d;}</style><clipPath id="clip-path" transform="translate(-587.05 -130.5)"><rect class="cls-1" x="587" y="130" width="745.9" height="820.7"/></clipPath></defs><g class="cls-2"><path class="cls-3" d="M1332.3,387.5c1.8-7.5,0-24.2-18.6-55.9s-37.2-39.1-44.7-41L1017.7,145.4c-5.6-5.6-22.3-14.9-57.7-14.9s-52.1,9.3-57.7,14.9L650.9,290.6c-9.3,1.9-27.9,9.3-44.7,41-18.6,31.7-18.6,48.4-18.6,55.9V692.8c-1.8,7.5,0,24.2,18.6,55.9s37.2,39.1,44.7,41L902.2,934.9c5.6,5.6,20.5,14.9,57.7,14.9,35.4,0,52.1-9.3,57.7-14.9L1269,789.6c9.3-1.9,27.9-9.3,44.7-41,18.6-31.7,18.6-48.4,18.6-55.9V387.5Zm-57.7,305.3a51.36,51.36,0,0,1-24.2,42.8L984.1,890.1a45.47,45.47,0,0,1-48.4,0L669.5,735.6a49,49,0,0,1-24.2-42.8V387.5a51.36,51.36,0,0,1,24.2-42.8L935.7,190.2a54.87,54.87,0,0,1,48.4,0l266.2,154.5a49,49,0,0,1,24.2,42.8l.1,305.3ZM1170.3,394.9a24.41,24.41,0,0,0-22.3,3.7L967.4,504.7,786.8,398.6a32.41,32.41,0,0,0-22.4-3.7c-7.5,1.8-13,7.4-18.6,14.9-7.5,14.9-3.7,33.5,11.1,41L937.5,556.9V778.5c0,3.7,1.8,18.6,20.5,18.6h16.8c20.5,0,20.5-14.9,20.5-18.6V556.9l180.6-106.1c14.9-7.5,18.6-26.1,11.1-41-1.8-7.5-9.2-11.2-16.7-14.9Z" transform="translate(-587.05 -130.5)"/></g></svg>