<?xml version="1.0" encoding="utf-8"?>
<!-- Generator: Adobe Illustrator 25.0.1, SVG Export Plug-In . SVG Version: 6.00 Build 0)  -->
<svg version="1.1" id="图层_1" xmlns="http://www.w3.org/2000/svg" xmlns:xlink="http://www.w3.org/1999/xlink" x="0px" y="0px"
	 viewBox="0 0 24 24" style="enable-background:new 0 0 24 24;" xml:space="preserve">
<style type="text/css">
	.st0{fill:none;stroke:#C3C6CA;stroke-width:2;stroke-miterlimit:10;}
	.st1{fill:#C3C6CA;}
</style>
<path class="st0" d="M5.2,1.9V22c0,0.5-0.4,1-1,1H2c-0.6,0-1-0.5-1-1V1.9C1,1.4,1.4,1,1.9,1h2.3C4.8,1,5.2,1.4,5.2,1.9z"/>
<path class="st0" d="M23,1.9v20.2c0,0.5-0.4,0.9-0.9,0.9h-2.3c-0.5,0-0.9-0.4-0.9-0.9V1.9c0-0.5,0.4-0.9,0.9-0.9h2.3
	C22.6,1,23,1.4,23,1.9z"/>
<path class="st1" d="M15.1,0.8v12.9c0,0.4-0.4,0.8-0.8,0.8H9.8c-0.4,0-0.8-0.4-0.8-0.8V0.8C9,0.4,9.4,0,9.8,0h4.5
	C14.7,0,15.1,0.4,15.1,0.8z"/>
<path class="st1" d="M16.2,17.8l-3.5,5.8c-0.3,0.5-1.1,0.5-1.4,0l-3.5-5.8c-0.3-0.6,0.1-1.3,0.7-1.3h7
	C16.1,16.5,16.5,17.2,16.2,17.8z"/>
</svg>
