<?xml version="1.0" encoding="utf-8"?>
<!-- Generator: Adobe Illustrator 25.0.1, SVG Export Plug-In . SVG Version: 6.00 Build 0)  -->
<svg version="1.1" id="图层_1" xmlns="http://www.w3.org/2000/svg" xmlns:xlink="http://www.w3.org/1999/xlink" x="0px" y="0px"
	 viewBox="0 0 24 24" style="enable-background:new 0 0 24 24;" xml:space="preserve">
<style type="text/css">
	.st0{fill:none;stroke:#C3C6CA;stroke-width:2;stroke-miterlimit:10;}
	.st1{fill:#C3C6CA;}
</style>
<path class="st0" d="M22,5.3H2C1.5,5.3,1,4.9,1,4.3V2.1C1,1.5,1.5,1.1,2,1.1h20c0.5,0,0.9,0.4,0.9,0.9v2.3C22.9,4.9,22.5,5.3,22,5.3
	z"/>
<path class="st0" d="M22,22.9H2c-0.5,0-0.9-0.4-0.9-0.9v-2.3c0-0.5,0.4-0.9,0.9-0.9h20c0.5,0,0.9,0.4,0.9,0.9v2.3
	C22.9,22.5,22.5,22.9,22,22.9z"/>
<path class="st1" d="M23.2,15.1H10.3c-0.4,0-0.8-0.4-0.8-0.8V9.8c0-0.4,0.4-0.8,0.8-0.8h12.9c0.4,0,0.8,0.4,0.8,0.8v4.5
	C24,14.7,23.6,15.1,23.2,15.1z"/>
<path class="st1" d="M6.2,16.2l-5.8-3.5c-0.5-0.3-0.5-1.1,0-1.4l5.8-3.5c0.6-0.3,1.3,0.1,1.3,0.7v7C7.5,16.1,6.8,16.5,6.2,16.2z"/>
</svg>
