<?xml version="1.0" encoding="utf-8"?>
<!-- Generator: Adobe Illustrator 25.0.1, SVG Export Plug-In . SVG Version: 6.00 Build 0)  -->
<svg version="1.1" id="图层_1" xmlns="http://www.w3.org/2000/svg" xmlns:xlink="http://www.w3.org/1999/xlink" x="0px" y="0px"
	 viewBox="0 0 24 24" style="enable-background:new 0 0 24 24;" xml:space="preserve">
<style type="text/css">
	.st0{fill:#C3C6CA;}
</style>
<path class="st0" d="M17.3,24c8.6-4.3,10.2-18.9-2.8-18.9c-2,0-1.2,0-3.6,0V1.7c0-1-0.4-1.6-1-1.7H9.5C9.3,0,9.1,0.2,8.8,0.4l-8,6.7
	C-0.3,8-0.3,8.6,0.7,9.5l7.9,6.8c0.3,0.2,0.6,0.3,0.9,0.4c1.2,0.2,1.5-0.8,1.5-1.7v-4.3c0,0,1.7,0,2.9,0
	C18.8,10.7,23.8,14.9,17.3,24z"/>
</svg>
