<?xml version="1.0" encoding="utf-8"?>
<!-- Generator: Adobe Illustrator 25.0.1, SVG Export Plug-In . SVG Version: 6.00 Build 0)  -->
<svg version="1.1" id="图层_1" xmlns="http://www.w3.org/2000/svg" xmlns:xlink="http://www.w3.org/1999/xlink" x="0px" y="0px"
	 viewBox="0 0 24 24" style="enable-background:new 0 0 24 24;" xml:space="preserve">
<style type="text/css">
	.st0{fill:#C3C6CA;}
</style>
<path class="st0" d="M15.9,24c12.5-7.5,9.8-18.4-4.4-18.9V1.7c0-1-0.4-1.6-1-1.7h-0.4C9.9,0,9.7,0.2,9.4,0.4L0.8,7.7
	c-1.1,0.9-1.1,2.5-0.1,3.4L9.2,18c0.3,0.2,0.6,0.4,0.9,0.4c0.1,0,0.6-0.1,0.7-0.1c0.6-0.3,0.8-0.7,0.8-1.6v-3.2l1,0
	C17.8,13.8,20,17.1,15.9,24z M11.4,6.9h0.2c8.2,0,15.9,5.8,5.7,15.6c5.9-8.9-1.2-11.1-5.5-11.1h-2v4.8l-0.2-0.1L2,9.9
	c-0.4-0.3-0.4-0.7,0-1l7.5-6.5l0.1-0.1v4.6C9.7,6.9,11.4,6.9,11.4,6.9z"/>
</svg>
