<?xml version="1.0" encoding="utf-8"?>
<!-- Generator: Adobe Illustrator 25.0.1, SVG Export Plug-In . SVG Version: 6.00 Build 0)  -->
<svg version="1.1" id="图层_1" xmlns="http://www.w3.org/2000/svg" xmlns:xlink="http://www.w3.org/1999/xlink" x="0px" y="0px"
	 viewBox="0 0 24 24" style="enable-background:new 0 0 24 24;" xml:space="preserve">
<style type="text/css">
	.st0{fill:#C3C6CA;}
</style>
<path class="st0" d="M0.1,10.6C-0.8,17.8,4.8,23.9,11.8,24c6.7,0.1,12.1-5.3,12.1-11.9c0-0.4,0-0.7,0-1.1c0-2-2.7-2.2-2.4-0.1
	c0.1,0.4,0.1,0.7,0.1,1.1c0,1.3-0.3,2.5-0.7,3.7c-0.5,1.1-1.2,2.2-2,3s-1.9,1.6-3,2.1c-1.2,0.5-2.4,0.8-3.7,0.8s-2.5-0.3-3.7-0.8
	c-1.1-0.5-2.2-1.2-3-2.1s-1.6-1.9-2-3c-0.5-1.2-0.7-2.4-0.7-3.7s0.3-2.5,0.7-3.7c0.5-1.1,1.2-2.2,2-3s1.9-1.6,3-2.1
	c1.2-0.5,2.4-0.8,3.7-0.8s2.5,0.3,3.7,0.8c0.4,0.2,0.9,0.4,1.3,0.7C17,3.9,17,4,16.9,4h-0.5c-0.1,0-0.2,0.1-0.3,0.1l-1.1,1.3
	c-0.3,0.4,0,0.9,0.4,0.9h4.3c1.8,0,1.8,0,1.8-1.7V0.5c0-0.4-0.5-0.7-0.9-0.4l-1.4,1.4c-0.1,0.1-0.1,0.2-0.1,0.3v0.4
	c0,0.1-0.1,0.1-0.2,0.1c-0.3-0.2-0.7-0.5-1-0.7c-2.3-1.3-5-1.9-7.9-1.4C4.8,1,0.7,5.3,0.1,10.6z"/>
</svg>
