<?xml version="1.0" encoding="utf-8"?>
<!-- Generator: Adobe Illustrator 25.0.1, SVG Export Plug-In . SVG Version: 6.00 Build 0)  -->
<svg version="1.1" id="图层_1" xmlns="http://www.w3.org/2000/svg" xmlns:xlink="http://www.w3.org/1999/xlink" x="0px" y="0px"
	 viewBox="0 0 716.8 760.3" style="enable-background:new 0 0 716.8 760.3;" xml:space="preserve">
<style type="text/css">
	.st0{fill:#989898;}
	.st1{fill:#FFFFFF;}
</style>
<path class="st0" d="M358.4,43.5C161.3,43.5,0,204.8,0,401.9s161.3,358.4,358.4,358.4S716.8,599,716.8,401.9S555.5,43.5,358.4,43.5
	L358.4,43.5z"/>
<path class="st1" d="M358.4,709.1c-169,0-307.2-138.2-307.2-307.2c0-171.5,138.2-309.8,307.2-309.8s309.8,138.2,309.8,309.8
	C668.2,570.9,529.9,709.1,358.4,709.1L358.4,709.1z"/>
<path class="st0" d="M67.3,130.3c16.8-15.1,48.4-40.5,77.4-62.8c39.4-30.4-6.7-80.2-42.1-50.7L22.7,81.5
	C-4.3,104.5,39.5,155.3,67.3,130.3z"/>
<path class="st0" d="M652.8,130.3c-16.8-15.1-48.4-40.5-77.4-62.8C536,37,582.1-12.7,617.5,16.8l79.9,64.8
	C724.4,104.5,680.6,155.3,652.8,130.3z"/>
<path class="st0" d="M347.5,143.7h-10.8c-31.1,0-56.3,25.2-56.4,56.4v233.7c0,31.1,25.2,56.3,56.4,56.4h10.8
	c31.1,0,56.3-25.2,56.4-56.4V200.1C403.9,169,378.6,143.8,347.5,143.7z"/>
<path class="st0" d="M280.3,434.1L280.3,434.1c1.5,33.8,30.1,60,64,58.6c0.2,0,0.4,0,0.5,0l174.9-1.4c33.8-1.5,60-30.1,58.6-64
	c0-0.2,0-0.4,0-0.5l0,0c-1.6-33.9-30.3-60.3-64.3-58.7l0,0l-174.8,1C304.9,371,278.9,400,280.3,434.1z"/>
</svg>
