<?xml version="1.0" encoding="utf-8"?>
<!-- Generator: Adobe Illustrator 25.0.1, SVG Export Plug-In . SVG Version: 6.00 Build 0)  -->
<svg version="1.1" id="图层_1" xmlns="http://www.w3.org/2000/svg" xmlns:xlink="http://www.w3.org/1999/xlink" x="0px" y="0px"
	 viewBox="0 0 765 769.2" style="enable-background:new 0 0 765 769.2;" xml:space="preserve">
<style type="text/css">
	.st0{fill:#3D537F;}
	.st1{fill:#3D537F;stroke:#3D537F;stroke-miterlimit:10;}
	.st2{fill:#3D537F;stroke:#3D537F;stroke-width:5;stroke-miterlimit:10;}
	.st3{fill:#3D537F;stroke:#3D537F;stroke-width:4;stroke-miterlimit:10;}
	.st4{fill:#FFFFFF;}
</style>
<circle class="st0" cx="380.4" cy="384.6" r="384.6"/>
<path class="st1" d="M44.4,273.1c12.5,4.1,26.2-2.1,31.3-14.2C145.1,91.8,338.1,12.1,506.8,80.8c76.1,31.1,137.7,89.2,173,162.9
	c5.6,11.8,19.6,17.4,32,12.6l0,0c13-5.1,19.4-19.7,14.3-32.6c-0.2-0.5-0.4-1-0.6-1.5C635.7,33.8,408.8-46.9,218.6,42.1
	C132.7,82.3,65,152.8,28.9,239.8c-5.3,12.9,1,27.6,13.9,32.8C43.4,272.8,43.9,273,44.4,273.1L44.4,273.1z"/>
<path class="st2" d="M6.2,313.3c0.5,8.2,7.5,14.4,15.7,13.9c2.7-0.2,5.3-1.1,7.6-2.6l81.3-56.6c3.8-2.7,4.7-7.9,2-11.7
	c-1.3-1.8-3.2-3-5.3-3.4c-34.9-6.7-67.2-23.1-93.3-47.2c-3.4-3.2-8.8-3-11.9,0.4c-1.6,1.7-2.4,4-2.3,6.3L6.2,313.3z M720.4,495.9
	c-12.6-4.2-26.3,2.1-31.4,14.4c-70.3,171-265.9,252.6-436.9,182.2c-77.2-31.8-139.8-91.2-175.4-166.7C71,513.8,57,508.2,44.6,513
	l-0.4,0.2c-13.1,5.1-19.6,19.9-14.4,33c0.2,0.5,0.4,1,0.6,1.5C121.3,740.5,351.2,823.2,544,732.3c87.2-41.1,155.9-113.3,192.5-202.5
	c5.3-13-0.8-27.8-13.8-33.2c-0.6-0.2-1.1-0.4-1.7-0.6L720.4,495.9z"/>
<path class="st3" d="M758.7,452.6c-0.5-7.3-6.7-12.8-14-12.3c-2.4,0.2-4.7,0.9-6.6,2.3l-81.9,57.1c-4.2,2.9-5.3,8.8-2.3,13
	c1.4,2,3.5,3.3,5.8,3.8c33.5,6.8,64.6,22.5,89.9,45.5c3.8,3.4,9.6,3.1,13-0.7c1.7-1.9,2.5-4.3,2.4-6.8L758.7,452.6z"/>
<path class="st4" d="M384.7,110.6h10.8c31.1,0,56.3,25.2,56.4,56.4v233.7c0,31.1-25.2,56.3-56.4,56.4h-10.8
	c-31.1,0-56.3-25.2-56.4-56.4V167C328.3,135.9,353.6,110.7,384.7,110.6z"/>
<path class="st4" d="M448.8,402.7L448.8,402.7c10.5,32.2-7,66.8-39.2,77.4c-0.2,0.1-0.4,0.1-0.5,0.2L245,540.7
	c-32.2,10.5-66.8-7-77.4-39.2c-0.1-0.2-0.1-0.4-0.2-0.5l0,0c-10.5-32.3,7.1-67.1,39.5-77.6l0,0l163.9-60.7
	C403.6,352.4,438.1,370.3,448.8,402.7z"/>
</svg>
