<?xml version="1.0" encoding="utf-8"?>
<!-- Generator: Adobe Illustrator 25.0.1, SVG Export Plug-In . SVG Version: 6.00 Build 0)  -->
<svg version="1.1" id="图层_1" xmlns="http://www.w3.org/2000/svg" xmlns:xlink="http://www.w3.org/1999/xlink" x="0px" y="0px"
	 viewBox="0 0 24 24" style="enable-background:new 0 0 24 24;" xml:space="preserve">
<style type="text/css">
	.st0{fill:#C3C6CA;}
</style>
<path class="st0" d="M23,21.9h-1.1V11.3c0-1.4-0.9-2.7-2.2-3.2l-4.4-1.5V2.1C15.3,0.4,15,0,13.4,0h-9C2.8,0,2.5,0.4,2.5,2.1v19.8H1
	c-0.6,0-1,0.5-1,1.1S0.5,24,1,24h22c0.6,0,1-0.5,1-1.1S23.5,21.9,23,21.9z M4.5,21.9v-19c0-0.5,0.2-0.7,0.7-0.7h7.5
	c0.5,0,0.6,0.2,0.6,0.7v19.1C13.3,21.9,4.5,21.9,4.5,21.9z M15.3,21.9v-13l3.8,1.3c0.5,0.2,0.8,0.6,0.8,1.1v10.6L15.3,21.9
	L15.3,21.9z"/>
</svg>
