<svg id="图层_1" data-name="图层 1" xmlns="http://www.w3.org/2000/svg" xmlns:xlink="http://www.w3.org/1999/xlink" viewBox="0 0 716 716"><defs><style>.cls-1{fill:none;}.cls-2{clip-path:url(#clip-path);}.cls-3{fill:#c6c6c6;}</style><clipPath id="clip-path" transform="translate(-921.9 -362)"><rect class="cls-1" x="922" y="362" width="715.9" height="716"/></clipPath></defs><g class="cls-2"><path class="cls-3" d="M1580.7,515.6h-44.4v-114a39.69,39.69,0,0,0-39.6-39.6h-432a39.69,39.69,0,0,0-39.6,39.6v114h-46a57.32,57.32,0,0,0-57.2,57.2v320A57.32,57.32,0,0,0,979.1,950h45.2v88.4a39.69,39.69,0,0,0,39.6,39.6h432a39.69,39.69,0,0,0,39.6-39.6V950h45.2a57.32,57.32,0,0,0,57.2-57.2v-320a57.32,57.32,0,0,0-57.2-57.2ZM1075.5,412.4h410.4V515.6H1075.5Zm409.6,615.2H1074.7V822h410.4Zm102.4-134.8a6.81,6.81,0,0,1-6.8,6.8h-45.2V811.2a39.69,39.69,0,0,0-39.6-39.6h-432a39.69,39.69,0,0,0-39.6,39.6v88.4H979.1a6.81,6.81,0,0,1-6.8-6.8v-320a6.81,6.81,0,0,1,6.8-6.8h601.6a6.81,6.81,0,0,1,6.8,6.8Z" transform="translate(-921.9 -362)"/></g><path class="cls-3" d="M1415.3,618h-22.4a14.34,14.34,0,0,0-14.4,14.4v22.4a14.34,14.34,0,0,0,14.4,14.4h22.4a14.34,14.34,0,0,0,14.4-14.4V632.4a14.4,14.4,0,0,0-14.4-14.4Zm103.2,0h-22.4a14.34,14.34,0,0,0-14.4,14.4v22.4a14.34,14.34,0,0,0,14.4,14.4h22.4a14.34,14.34,0,0,0,14.4-14.4V632.4a14.4,14.4,0,0,0-14.4-14.4Z" transform="translate(-921.9 -362)"/></svg>