<svg id="图层_1" data-name="图层 1" xmlns="http://www.w3.org/2000/svg" viewBox="0 0 707.5 820"><defs><style>.cls-1{fill:#575d6d;}</style></defs><path class="cls-1" d="M1037.7,935.4v135.1a59.81,59.81,0,0,0,59.7,59.8l476.2.8a59.73,59.73,0,0,0,59.9-59.8V371.7a59.81,59.81,0,0,0-59.7-59.8l-476.2-.8a59.73,59.73,0,0,0-59.9,59.8V505.8a47.16,47.16,0,0,0,47.2,47.2h0a47.16,47.16,0,0,0,47.2-47.2V407.5H1539v628.3H1132.2V935.4a47.16,47.16,0,0,0-47.2-47.2h0A47.24,47.24,0,0,0,1037.7,935.4Z" transform="translate(-926 -311.1)"/><path class="cls-1" d="M981.2,775.8h333L1278,838.5c-19.5,33.9,4.9,76.2,44,76.2h2.1a50.86,50.86,0,0,0,44.1-25.5l83.2-144.6a47.45,47.45,0,0,0-.4-47.9L1368.4,559a50.86,50.86,0,0,0-43.6-24.7h0c-39.7,0-64.1,43.5-43.4,77.4l32.8,53.6h-333A55.18,55.18,0,0,0,926,720.5h0A55.2,55.2,0,0,0,981.2,775.8Z" transform="translate(-926 -311.1)"/></svg>