<svg id="图层_1" data-name="图层 1" xmlns="http://www.w3.org/2000/svg" viewBox="0 0 501.66 619.8"><defs><style>.cls-1{fill:#fff;stroke:#e6e6e6;stroke-miterlimit:10;stroke-width:25px;}</style></defs><path class="cls-1" d="M1433.1,693.1h-1.4c-10.7,0-19.4,3.1-27.9,8.3-7.4-21.5-26.2-37-50.4-37a55.94,55.94,0,0,0-29.3,8.3c-7.4-21.5-26.2-37-50.4-37a55.65,55.65,0,0,0-26,6.5V586.8c0-30.2-22.8-54.6-53.2-54.6a54.82,54.82,0,0,0-55,54.6V774a10.36,10.36,0,0,1-17.7,7.3l-15.7-15.7c-21.5-21.3-59.5-18.3-77.8,0s-30.3,55.1-4.1,81.3l153.7,152.7a59.47,59.47,0,0,0,10.3,8c28,22.9,60.1,36.4,128,36.4,155.1,0,169.5-83.7,169.5-186.9V747.8c0-30.2-22.2-54.7-52.6-54.7ZM1106,592.7c-4.7-10.3-2.9-21.7-2.1-33.7,2.8-39.1,41.7-77.1,85.2-78.2,47.9-1.2,89.8,40.6,94.2,83.2,1.7,16.6,11.7,19.3,11.8,19.4,8,5.8,16.1-.9,17.1-9a89.37,89.37,0,0,0,.6-10.4c0-57-43.9-114.8-122-114.8-72.8,0-117.7,60.1-116.5,116.7.3,13-.7,25.4,4.5,36.8,6.2,13.5,28.4,7.6,28.4-6.9C1107.1,596,1106.8,594.4,1106,592.7Z" transform="translate(-996.54 -436.7)"/></svg>