<svg id="图层_1" data-name="图层 1" xmlns="http://www.w3.org/2000/svg" viewBox="0 0 541.58 647.3"><defs><style>.cls-1{fill:#fff;}.cls-2{fill:#5d5d5d;}</style></defs><path class="cls-1" d="M1119,581.8s-.8-4.9-3.5-38.7,4-116.1,72.9-124.2,70.2-2.1,106,24.3c16.2,12,34.4,76.3,34.4,91.1l-57.6,14.2-2.4,71.5s9.4-15.5,37.8-14.8,49.9,23.6,49.9,36.4,18.2-10.1,42.5-6.1,47.9,17.5,49.3,35.8,24.3-14.8,52.6-3.4,31,19.6,32.4,43.2,0,185.6-3.4,202.5-29,101.9-103.3,110-162.9,8.8-207.7-30.4S1062.2,837.3,1044.6,815s-25-73.6,8.1-81.7,49.3-3.8,74.2,19.7,51.3,68,50.6-2.9,1.1-180.9,1.1-180.9Z" transform="translate(-1009.12 -396.8)"/><path class="cls-2" d="M1490.9,645.4h-1.6c-12.1,0-22.1,3.5-31.7,9.4-8.4-24.5-29.7-42.1-57.2-42.1a64,64,0,0,0-33.3,9.4c-8.4-24.5-29.7-42.1-57.2-42.1a62.33,62.33,0,0,0-29.5,7.4v-63c0-34.3-25.9-62.1-60.5-62.1s-62.5,27.8-62.5,62.1V737.1c0,10.5-12.7,15.8-20.1,8.4l-17.9-17.8c-24.4-24.2-67.6-20.8-88.4,0s-34.4,62.6-4.7,92.4l174.6,173.5a62.52,62.52,0,0,0,11.7,9.1c31.8,26,68.3,41.4,145.5,41.4,176.3,0,192.6-95.1,192.6-212.4V707.4c0-34.3-25.3-62-59.8-62Zm26.9,186.2c0,99.3-.5,179.7-159.7,179.7-67.4,0-107.9-15-138.6-45.5L1054.2,801.5c-14.6-14.6-10.9-33.3,1-45.3s33.9-12.4,45.5-.9c0,0,29,28.8,54,53.7l.6.6c12.9,12.9,35,3.7,35-14.5V531a29.55,29.55,0,0,1,29.6-29.4c16.4,0,27.6,13.2,27.6,29.4V730.3h.3a17.61,17.61,0,0,0-.3,3.3,16.5,16.5,0,0,0,33,0,18.41,18.41,0,0,0-.3-3.3h.3V648.6c0-16.2,11.8-29.4,28.2-29.4,0,0,29-.4,29,29.4V756.4h.3a17.61,17.61,0,0,0-.3,3.3,16.5,16.5,0,0,0,33,0,18.41,18.41,0,0,0-.3-3.3h.3V681.2c0-16.2,11.6-29.4,28-29.4,0,0,29.6,1.8,29.6,29.4V776h.3a17.61,17.61,0,0,0-.3,3.3,16.41,16.41,0,0,0,16.5,16.3,16,16,0,0,0,16-16.3,18.41,18.41,0,0,0-.3-3.3h.3V711.3c0-16.2,12.2-29.4,28.6-29.4,0,0,28.7-1.2,28.7,29.4V831.6Zm-384.9-266a18.24,18.24,0,0,0-1.2-6.5,92.86,92.86,0,0,1-6.7-41.6,94.58,94.58,0,0,1,91.3-88c53.3-1.5,96.9,44.2,96.9,97.2,0,1.5,0,2.9-.1,4.4-.4,8.6,6.3,17.2,14.9,17.5s16.2-2,17.3-12a108.62,108.62,0,0,0,.7-12.8,127,127,0,0,0-127.8-127c-70,.4-127.4,59.4-126.1,129.4a125.32,125.32,0,0,0,9.4,45.5c6.7,16.7,31.4,11.9,31.4-6.1Z" transform="translate(-1009.12 -396.8)"/></svg>