<?xml version="1.0" encoding="utf-8"?>
<!-- Generator: Adobe Illustrator 25.0.1, SVG Export Plug-In . SVG Version: 6.00 Build 0)  -->
<svg version="1.1" id="图层_1" xmlns="http://www.w3.org/2000/svg" xmlns:xlink="http://www.w3.org/1999/xlink" x="0px" y="0px"
	 viewBox="0 0 24 24" style="enable-background:new 0 0 24 24;" xml:space="preserve">
<style type="text/css">
	.st0{fill:#C3C6CA;}
</style>
<path class="st0" d="M12,0C5.2,0,0,2,0,4.7v14.5C0,21.9,5.2,24,12,24c6.8,0,12-2,12-4.7V4.7C24,2,18.9,0,12,0z M9.8,20.4
	c-4.2-0.1-7.2-1.1-7.2-2.1v-1.8c2,0.9,5,1.6,7.2,1.4C9.8,18.8,9.8,19.5,9.8,20.4z M9.8,16.1C5.6,16,2.7,14.9,2.7,14v-1.8
	c2,0.9,5,1.6,7.2,1.4C9.8,14.5,9.8,15.2,9.8,16.1z M9.8,11.8c-4.2-0.1-7.2-1.1-7.2-2.1V7.9c2,0.9,5,1.6,7.2,1.4
	C9.8,10.1,9.8,10.9,9.8,11.8z M21.5,16c0,0.2-0.2,0.4-0.4,0.4h-2.6c-0.2,0-0.4,0.2-0.4,0.4v2.6c0,0.2-0.2,0.4-0.4,0.4h-2.1
	c-0.2,0-0.4-0.2-0.4-0.4v-2.6c0-0.2-0.2-0.4-0.4-0.4h-2.6c-0.2,0-0.4-0.2-0.4-0.4v-2.1c0-0.2,0.2-0.4,0.4-0.4H15
	c0.2,0,0.4-0.2,0.4-0.4v-2.6c0-0.2,0.2-0.4,0.4-0.4h2.1c0.2,0,0.4,0.2,0.4,0.4v2.6c0,0.2,0.2,0.4,0.4,0.4h2.6c0.2,0,0.4,0.2,0.4,0.4
	V16z M12,6.9c-5.6,0-9.5-1.5-9.5-2.5S6.5,2,12,2c5.6,0,9.5,1.5,9.5,2.5S17.6,6.9,12,6.9z"/>
</svg>
