<svg id="图层_1" data-name="图层 1" xmlns="http://www.w3.org/2000/svg" xmlns:xlink="http://www.w3.org/1999/xlink" viewBox="0 0 710.9 616.6"><defs><style>.cls-1{fill:none;}.cls-2{clip-path:url(#clip-path);}.cls-3{fill:#575d6d;}</style><clipPath id="clip-path" transform="translate(-603.9 -232.2)"><rect class="cls-1" x="604" y="232" width="710.9" height="617.8"/></clipPath></defs><g class="cls-2"><path class="cls-3" d="M1234.2,848.8h-75.5a25.6,25.6,0,0,1,0-51.2h75.6c16.2,0,29.4-13.9,29.4-30.9V314.3c0-17.1-13.2-30.9-29.4-30.9H684.5c-16.2,0-29.4,13.9-29.4,30.9V766.7c0,17,13.2,30.9,29.4,30.9H991.9a25.6,25.6,0,1,1,0,51.2H684.5c-44.4,0-80.6-36.9-80.6-82.1V314.3c0-45.3,36.1-82.1,80.6-82.1h549.7c44.4,0,80.6,36.9,80.6,82.1V766.7c0,45.2-36.2,82.1-80.6,82.1Z" transform="translate(-603.9 -232.2)"/></g><path class="cls-3" d="M866.1,447.9c0-28.2,20-39.7,44.3-25.6l160.3,92.6c24.4,14.1,24.4,37.1,0,51.2L910.4,658.7c-24.4,14.1-44.3,2.6-44.3-25.6Z" transform="translate(-603.9 -232.2)"/></svg>