<?xml version="1.0" encoding="utf-8"?>
<!-- Generator: Adobe Illustrator 25.0.1, SVG Export Plug-In . SVG Version: 6.00 Build 0)  -->
<svg version="1.1" id="图层_1" xmlns="http://www.w3.org/2000/svg" xmlns:xlink="http://www.w3.org/1999/xlink" x="0px" y="0px"
	 viewBox="0 0 24 24" style="enable-background:new 0 0 24 24;" xml:space="preserve">
<style type="text/css">
	.st0{fill:none;stroke:#C3C6CA;stroke-width:2;stroke-miterlimit:10;}
	.st1{fill:#C3C6CA;}
</style>
<path class="st0" d="M16,19.2L15.9,3.9l0-1.4c0-1.3-0.8-1.5-2-1.3L1.8,3.7C1.4,3.8,1,4.1,1,4.5v16c0,0.4,0.3,0.8,0.8,0.8l11.9,1.5
	c1.5,0,2.3-0.9,2.3-2.3L16,19.2z"/>
<g>
	<g>
		<path class="st1" d="M7.4,17.5c0.1,0,0.1,0,0.2,0.1c0.5,0.1,0.7,1,0.4,1c-2-0.2-2.9-0.3-4.8-0.6c0-0.4,0-0.6,0.2-0.6
			c0.1,0,1.1-0.1,1.1-0.1c0.3-0.6,1-2.2,2.3-5.4C5.6,9.4,5,8,4.6,7.2C4.6,7.2,4.4,7,4,7C3.8,7,3.8,6.7,4,6.7c0.1,0,0.3-0.1,0.4-0.1
			C5.7,6.3,6.2,6.2,7.2,6c0.3-0.1,0.2,0.4,0,0.4C6.5,6.6,6.7,7,6.7,7c0.2,0.9,0.4,1.3,1.2,2.9c0.9-2,1.1-2.7,1.4-3.6
			c0,0,0-0.4-0.8-0.2c-0.1,0-0.1-0.2,0-0.2c0-0.1,0.2-0.1,0.3-0.1c1.4-0.3,2-0.4,3.9-0.7c0.3-0.1,0.4,0.4,0,0.5
			c-0.3,0.1-0.6,0.5-0.6,0.5c-0.5,1.6-1.4,4-2.6,6.7c1.3,2.9,1.8,3.9,2.1,4.4c0.3,0.5,0.4,0.8,1.3,1.1c0.7,0.2,0.5,0.7,0.4,0.7
			c-0.1,0.1-1.1,0-1.4-0.1c-0.8-0.1-1.5-0.2-1.6-0.3c-0.2-0.1-0.1-0.2-0.2-0.3C9.8,18.2,9.4,17,8.4,15C7.5,17.2,7.8,16.6,7.4,17.5z"
			/>
	</g>
</g>
<path class="st1" d="M23,2.8l-8.1,0.1l0.2,18.7l7.8,0.1c0.6,0.1,1.1-0.4,1.1-1V3.7C24,3.2,23.5,2.7,23,2.8z M20.3,18h-3.5v-2.5h3.5
	c0.7,0,1.3,0.6,1.3,1.3S21,18,20.3,18z M20.3,13.2h-3.5v-2.5h3.5c0.7,0,1.3,0.6,1.3,1.3S21,13.2,20.3,13.2z M20.3,8.3h-3.5V5.8h3.5
	c0.7,0,1.3,0.6,1.3,1.3S21,8.3,20.3,8.3z"/>
</svg>
