<?xml version="1.0" encoding="utf-8"?>
<!-- Generator: Adobe Illustrator 25.0.1, SVG Export Plug-In . SVG Version: 6.00 Build 0)  -->
<svg version="1.1" id="图层_1" xmlns="http://www.w3.org/2000/svg" xmlns:xlink="http://www.w3.org/1999/xlink" x="0px" y="0px"
	 viewBox="0 0 24 24" style="enable-background:new 0 0 24 24;" xml:space="preserve">
<style type="text/css">
	.st0{fill:#C3C6CA;}
</style>
<path class="st0" d="M8,24C-4.5,16.5-1.8,5.6,12.4,5.1V1.7c0-1,0.4-1.6,1-1.7h0.4c0.3,0,0.5,0.2,0.8,0.4l8.5,7.3
	c1.1,0.9,1.1,2.5,0.1,3.4L14.8,18c-0.3,0.2-0.6,0.4-0.9,0.4c-0.1,0-0.6-0.1-0.7-0.1c-0.6-0.3-0.8-0.7-0.8-1.6v-3.2l-1,0
	C6.1,13.8,3.9,17.1,8,24z M12.6,6.9h-0.2c-8.2,0-15.9,5.8-5.7,15.6c-5.9-8.9,1.2-11.1,5.5-11.1h2v4.8l0.2-0.1l7.4-6.2
	c0.4-0.3,0.4-0.7,0-1l-7.5-6.5l-0.1-0.1v4.6C14.3,6.9,12.6,6.9,12.6,6.9z"/>
</svg>
