<?xml version="1.0" encoding="utf-8"?>
<!-- Generator: Adobe Illustrator 25.0.1, SVG Export Plug-In . SVG Version: 6.00 Build 0)  -->
<svg version="1.1" id="图层_1" xmlns="http://www.w3.org/2000/svg" xmlns:xlink="http://www.w3.org/1999/xlink" x="0px" y="0px"
	 viewBox="0 0 24 24" style="enable-background:new 0 0 24 24;" xml:space="preserve">
<style type="text/css">
	.st0{fill:#C3C6CA;}
</style>
<path class="st0" d="M6.7,24C-1.9,19.7-3.5,5.1,9.5,5.1c2,0,1.2,0,3.6,0V1.7c0-1,0.4-1.6,1-1.7h0.4c0.2,0,0.4,0.2,0.7,0.4l8,6.7
	c1.1,0.9,1.1,1.5,0.1,2.4l-7.9,6.8c-0.3,0.2-0.6,0.3-0.9,0.4c-1.2,0.2-1.5-0.8-1.5-1.7v-4.3c0,0-1.7,0-2.9,0
	C5.1,10.7,0.1,14.9,6.7,24z"/>
</svg>
