<svg id="图层_1" data-name="图层 1" xmlns="http://www.w3.org/2000/svg" xmlns:xlink="http://www.w3.org/1999/xlink" viewBox="0 0 746.12 816.12"><defs><style>.cls-1{fill:none;}.cls-2{clip-path:url(#clip-path);}.cls-3{fill:#575d6d;}</style><clipPath id="clip-path" transform="translate(-897.88 -312.84)"><rect class="cls-1" x="898" y="312" width="763.9" height="817.9"/></clipPath></defs><g class="cls-2"><path class="cls-3" d="M1632,710.5a40.77,40.77,0,0,0-57.7,0L1287.4,997c-71.2,71.2-186.8,71.2-258,0s-71.2-186.8,0-258l312.5-312.5a108,108,0,1,1,152.8,152.7L1205.2,868.3a33.59,33.59,0,0,1-47.5-47.5l234.5-233.4a40.83,40.83,0,0,0,.3-57.6l-.3-.3a41,41,0,0,0-58-.2L1100,763.5a115.82,115.82,0,0,0,163.8,163.8l289.5-289.5c74.3-74.4,74.2-195-.2-269.3s-195-74.2-269.3.2l-312.1,313c-99.8,103.7-98.2,268.2,3.5,369.9s266.2,103.3,369.9,3.5L1632,768.3a40.8,40.8,0,0,0,0-57.8Z" transform="translate(-897.88 -312.84)"/></g></svg>