<svg id="图层_1" data-name="图层 1" xmlns="http://www.w3.org/2000/svg" viewBox="0 0 682.65 682.78"><defs><style>.cls-1{fill:#b4b5b5;}</style></defs><path class="cls-1" d="M1615,602.7c-4.1-12.5-37.7-45.3-81.8-45.1a4.13,4.13,0,0,0-3.6,6.2l18.9,32.6a4.07,4.07,0,0,1-2.1,5.9l-64.8,24a25,25,0,1,0,15.7,47.5l65.2-25.3a4.1,4.1,0,0,1,5.3,2.3l12.4,30.5a4.21,4.21,0,0,0,6.3,1.8c27-19.6,32.6-67.9,28.5-80.4Z" transform="translate(-944.56 -378.56)"/><path class="cls-1" d="M1131.1,790.3a25,25,0,0,0,0,50H1231v78.6a25,25,0,1,0,50,0V840.3h99.9a25,25,0,0,0,0-50H1281V723.7h99.9a25,25,0,0,0,0-50h-64.6l54.4-54.4a25,25,0,1,0-35.3-35.3L1256,663.4,1176.6,584a25,25,0,1,0-35.3,35.3l54.4,54.4h-64.6a25,25,0,0,0,0,50H1231v66.6Z" transform="translate(-944.56 -378.56)"/><path class="cls-1" d="M1532.9,525.9c-11.7,7.9-24.9,6.8-35.1-4.2a288.87,288.87,0,0,0-89.7-64.9c-145.3-67.5-317.9-4.4-385.3,141s-4.4,317.9,141,385.3,317.9,4.4,385.3-141a288.06,288.06,0,0,0,26.8-110.7c.3-7,2.8-28.4,26.4-28.2,22.4.2,25.1,19.4,24.9,27.1a339.84,339.84,0,0,1-31.7,133.4c-79.4,171-282.4,245.2-453.3,165.8S897,747.1,976.4,576.2,1258.8,331,1429.7,410.4a339.61,339.61,0,0,1,108.6,79.7C1549.2,502,1544.6,518,1532.9,525.9Z" transform="translate(-944.56 -378.56)"/></svg>