<svg id="图层_1" data-name="图层 1" xmlns="http://www.w3.org/2000/svg" xmlns:xlink="http://www.w3.org/1999/xlink" viewBox="0 0 689.92 697.78"><defs><style>.cls-1{fill:none;}.cls-2{clip-path:url(#clip-path);}.cls-3{fill:#c3c7cb;}</style><clipPath id="clip-path" transform="translate(-920.94 -362.32)"><rect class="cls-1" x="921" y="362" width="716.9" height="717.8"/></clipPath></defs><g class="cls-2"><path class="cls-3" d="M1576.6,792.6c24.5-14.4,31.9-31.7,33.7-43.7,1.8-11.8.1-30-18.2-50.3-35.9-39.6-95.8-103-113.8-121.9-4.5-25.7-19.5-112-30-164.9-3.9-19.6-15.3-35.5-31.4-43.6-15.9-8.1-34.7-7.8-52.9.7-48.9,23-128.3,62-151.7,73.5-26.2-3.2-116-14-168.8-19.3a56.57,56.57,0,0,0-45.9,16.5,60.84,60.84,0,0,0-17.4,49c5.6,53.7,16.8,143.5,20,169.5-11.2,23.7-50,105.7-72.4,155.3-11.1,24.4-6.7,42.6-1,53.6,7.5,14.6,21.7,24.9,38.9,28.4,51.7,10.1,142.3,25.9,168.8,30.5,19.2,18.3,83.8,80,122.9,115.8,15.8,14.5,30.4,18.4,41.5,18.4a41.83,41.83,0,0,0,7.4-.6c11.5-1.8,27.9-8.9,41-32.1,26.7-47.3,70.2-128.5,82.7-152.1,22.8-12.6,99.8-55.3,146.6-82.7Zm-25.2-43.1c-54.6,31.9-150.9,85.1-151.9,85.6a25.56,25.56,0,0,0-10,10.1c-.5,1-54.7,102.7-85.7,157.6-2.4,4.2-4.3,6.3-5.4,7.1a27.5,27.5,0,0,1-7.3-5c-45.7-41.8-126.8-119.5-127.6-120.3a25.59,25.59,0,0,0-13.1-6.6c-1.1-.2-115.1-19.8-175.2-31.6a7.41,7.41,0,0,1-4.2-2.2c-.4-.7-.7-3.9,2.1-10.2,26.1-57.8,74.6-160,75.1-161.1a25.24,25.24,0,0,0,2.2-13.8c-.1-1.1-14.3-113.3-20.8-175.8a11,11,0,0,1,3.1-8.5,6.29,6.29,0,0,1,4.6-2.1h.8c61.5,6.2,174.1,20,175.2,20.1a24.65,24.65,0,0,0,14.1-2.4c1-.5,100.3-49.5,157.4-76.4,3.9-1.8,7.2-2.3,9.1-1.4,2.2,1.1,4.1,4.5,4.9,8.8,12.2,61.8,30.9,170.1,31.1,171.2a24.77,24.77,0,0,0,6.5,13c.8.8,76.3,80.3,118.2,126.5,4.7,5.2,5.8,8.5,5.9,9,.2.9-2.1,4.2-9.1,8.4Z" transform="translate(-920.94 -362.32)"/></g><path class="cls-3" d="M1148.5,704.2a25,25,0,1,0-35.4,35.2l18.1,18.2a25,25,0,0,0,17.7,7.4,24.51,24.51,0,0,0,17.6-7.3,25,25,0,0,0,.1-35.3Z" transform="translate(-920.94 -362.32)"/><path class="cls-3" d="M1276.4,612a25,25,0,0,0,17.7,7.4,24.51,24.51,0,0,0,17.6-7.3,25,25,0,0,0,.1-35.3l-18.1-18.2a25,25,0,1,0-35.4,35.2Z" transform="translate(-920.94 -362.32)"/><path class="cls-3" d="M1321.1,663.8a25,25,0,0,0-19.1,29.7c0,.2,3.8,20.5-9,33.3-12.4,12.5-31.2,8.9-32.5,8.7a25,25,0,0,0-11.2,48.7,83.33,83.33,0,0,0,18.2,1.9c18.3,0,42.2-5.3,60.9-24,25.7-25.8,26.2-62,22.5-79.2a25,25,0,0,0-29.8-19.1Z" transform="translate(-920.94 -362.32)"/></svg>