<svg id="图层_1" data-name="图层 1" xmlns="http://www.w3.org/2000/svg" xmlns:xlink="http://www.w3.org/1999/xlink" viewBox="0 0 819.2 819.2"><defs><style>.cls-1{fill:none;}.cls-2{clip-path:url(#clip-path);}.cls-3{fill:#b5b5b5;}</style><clipPath id="clip-path" transform="translate(-869.9 -310.5)"><rect class="cls-1" x="870" y="310" width="819.8" height="820.7"/></clipPath></defs><g class="cls-2"><path class="cls-3" d="M1279.5,310.5a68.27,68.27,0,0,1,66.4,84L1535,583.6h102.9a51.24,51.24,0,0,1,51,46.3l.2,4.9v443.7a51.17,51.17,0,0,1-51.2,51.2H921.1a51.17,51.17,0,0,1-51.2-51.2V634.8a51.17,51.17,0,0,1,51.2-51.2h102.8L1213,394.5a61.59,61.59,0,0,1-1.6-10.6l-.2-5.1a68.33,68.33,0,0,1,68.3-68.3Zm351.3,331.4H928.1v429.6h702.7ZM1309,444.2c-16.2,9.1-40.8,9.1-59.1,0L1110.5,583.6h337.9Z" transform="translate(-869.9 -310.5)"/></g><path class="cls-3" d="M1074.7,788.4h409.6c22.8,0,34.1,11.4,34.1,34.1s-11.4,34.1-34.1,34.1H1074.7c-22.8,0-34.1-11.4-34.1-34.1s11.3-34.1,34.1-34.1Z" transform="translate(-869.9 -310.5)"/><path class="cls-3" d="M1074.7,924.9h238.9c22.8,0,34.1,11.4,34.1,34.1s-11.4,34.1-34.1,34.1H1074.7c-22.8,0-34.1-11.4-34.1-34.1s11.3-34.1,34.1-34.1Z" transform="translate(-869.9 -310.5)"/></svg>