<?xml version="1.0" encoding="utf-8"?>
<!-- Generator: Adobe Illustrator 25.0.1, SVG Export Plug-In . SVG Version: 6.00 Build 0)  -->
<svg version="1.1" id="图层_1" xmlns="http://www.w3.org/2000/svg" xmlns:xlink="http://www.w3.org/1999/xlink" x="0px" y="0px"
	 viewBox="0 0 24 24" style="enable-background:new 0 0 24 24;" xml:space="preserve">
<style type="text/css">
	.st0{fill:#C3C6CA;}
</style>
<path class="st0" d="M10.3,22.5H2.5c-1,0-1-0.2-1-1c0,0,0,0,0,0v-19c0-0.8,0-1,1.2-1c0,0,0,0,0,0h17.2c0.4,0,0.7,0.1,0.7,0.6l0,7.6
	c0,0.4,0.3,0.8,0.8,0.8s0.8-0.3,0.8-0.8V1.4c0-1.2-0.2-1.4-1.4-1.4c0,0-2.3,0-2.3,0H1.5C0.3,0,0,0.4,0,1.6v20.7
	C0,23.8,0.8,24,1.9,24h0.6h7.8c0.4,0,0.8-0.3,0.8-0.8S10.7,22.5,10.3,22.5z"/>
<path class="st0" d="M7.9,3.5c-0.4,0-0.8,0.3-0.8,0.8C7.1,4.6,7.4,5,7.9,5h6.4C14.6,5,15,4.6,15,4.2c0-0.4-0.3-0.8-0.8-0.8H7.9z"/>
<path class="st0" d="M16.7,7.8H4.8C4.4,7.8,4,8.2,4,8.6s0.3,0.8,0.8,0.8h11.9c0.4,0,0.8-0.3,0.8-0.8S17.1,7.8,16.7,7.8z"/>
<path class="st0" d="M7.8,19.6c0.4,0,0.8-0.3,0.8-0.8s-0.3-0.8-0.8-0.8h-3c-0.4,0-0.8,0.3-0.8,0.8s0.3,0.8,0.8,0.8H7.8z"/>
<path class="st0" d="M7.8,14.6c0.4,0,0.8-0.3,0.8-0.8s-0.3-0.8-0.8-0.8h-3c-0.4,0-0.8,0.3-0.8,0.8s0.3,0.8,0.8,0.8H7.8z"/>
<g>
	<path class="st0" d="M17.6,11.3c-3.5,0-6.4,2.8-6.4,6.4c0,3.5,2.8,6.4,6.4,6.4c3.5,0,6.4-2.8,6.4-6.4C24,14.1,21.2,11.3,17.6,11.3z
		 M17.6,22.1c-2.5,0-4.5-2-4.5-4.5c0-2.5,2-4.5,4.5-4.5c2.5,0,4.5,2,4.5,4.5C22.1,20.1,20.1,22.1,17.6,22.1z"/>
	<polygon class="st0" points="18.6,16.3 17.6,13.4 16.7,16.3 13.6,16.3 16.1,18.2 15.1,21.1 17.6,19.3 20.2,21.1 19.2,18.2 
		21.7,16.3 	"/>
</g>
</svg>
