<svg id="图层_1" data-name="图层 1" xmlns="http://www.w3.org/2000/svg" viewBox="0 0 625.21 711.64"><defs><style>.cls-1,.cls-2{fill:#040000;}.cls-1,.cls-3{stroke:#fff;stroke-miterlimit:10;stroke-width:8px;}.cls-3{fill:#666;}</style></defs><path class="cls-1" d="M1170.6,906.8l-140.4,159.9c-21,22.3-58.4,7.4-58.4-23.2V380l445,483c22.9,20.3,9.1,58.2-21.5,59.1Z" transform="translate(-967.8 -369.76)"/><polygon class="cls-2" points="72.9 578.45 170.6 464.94 332.7 481.14 75.4 198.65 72.9 578.45"/><path class="cls-2" d="M1170.6,906.8" transform="translate(-967.8 -369.76)"/><path class="cls-3" d="M1278.2,688.8l-1.1-1.1c-17.7-17.7,7.9-103.8,17.3-113.2l87.5-121.4c36.7-41.4-8.7-4,58.4,62,79.6,78.2,116.5,29.1,71.9,68.3l-120.8,88C1382,681,1295.9,706.5,1278.2,688.8Z" transform="translate(-967.8 -369.76)"/><path class="cls-3" d="M1418.6,411.8l18.8-22c42.5-47,191.4,87.8,141.5,136.4l-22,18.1C1515,580.1,1385.5,450.7,1418.6,411.8Z" transform="translate(-967.8 -369.76)"/></svg>