<?xml version="1.0" encoding="utf-8"?>
<!-- Generator: Adobe Illustrator 25.0.1, SVG Export Plug-In . SVG Version: 6.00 Build 0)  -->
<svg version="1.1" id="图层_1" xmlns="http://www.w3.org/2000/svg" xmlns:xlink="http://www.w3.org/1999/xlink" x="0px" y="0px"
	 viewBox="0 0 24 24" style="enable-background:new 0 0 24 24;" xml:space="preserve">
<style type="text/css">
	.st0{fill:#C3C6CA;}
	.st1{display:none;fill:none;stroke:#F90303;stroke-width:0.25;stroke-miterlimit:10;}
</style>
<path class="st0" d="M2.5,12.3c0.4,0,0.8-0.2,0.8-0.7C3.3,6.9,6.4,4.5,7,4c0.1,0.5,0.4,1.5,1,1.8c0.1,0,0.1,0.1,0.2,0.1h0
	c0.5,0.2,1,0.3,1.5,0.3c0.2,0,0.5,0.3,0.8,0.7c0.1,0.5,0.2,1.1,0.2,1.6c0,0.4,0.1,0.8,0.1,1.3c0,0.2,0.1,0.4,0.1,0.5
	c0,0.3,0.2,0.5,0.5,0.6c0.1,0,0.1,0,0.2,0c0.5,0,0.8-0.5,1.4-1.3c0.1-0.1,0.3-0.4,0.4-0.5c0,0,0.1-0.1,0.1-0.1l0,0
	c0.4-0.3,1-0.6,1.1-1.3c0-0.4,0-0.8,0-1.2v0V5.3c0-0.1,0.1-0.1,0.1-0.2c0.1-0.2,0.3-0.4,0.5-0.6L17,4.1c0.1,0,0.5-0.1,0.9-0.2
	c0.4,0.2,0.7,0.5,1,0.8c0.3,0.3,0.6,0.6,0.8,0.9c0.5,0.6,1.8-0.1,1.3-0.8c-1.7-2.2-4.4-4.1-8.3-4.1C5.6,0.7,1.6,6.9,1.9,11.4
	C2,12,2.1,12.2,2.5,12.3z M13.5,6.6v1c0,0-0.1,0.1-0.5,0.4l-0.3,0.2c-0.2,0.2-0.4,0.5-0.6,0.7C12.1,9,12.1,9,12,9.1
	c0-0.2,0-0.4,0-0.5c-0.1-0.7-0.1-1.3-0.3-2c0-0.1,0-0.1-0.1-0.2C11.6,6.2,10.8,5,9.8,5c-0.4,0-0.7-0.1-1-0.3L8.6,4.7
	c0,0-0.1-0.1-0.1-0.1C8.3,4.3,8.2,4,8.2,3.7c0-0.1,0-0.1,0-0.2c0-0.1,0-0.2,0.1-0.3c1.4-0.7,2.9-1,4.4-1c1.3,0,2.5,0.3,3.6,0.8
	l-1.4,0.4c0,0-0.1,0-0.1,0.1c-0.5,0.2-0.9,0.7-1.1,1.3l0,0.1C13.5,5.5,13.5,6,13.5,6.6L13.5,6.6z"/>
<path class="st0" d="M20.7,4.4c0.7,0.4,6.8,4.7-7.4,8.6c-9.8,2.4-12.3,0.3-12-0.7c0.1-0.6,1-1.5,0.7-1.4c-1.4,0.6-4.1,5,1.3,6.6
	l0,0.1c2.5,5.6,9.7,7.1,14.9,4.1c3.4-1.9,5.6-5,5.2-10.6C25.4,6.7,22.3,4.8,20.7,4.4z M17,20l-1.2-2.4c-0.1-0.2-0.3-0.3-0.5-0.3
	c-0.2,0-0.4,0.1-0.5,0.3l-0.9,1.8l-1.3,0.2c-0.1,0-0.2,0.1-0.3,0.1L10,21.5c-2.1-0.6-3.9-1.9-5.1-3.8l-0.1-0.2
	c5.7-0.1,11.1-0.5,17-5.2c0,0.3,0.5,5.5-4.9,8.5l0.1-0.4C17,20.2,17,20.1,17,20L17,20z M12.8,20.7l1.5-0.2c0.2,0,0.4-0.1,0.5-0.3
	l0.5-1l0.5,1.1l-0.2,1.1c-1.3,0.5-2.7,0.6-4,0.4L12.8,20.7L12.8,20.7z"/>
<circle class="st1" cx="12.3" cy="12" r="9.1"/>
</svg>
