<svg id="图层_1" data-name="图层 1" xmlns="http://www.w3.org/2000/svg" viewBox="0 0 786.5 786.5"><defs><style>.cls-1{fill:#3a3e51;}.cls-2{fill:#fff;}.cls-3{fill:#c3c7cb;}</style></defs><path class="cls-1" d="M896.5,336.5H1563c108.1,0,120,.1,120,108.2V1123Z" transform="translate(-896.5 -336.5)"/><path class="cls-2" d="M1411.6,561.4l-91.8,91.8c-13.1,13.1-13.1,32.8,0,45.9s32.8,13.1,45.9,0l91.8-91.8,91.8,91.8c13.1,13.1,32.8,13.1,45.9,0s13.1-32.8,0-45.9l-91.7-91.8,91.7-91.7c13.1-13.1,13.1-32.8,0-45.9s-32.8-13.1-45.9,0l-91.8,91.7-91.8-91.7c-13.1-13.1-32.8-13.1-45.9,0s-13.1,32.8,0,45.9Z" transform="translate(-896.5 -336.5)"/><path class="cls-3" d="M891.4,342" transform="translate(-896.5 -336.5)"/></svg>