<svg id="图层_1" data-name="图层 1" xmlns="http://www.w3.org/2000/svg" viewBox="0 0 159.3 545.1"><defs><style>.cls-1{fill:#040000;}</style></defs><polygon class="cls-1" points="0 199.2 79.6 156.5 159.2 199.2 79.3 0 0 199.2"/><polygon class="cls-1" points="0 345.9 79.6 388.6 159.2 345.9 79.3 545.1 0 345.9"/><path class="cls-1" d="M1215.1,747.6" transform="translate(-1200.4 -408)"/><path class="cls-1" d="M1200.4,680.6h0a8.81,8.81,0,0,1,8.8-8.8h141.7a8.81,8.81,0,0,1,8.8,8.8h0a8.81,8.81,0,0,1-8.8,8.8H1209.2A8.88,8.88,0,0,1,1200.4,680.6Z" transform="translate(-1200.4 -408)"/></svg>