<svg id="图层_1" data-name="图层 1" xmlns="http://www.w3.org/2000/svg" xmlns:xlink="http://www.w3.org/1999/xlink" viewBox="0 0 776.2 776.2"><defs><style>.cls-1{fill:none;}.cls-2{clip-path:url(#clip-path);}.cls-3{fill:#c3c7cb;}</style><clipPath id="clip-path" transform="translate(-570.8 -152.8)"><rect class="cls-1" x="571" y="152" width="776.9" height="777.8"/></clipPath></defs><g class="cls-2"><path class="cls-3" d="M958.9,496.3,624.7,162.1a31.6,31.6,0,0,0-53.9,22.3,31.16,31.16,0,0,0,9.3,22.3L914.3,540.9,580.1,875.1A31.6,31.6,0,0,0,602.4,929a31.16,31.16,0,0,0,22.3-9.3L958.9,585.5l334.2,334.2a31.6,31.6,0,0,0,53.9-22.3,31.16,31.16,0,0,0-9.3-22.3L1003.5,540.9l334.2-334.2a31.6,31.6,0,0,0-22.3-53.9,31.16,31.16,0,0,0-22.3,9.3Z" transform="translate(-570.8 -152.8)"/></g></svg>