<?xml version="1.0" encoding="utf-8"?>
<!-- Generator: Adobe Illustrator 25.0.1, SVG Export Plug-In . SVG Version: 6.00 Build 0)  -->
<svg version="1.1" id="图层_1" xmlns="http://www.w3.org/2000/svg" xmlns:xlink="http://www.w3.org/1999/xlink" x="0px" y="0px"
	 viewBox="0 0 24 24" style="enable-background:new 0 0 24 24;" xml:space="preserve">
<style type="text/css">
	.st0{fill:#C3C6CA;}
</style>
<path class="st0" d="M21.9,0C23.3,0,24,0.8,24,2.5v3.6c0,0.3-0.1,0.3-0.4,0.5l-1.4,0.8c-0.2,0-0.4-0.2-0.4-0.5V3.7h-9v16.6h9v-3.2
	c0-0.3,0.2-0.5,0.4-0.5l1.4,0.8c0.3,0.1,0.4,0.2,0.4,0.5v3.6c0,1.7-0.5,2.5-2.1,2.5H2.1C0.7,24,0,23.1,0,21.5v-3.6
	c0-0.3,0.2-0.3,0.4-0.5l1.4-0.8c0.2,0,0.4,0.2,0.4,0.5v3.2h9V3.7h-9v3.2c0,0.3-0.2,0.5-0.4,0.5L0.4,6.6C0.2,6.4,0,6.3,0,6.1V2.5
	C0,0.8,0.9,0,2.1,0H21.9z"/>
<path class="st0" d="M4.5,17.9v-3.5H0V9.6h4.5V6.3C6.8,9,9,11.4,9,11.9v0.4C9.1,12.7,7.3,14.9,4.5,17.9z"/>
<path class="st0" d="M19.5,17.9v-3.5H24V9.6h-4.5V6.3C17.2,9,15,11.4,15,11.9v0.4C14.9,12.7,16.7,14.9,19.5,17.9z"/>
</svg>
