<svg id="图层_1" data-name="图层 1" xmlns="http://www.w3.org/2000/svg" xmlns:xlink="http://www.w3.org/1999/xlink" viewBox="0 0 717.08 668.08"><defs><style>.cls-1{fill:none;}.cls-2{clip-path:url(#clip-path);}.cls-3{fill:#e6e6e6;}</style><clipPath id="clip-path" transform="translate(-600.99 -206.82)"><rect class="cls-1" x="601" y="206" width="717.8" height="669.8"/></clipPath></defs><g class="cls-2"><path class="cls-3" d="M628,516.5c-7.7,0-15.4-2.6-20.5-10.2-10.2-10.2-7.7-28.2,2.6-35.8L912.2,222.2c28.2-20.5,69.1-20.5,94.7,0L1309,467.8c10.2,7.7,12.8,25.6,2.6,35.8s-25.6,12.8-35.8,2.6L976.2,265.6c-7.7-5.1-23-5.1-30.7,0L643.4,511.4c-5.2,5.1-10.3,5.1-15.4,5.1Zm576,358.4H1037.6c-15.4,0-25.6-10.2-25.6-25.6V729c0-17.9-30.7-35.8-53.8-35.8S907,708.5,907,729V849.3c0,15.4-10.2,25.6-25.6,25.6H720.2c-38.4,0-66.6-28.2-66.6-64V567.7c0-15.4,10.2-25.6,25.6-25.6s25.6,10.2,25.6,25.6V810.9c0,7.7,5.1,12.8,15.4,12.8H858.4V729c0-51.2,53.8-87,102.4-87s105,35.8,105,87v94.7h140.8c7.7,0,12.8,0,12.8-15.4V567.7c0-15.4,10.2-25.6,25.6-25.6s25.6,10.2,25.6,25.6V810.9c-2.6,38.4-28.2,64-66.6,64Z" transform="translate(-600.99 -206.82)"/></g></svg>