<svg id="图层_1" data-name="图层 1" xmlns="http://www.w3.org/2000/svg" viewBox="0 0 819.1 783.1"><defs><style>.cls-1{fill:#777;}.cls-2{fill:#fff;}</style></defs><path class="cls-1" d="M1615.4,623.6h-21.3c0-52.4-27.9-101.6-73.7-127.8-1.6,0-1.6,0-3.3-1.6A95.72,95.72,0,0,0,1545,427c0-54.1-44.2-98.3-98.3-98.3s-98.3,44.2-98.3,98.3a92.58,92.58,0,0,0,27.9,67.2,1.57,1.57,0,0,0-1.6,1.6c-45.9,26.2-73.7,75.4-73.7,127.8h-39.3c0-55.7-31.1-103.2-75.4-129.4,18-18,26.2-42.6,26.2-67.2,0-54.1-44.2-98.3-98.3-98.3s-98.3,44.2-98.3,98.3a98.37,98.37,0,0,0,26.2,67.2c-45.9,24.6-75.4,73.7-75.4,127.8H943.8c-19.7,0-37.7,8.2-52.4,21.3-13.1,13.1-21.3,32.8-21.3,52.4v342.4a73.39,73.39,0,0,0,73.7,73.7h671.7a73.39,73.39,0,0,0,73.7-73.7V697.3a73.6,73.6,0,0,0-73.8-73.7Z" transform="translate(-870.1 -328.7)"/><path class="cls-2" d="M1400.7,409a50.46,50.46,0,0,1,45.9-29.5c27.9,0,49.1,21.3,49.1,49.2,0,19.7-11.5,37.7-31.1,45.9-18,8.2-39.3,3.3-54.1-9.8-13.1-16.5-16.3-37.8-9.8-55.8Z" transform="translate(-870.1 -328.7)"/><path class="cls-2" d="M1446.6,525.3c54.1,0,98.3,44.2,98.3,98.3H1348.3c0-54.1,44.2-98.3,98.3-98.3Z" transform="translate(-870.1 -328.7)"/><path class="cls-2" d="M1066.5,409a50.46,50.46,0,0,1,45.9-29.5c27.9,0,49.2,21.3,49.2,49.2,0,19.7-11.5,37.7-31.1,45.9-18,8.2-39.3,3.3-54.1-9.8-13.2-16.5-16.5-37.8-9.9-55.8Z" transform="translate(-870.1 -328.7)"/><path class="cls-2" d="M1112.4,525.3c54.1,0,98.3,44.2,98.3,98.3H1014.1c0-54.1,44.2-98.3,98.3-98.3Z" transform="translate(-870.1 -328.7)"/><path class="cls-2" d="M1014.1,1064.3c0-54.1,44.2-98.3,98.3-98.3s98.3,44.2,98.3,98.3Z" transform="translate(-870.1 -328.7)"/><path class="cls-2" d="M1130.4,913.6c-18,8.2-39.3,3.3-54.1-9.8-14.7-14.7-18-34.4-9.8-54.1a50.46,50.46,0,0,1,45.9-29.5c27.9,0,49.2,21.3,49.2,49.2-.1,19.6-11.6,37.6-31.2,44.2Z" transform="translate(-870.1 -328.7)"/><path class="cls-2" d="M1348.3,1064.3c0-54.1,44.2-98.3,98.3-98.3s98.3,44.2,98.3,98.3Z" transform="translate(-870.1 -328.7)"/><path class="cls-2" d="M1464.6,913.6c-18,8.2-39.3,3.3-54.1-9.8-14.7-14.7-18-34.4-9.8-54.1a50.46,50.46,0,0,1,45.9-29.5c27.9,0,49.1,21.3,49.1,49.2,0,19.6-11.4,37.6-31.1,44.2Z" transform="translate(-870.1 -328.7)"/><path class="cls-2" d="M1639.9,1039.8c0,6.6-3.3,13.1-6.6,18-4.9,4.9-11.5,6.5-18,6.5H1594c0-52.4-27.9-101.6-73.7-127.8-1.6,0-1.6,0-3.3-1.6a95.72,95.72,0,0,0,27.9-67.2c0-54.1-44.2-98.3-98.3-98.3s-98.3,44.2-98.3,98.3a92.58,92.58,0,0,0,27.9,67.2,1.57,1.57,0,0,0-1.6,1.6c-45.9,26.2-73.7,75.4-73.7,127.8h-39.3c0-55.7-31.1-103.2-75.4-129.4,18-18,26.2-42.6,26.2-67.2,0-54.1-44.2-98.3-98.3-98.3s-98.3,44.2-98.3,98.3a98.37,98.37,0,0,0,26.2,67.2c-45.9,24.6-75.4,73.7-75.4,127.8H943.7c-6.6,0-13.1-3.3-18-6.6a24.93,24.93,0,0,1-6.6-16.4V697.3c0-6.6,3.3-13.1,6.6-18,4.9-3.3,11.5-6.6,18-6.6h671.7c6.6,0,13.1,3.3,18,6.6,4.9,4.9,6.6,11.5,6.6,18l-.1,342.5Z" transform="translate(-870.1 -328.7)"/><path class="cls-1" d="M1639.9,1039.8" transform="translate(-870.1 -328.7)"/></svg>