<svg id="图层_1" data-name="图层 1" xmlns="http://www.w3.org/2000/svg" xmlns:xlink="http://www.w3.org/1999/xlink" viewBox="0 0 722.04 713.64"><defs><style>.cls-1{fill:none;}.cls-2{clip-path:url(#clip-path);}.cls-3{fill:#e6e6e6;}</style><clipPath id="clip-path" transform="translate(-597.86 -183.36)"><rect class="cls-1" x="598" y="183" width="722.9" height="715"/></clipPath></defs><g class="cls-2"><path class="cls-3" d="M845.7,897a27.44,27.44,0,0,1-25.4-17.6L704.8,570.5,601.9,288.7a67.5,67.5,0,0,1,2.5-52,65.06,65.06,0,0,1,38.5-34.4c77.4-27,243.3-33.6,353.5,38.1,174.9,113.9,270.7-2.9,274.8-7.8,7.4-9,19.2-12.7,30.3-8.6a27.22,27.22,0,0,1,18.4,25.8c0,6.6-1.2,164.7-103.2,250.7-55.7,46.7-129,62.7-218.3,47.5-97.5-16.4-189.2,25.4-226.9,46.3L871,860.5a27.4,27.4,0,0,1-16,35.2,31.21,31.21,0,0,1-9.3,1.3ZM773.2,238c-44.2,0-84.8,6.1-112.2,15.6a13.57,13.57,0,0,0-7,6.1,12.23,12.23,0,0,0-.4,9.8l99.1,272.4c47.5-25,147-66.8,255.6-48.3,72.9,12.3,131.5.4,174.1-35.6,46.7-39.3,67.6-100.8,76.6-146.6-57.8,34-158.1,61-291.6-25.8C913.2,251.5,839.1,238,773.2,238Z" transform="translate(-597.86 -183.36)"/></g></svg>