<?xml version="1.0" encoding="utf-8"?>
<!-- Generator: Adobe Illustrator 25.0.1, SVG Export Plug-In . SVG Version: 6.00 Build 0)  -->
<svg version="1.1" id="图层_1" xmlns="http://www.w3.org/2000/svg" xmlns:xlink="http://www.w3.org/1999/xlink" x="0px" y="0px"
	 viewBox="0 0 24 24" style="enable-background:new 0 0 24 24;" xml:space="preserve">
<style type="text/css">
	.st0{fill:#C3C6CA;}
</style>
<path class="st0" d="M19.4,10.8c2.1-0.8,3.5-2.9,3.5-5.2c0-3.1-2.5-5.6-3.6-5.6H0c0,0,1.9,0.5,1.9,2.6l0,0v18.7C1.9,22.4,0,24,0,24
	h19.3c1.7,0,4.7-3,4.7-6.7C24,14.3,22.1,11.7,19.4,10.8z M15,0.7c2.7,0,4.9,2.2,4.9,4.9c0,2.7-2.2,4.9-4.9,4.9H9.5V2.6
	c0-1,0.8-1.9,1.9-1.9c0,0,0,0,0,0L15,0.7L15,0.7z M15,23.2L15,23.2h-3.6c-1,0-1.9-0.8-1.9-1.9c0,0,0,0,0,0V11.2H15l0,0
	c3.3,0,6,2.7,6,6C21,20.6,18.3,23.2,15,23.2z"/>
</svg>
