<svg id="图层_1" data-name="图层 1" xmlns="http://www.w3.org/2000/svg" viewBox="0 0 682.6 682.7"><defs><style>.cls-1{fill:#575d6d;}</style></defs><path class="cls-1" d="M788.7,506.2H1130c22.8,0,34.1,11.4,34.1,34.1s-11.4,34.1-34.1,34.1H788.7c-22.8,0-34.1-11.4-34.1-34.1s11.3-34.1,34.1-34.1Z" transform="translate(-618 -199)"/><path class="cls-1" d="M959.3,881.7C770.8,881.7,618,728.9,618,540.3S770.8,199,959.3,199s341.3,152.8,341.3,341.3S1147.9,881.7,959.3,881.7Zm0-68.3c150.8,0,273.1-122.3,273.1-273.1S1110.1,267.2,959.3,267.2,686.2,389.5,686.2,540.3,808.5,813.4,959.3,813.4Z" transform="translate(-618 -199)"/></svg>