<svg id="图层_1" data-name="图层 1" xmlns="http://www.w3.org/2000/svg" viewBox="0 0 759 757.88"><defs><style>.cls-1{fill:none;stroke:#e6e6e5;stroke-miterlimit:10;stroke-width:60px;}</style></defs><path class="cls-1" d="M1075.7,722.5,936.1,804a12.5,12.5,0,0,0-6.2,10.8l.8,161.6a12.36,12.36,0,0,0,6.3,10.8l140.4,80.1a12.42,12.42,0,0,0,12.5-.1l139.6-81.5a12.5,12.5,0,0,0,6.2-10.8l-.8-161.6a12.36,12.36,0,0,0-6.3-10.8l-140.4-80.1A12.92,12.92,0,0,0,1075.7,722.5Zm546.1,80.1-140.4-80.1a12.42,12.42,0,0,0-12.5.1l-139.6,81.5a12.55,12.55,0,0,0-6.2,10.9l.9,161.6a12.36,12.36,0,0,0,6.3,10.8l140.3,80.1a12.42,12.42,0,0,0,12.5-.1l139.6-81.5a12.5,12.5,0,0,0,6.2-10.8l-.8-161.6A12.82,12.82,0,0,0,1621.8,802.6ZM1425.1,453l-140.4-80.1a12.42,12.42,0,0,0-12.5.1l-139.6,81.5a12.5,12.5,0,0,0-6.2,10.8l.8,161.6a12.36,12.36,0,0,0,6.3,10.8l140.4,80.1a12.42,12.42,0,0,0,12.5-.1L1426,636.2a12.5,12.5,0,0,0,6.2-10.8l-.8-161.6A12.36,12.36,0,0,0,1425.1,453Z" transform="translate(-899.9 -341.26)"/></svg>