<svg id="图层_1" data-name="图层 1" xmlns="http://www.w3.org/2000/svg" viewBox="0 0 639.95 716.81"><defs><style>.cls-1{fill:#b4b5b5;}.cls-2{fill:#fff;}</style></defs><path class="cls-1" d="M1272.2,362.1C1097.4,366,956.9,506.3,960,673.8c1.5,84.5,38.7,160.5,97.8,215.1l188.6,176.8c18.6,17.5,48.5,17.5,67.1,0l188.7-176.9c60.2-55.7,97.7-133.8,97.7-220.3-.1-171.6-147.5-310.4-327.7-306.4Z" transform="translate(-959.95 -362.02)"/><path class="cls-2" d="M1280.1,921.4c-143.9,0-260.5-111.7-260.5-249.5s116.6-249.6,260.5-249.6S1540.6,534,1540.6,671.9,1424,921.4,1280.1,921.4Z" transform="translate(-959.95 -362.02)"/><path class="cls-1" d="M1439.6,658.9H1306.2V532.5c0-18.9-16.4-34.5-36.4-34.5s-36.4,15.5-36.4,34.5V693.4c0,19,16.4,34.5,36.4,34.5h169.8c20,0,36.4-15.5,36.4-34.5s-16.4-34.5-36.4-34.5Z" transform="translate(-959.95 -362.02)"/></svg>