<?xml version="1.0" encoding="utf-8"?>
<!-- Generator: Adobe Illustrator 25.0.1, SVG Export Plug-In . SVG Version: 6.00 Build 0)  -->
<svg version="1.1" id="图层_1" xmlns="http://www.w3.org/2000/svg" xmlns:xlink="http://www.w3.org/1999/xlink" x="0px" y="0px"
	 viewBox="0 0 24 24" style="enable-background:new 0 0 24 24;" xml:space="preserve">
<style type="text/css">
	.st0{fill:#C3C6CA;}
</style>
<path class="st0" d="M9.8,14.7c-0.4,0-0.7-0.1-1-0.4C5.6,11.1,5.9,8.1,9,5l3-3c2.8-2.7,7.3-2.6,10,0.2c2.6,2.7,2.6,7.1,0,9.8l-1,1
	c-0.6,0.5-1.4,0.5-2,0c-0.5-0.6-0.5-1.4,0-2l1-1c1.6-1.7,1.4-3.1-0.3-4.7c-1.6-1.6-3.1-2.2-4.7-0.6l-3,3c-2.1,2.1-2.6,3.1-1.3,4.6
	c0.5,0.6,0.5,1.5,0,2C10.5,14.6,10.2,14.7,9.8,14.7z M7,24c-3.9,0-7.1-3.2-7-7.1c0-1.8,0.7-3.6,2-4.9h0.1c0.6-0.6,1.5-0.6,2,0
	s0.6,1.5,0,2c-1.6,1.7-1.4,3.2,0.4,4.8c1.3,1.2,3.2,1.4,4.8-0.1l3-3c1.7-1.7,2.4-3,1.1-4.3c-0.5-0.6-0.4-1.5,0.2-2
	c0.5-0.5,1.3-0.5,1.8,0c2.8,2.8,2.5,6.8-0.2,9.6l-3,3C10.7,23.3,8.9,24,7,24z"/>
</svg>
