<?xml version="1.0" encoding="utf-8"?>
<!-- Generator: Adobe Illustrator 25.0.1, SVG Export Plug-In . SVG Version: 6.00 Build 0)  -->
<svg version="1.1" id="图层_1" xmlns="http://www.w3.org/2000/svg" xmlns:xlink="http://www.w3.org/1999/xlink" x="0px" y="0px"
	 viewBox="0 0 24 24" style="enable-background:new 0 0 24 24;" xml:space="preserve">
<style type="text/css">
	.st0{fill:#C3C6CA;}
</style>
<path class="st0" d="M0.7,13.4h22.7c0.3,0,0.6-0.1,0.6-0.3v-2.2c0-0.2-0.3-0.3-0.7-0.3H0.7C0.3,10.5,0,10.7,0,10.9v2.3
	C0,13.3,0.3,13.4,0.7,13.4z"/>
<path class="st0" d="M0.7,24h22.6c0.4,0,0.7-0.3,0.7-0.7v-5.7c0-0.4-0.3-0.7-0.7-0.7H0.7C0.3,17,0,17.3,0,17.7v5.7
	C0,23.7,0.3,24,0.7,24z"/>
<path class="st0" d="M0.7,7.1h22.6c0.4,0,0.7-0.3,0.7-0.7V0.7C24,0.3,23.7,0,23.3,0H0.7C0.3,0.1,0,0.4,0,0.8v5.7
	C0,6.8,0.3,7.1,0.7,7.1z"/>
</svg>
