<svg id="图层_1" data-name="图层 1" xmlns="http://www.w3.org/2000/svg" viewBox="0 0 559.6 714.8"><defs><style>.cls-1{fill:#c3c7cb;}</style></defs><path class="cls-1" d="M1172,465.4h-24V369.6a188.31,188.31,0,0,0-376.6,0v95.8h-24A67.43,67.43,0,0,0,680,532.8V830.4a67.43,67.43,0,0,0,67.4,67.4h424.8a67.43,67.43,0,0,0,67.4-67.4V532.8a67.73,67.73,0,0,0-67.6-67.4ZM835.3,369.6a124.41,124.41,0,0,1,248.8,0h-.1v95.8H835.3Zm340.1,460.8a3.5,3.5,0,0,1-3.4,3.4H747.3a3.5,3.5,0,0,1-3.4-3.4V532.8a3.5,3.5,0,0,1,3.4-3.4h424.8a3.5,3.5,0,0,1,3.4,3.4l-.1,297.6Z" transform="translate(-680 -183)"/></svg>