<svg id="图层_1" data-name="图层 1" xmlns="http://www.w3.org/2000/svg" viewBox="0 0 586.2 757.9"><defs><style>.cls-1{fill:#575d6d;}</style></defs><path class="cls-1" d="M1187.2,854h-19.7a21,21,0,0,0,19.8-21v21Zm-.2-326.1v19.7a21,21,0,0,0-21-19.8l21,.1Zm-455.9-.3h19.7a21,21,0,0,0-19.8,21l.1-21Zm.1,326V833.9a21,21,0,0,0,21,19.8l-21-.1Zm66.6-527.9a32.76,32.76,0,0,1,32.8,32.8V495.1a32.8,32.8,0,0,1-65.6,0V358.5a33,33,0,0,1,32.8-32.8Zm102,365a32.76,32.76,0,0,1,32.8-32.8h53a32.8,32.8,0,0,1,0,65.6h-53a33,33,0,0,1-32.8-32.8Zm221.3-368.2a32.76,32.76,0,0,1,32.8,32.8V374a32.8,32.8,0,0,1-65.6,0V355.3a32.88,32.88,0,0,1,32.8-32.8Z" transform="translate(-666 -161)"/><path class="cls-1" d="M959.5,226.5a128.89,128.89,0,0,1,128.9,128.9h65.5a194.4,194.4,0,0,0-388.8,0h65.5A128.89,128.89,0,0,1,959.5,226.5Zm292.7,649.4V511.2a54.38,54.38,0,0,0-51.9-48.8H720.5A54.52,54.52,0,0,0,666,516.7V872.1a54.52,54.52,0,0,0,46.3,46.8h497.2a54.23,54.23,0,0,0,42.7-43ZM731.5,853.4V527.9h455.3V853.4Z" transform="translate(-666 -161)"/></svg>