<svg id="图层_1" data-name="图层 1" xmlns="http://www.w3.org/2000/svg" viewBox="0 0 786.4 747.6"><defs><style>.cls-1{fill:#b4b5b5;}</style></defs><path class="cls-1" d="M1117.8,911.9c-104.7-32.8-182.6-147-183.1-253.5C934,517.8,1045.2,395,1187.3,395c68.7,0,132.6,27.9,181.1,78.2,8.6,8.6,26.1,7.3,34.7-1.3s6.2-25.6-2.4-34.2a294.7,294.7,0,0,0-213.5-91.5,292.86,292.86,0,0,0-117.7,24.9,296.81,296.81,0,0,0-95.8,67,315.83,315.83,0,0,0-64.4,99.2,320.91,320.91,0,0,0-23.6,121.1A327.16,327.16,0,0,0,902,760.2a317,317,0,0,0,45.5,88,308.82,308.82,0,0,0,69.6,68.3,288.83,288.83,0,0,0,88,42.5,36.44,36.44,0,0,0,6,.9c9.4,0,21.9-7.1,24.9-17,3.9-11.6-1-25.3-12.6-28.7Z" transform="translate(-885.7 -346.2)"/><path class="cls-1" d="M1211.8,518a21.9,21.9,0,1,0-43.8,0V638.2a16.52,16.52,0,0,1-3.9,10.3l-76.9,79.4c-8.6,8.6-8.2,22.3.4,30.9a20.27,20.27,0,0,0,15,6,21.26,21.26,0,0,0,15.9-6.9l76.9-79.4a58.83,58.83,0,0,0,16.3-40.8l.1-119.7Zm389.5,339.7c-23.6-24.5-51.1-43.4-81.2-55.4A160.34,160.34,0,0,0,1584.9,673c0-87.6-69.1-158.5-153.7-158.5s-153.7,71.3-153.7,158.9a160.76,160.76,0,0,0,64.8,129.3,236.75,236.75,0,0,0-76.4,51.1c-44.7,44.2-71.3,104.5-74.7,168v2.1c0,41.2,17,69.9,69.4,69.9h354.5c36.9,0,57-20.5,57-57.8v-1.3c-.4-66.1-25.3-129.8-70.8-177ZM1329.3,673c0-61.4,43.1-106.6,101.5-106.6s101.5,45.2,101.5,106.6-43.1,106.6-101.5,106.6S1329.3,734.4,1329.3,673Zm289.2,347.1c0,11.6-8,21-19.2,21H1275.2c-7.3,0-18.5-3-24-8.6a30,30,0,0,1-8.2-22.3v-1.7c5.6-106.9,102.4-172.5,188.2-170.1,51.5,1.4,94.1,14,130.6,51.8,36.5,38.3,56.7,75.4,56.7,129.9Z" transform="translate(-885.7 -346.2)"/></svg>