<svg id="图层_1" data-name="图层 1" xmlns="http://www.w3.org/2000/svg" xmlns:xlink="http://www.w3.org/1999/xlink" viewBox="0 0 804.47 814.1"><defs><style>.cls-1{fill:none;}.cls-2{clip-path:url(#clip-path);}.cls-3{fill:#c3c6ca;}</style><clipPath id="clip-path" transform="translate(-557 -133.7)"><rect class="cls-1" x="557" y="133" width="805" height="815.8"/></clipPath></defs><g class="cls-2"><path class="cls-3" d="M920.5,881.2h-256L874.4,671.3c10.2-10.2,10.2-30.7,0-41-10.2-15.4-30.7-15.4-46.1,0l-209.9,210V563.8c0-15.4-15.4-30.7-30.7-30.7S557,548.5,557,563.8V855.6c0,41,30.7,92.2,76.8,92.2H920.5c15.4,0,30.7-15.4,30.7-30.7,0-20.5-15.3-35.9-30.7-35.9Zm384-747.5H1002.4c-15.4,0-30.7,15.4-30.7,30.7s15.4,30.7,30.7,30.7h256L1043.4,405c-10.2,10.2-10.2,30.7,0,46.1,15.4,10.2,35.8,10.2,46.1,0l209.9-209.9v256c0,15.4,15.4,30.7,30.7,30.7s30.7-15.4,30.7-30.7V215.6c5.2-51.2-20.4-81.9-56.3-81.9Z" transform="translate(-557 -133.7)"/></g></svg>