<svg id="图层_1" data-name="图层 1" xmlns="http://www.w3.org/2000/svg" xmlns:xlink="http://www.w3.org/1999/xlink" viewBox="0 0 775.1 673.59"><defs><style>.cls-1{fill:none;}.cls-2{clip-path:url(#clip-path);}.cls-3{fill:#e6e6e6;}</style><clipPath id="clip-path" transform="translate(-571.9 -203.41)"><rect class="cls-1" x="572" y="203" width="774.9" height="674.9"/></clipPath></defs><g class="cls-2"><path class="cls-3" d="M776.7,849.1c0-142.5,116.3-257.2,258.9-255.6,103.2,1.6,193.3,67.2,234.3,162.2q19.65,49.2,19.7,93.4c0,14.7,11.5,27.9,26.2,27.9h3.3c14.7,0,27.9-11.5,27.9-26.2,0-134.3-83.6-247.4-201.5-293.3a191.42,191.42,0,0,0,81.9-157.3c1.6-104.9-83.6-193.3-188.4-196.6-113-4.9-203.2,83.6-203.2,195,0,65.5,32.8,124.5,83.6,158.9C803.1,603.4,719.5,716.4,719.5,849.1v1.6c0,13.1,11.5,24.6,26.2,24.6h6.6c12.9,0,24.4-11.5,24.4-26.2ZM894.6,421.4c-16.4-95,65.5-175.3,158.9-158.9,57.3,9.8,103.2,55.7,113,113.1,16.4,95-65.5,175.3-158.9,158.9-57.3-9.8-103.1-55.7-113-113.1Z" transform="translate(-571.9 -203.41)"/></g><g class="cls-2"><path class="cls-3" d="M807.8,521.4c-52.4-11.5-90.1-57.3-90.1-113.1s39.3-101.6,91.8-113c9.8-1.6,18-11.5,18-22.9,0-14.7-14.7-26.2-29.5-22.9-73.7,16.4-129.4,81.9-129.4,160.6a163.2,163.2,0,0,0,70.5,134.4C640.7,582,571.9,678.7,571.9,790.1c0,8.2,0,14.7,1.6,22.9v1.6c0,13.1,11.5,24.6,24.6,24.6s24.6-11.5,24.6-24.6V813c0-6.6-1.6-14.7-1.6-22.9,0-108.1,80.3-198.2,185.1-213a28.32,28.32,0,0,0,24.6-27.9c-3.3-13.1-11.5-24.5-23-27.8Z" transform="translate(-571.9 -203.41)"/></g></svg>