<svg id="图层_1" data-name="图层 1" xmlns="http://www.w3.org/2000/svg" xmlns:xlink="http://www.w3.org/1999/xlink" viewBox="0 0 819.1 819.1"><defs><style>.cls-1{fill:none;}.cls-2{clip-path:url(#clip-path);}.cls-3{fill:#575d6d;}</style><clipPath id="clip-path" transform="translate(-549.9 -130.6)"><rect class="cls-1" x="550" y="130" width="819.8" height="820.7"/></clipPath></defs><g class="cls-2"><path class="cls-3" d="M666.6,379.9V267.7A20.36,20.36,0,0,1,687,247.3H799.2a20.36,20.36,0,0,0,20.4-20.4V151a20.36,20.36,0,0,0-20.4-20.4H570.3A20.49,20.49,0,0,0,549.9,151V379.9a20.36,20.36,0,0,0,20.4,20.4h75.9a20.42,20.42,0,0,0,20.4-20.4Zm453.2-132.6H1232a20.47,20.47,0,0,1,20.3,20.4V379.9a20.36,20.36,0,0,0,20.4,20.4h76a20.47,20.47,0,0,0,20.3-20.4V151a20.4,20.4,0,0,0-20.3-20.4h-229a20.36,20.36,0,0,0-20.4,20.4v75.9a20.51,20.51,0,0,0,20.5,20.4ZM799.2,833H687a20.4,20.4,0,0,1-20.4-20.3V700.4A20.36,20.36,0,0,0,646.2,680H570.3a20.36,20.36,0,0,0-20.4,20.4v229a20.47,20.47,0,0,0,20.4,20.3H799.2a20.4,20.4,0,0,0,20.4-20.3v-76A20.36,20.36,0,0,0,799.2,833Zm453.1-132.6V812.7A20.38,20.38,0,0,1,1232,833H1119.7a20.36,20.36,0,0,0-20.4,20.4v76a20.47,20.47,0,0,0,20.4,20.3h229a20.38,20.38,0,0,0,20.3-20.3v-229a20.4,20.4,0,0,0-20.3-20.4h-76a20.42,20.42,0,0,0-20.4,20.4Z" transform="translate(-549.9 -130.6)"/></g><g class="cls-2"><path class="cls-3" d="M570.3,488.8h778.3q20.4,0,20.4,20.4v75.9q0,20.4-20.4,20.4H570.3q-20.4,0-20.4-20.4V509.2q0-20.4,20.4-20.4Z" transform="translate(-549.9 -130.6)"/></g></svg>