<svg id="图层_1" data-name="图层 1" xmlns="http://www.w3.org/2000/svg" viewBox="0 0 787 795.5"><defs><style>.cls-1{fill:#fff;}.cls-2{fill:#c3c7cb;}</style></defs><g id="图层_2" data-name="图层 2"><polygon class="cls-1" points="337.9 549.6 403.8 418.6 588 366.7 721.1 385.3 737.3 492.3 737.3 705.1 640.2 776 360.3 751.1 337.9 549.6"/></g><path class="cls-2" d="M1452.9,847.7l-91.8-91.8c-13.1-13.1-32.8-13.1-45.9,0s-13.1,32.8,0,45.9l91.8,91.8-91.8,91.8c-13.1,13.1-13.1,32.8,0,45.9s32.8,13.1,45.9,0l91.8-91.7,91.7,91.7c13.1,13.1,32.8,13.1,45.9,0s13.1-32.8,0-45.9l-91.8-91.8,91.8-91.8c13.1-13.1,13.1-32.8,0-45.9s-32.8-13.1-45.9,0Zm230-520.2-.6,667.5c0,108.1-24.3,128-132.4,128h-654Z" transform="translate(-895.9 -327.5)"/></svg>