<?xml version="1.0" encoding="utf-8"?>
<!-- Generator: Adobe Illustrator 25.0.1, SVG Export Plug-In . SVG Version: 6.00 Build 0)  -->
<svg version="1.1" id="图层_1" xmlns="http://www.w3.org/2000/svg" xmlns:xlink="http://www.w3.org/1999/xlink" x="0px" y="0px"
	 viewBox="0 0 24 24" style="enable-background:new 0 0 24 24;" xml:space="preserve">
<style type="text/css">
	.st0{fill:none;stroke:#C3C6CA;stroke-width:2;stroke-miterlimit:10;}
	.st1{fill:#C3C6CA;}
</style>
<path class="st0" d="M22,5.3H2C1.5,5.3,1,4.9,1,4.3V2.1C1,1.5,1.5,1.1,2,1.1h20c0.5,0,0.9,0.4,0.9,0.9v2.3C22.9,4.9,22.5,5.3,22,5.3
	z"/>
<path class="st0" d="M22,22.9H2c-0.5,0-0.9-0.4-0.9-0.9v-2.3c0-0.5,0.4-0.9,0.9-0.9h20c0.5,0,0.9,0.4,0.9,0.9v2.3
	C22.9,22.5,22.5,22.9,22,22.9z"/>
<path class="st1" d="M12.8,15.1h-12c-0.4,0-0.8-0.4-0.8-0.8V9.8c0-0.4,0.4-0.8,0.8-0.8h12c0.4,0,0.8,0.4,0.8,0.8v4.5
	C13.6,14.7,13.3,15.1,12.8,15.1z"/>
<path class="st1" d="M23.6,8C24,8.4,24,8.9,23.7,9.4l-2.4,2.5l2.4,2.5c0.4,0.4,0.4,1.1,0.1,1.6l-0.1,0.1c-0.4,0.4-1.2,0.4-1.6,0
	l-2.4-2.5l-2.4,2.5c-0.4,0.4-1,0.4-1.5,0.1l-0.1-0.1c-0.4-0.4-0.4-1.2,0-1.8l2.4-2.5l-2.3-2.5c-0.7-0.9,0.9-2.5,1.8-1.8l2.4,2.5
	l2.3-2.5C22.5,7.4,23,7.4,23.6,8z"/>
</svg>
