<?xml version="1.0" encoding="utf-8"?>
<!-- Generator: Adobe Illustrator 25.0.1, SVG Export Plug-In . SVG Version: 6.00 Build 0)  -->
<svg version="1.1" id="图层_1" xmlns="http://www.w3.org/2000/svg" xmlns:xlink="http://www.w3.org/1999/xlink" x="0px" y="0px"
	 viewBox="0 0 24 24" style="enable-background:new 0 0 24 24;" xml:space="preserve">
<style type="text/css">
	.st0{fill:none;stroke:#C3C6CA;stroke-width:2;stroke-miterlimit:10;}
	.st1{fill:#C3C6CA;}
</style>
<path class="st0" d="M18.9,22.1V1.9c0-0.5,0.4-0.9,0.9-0.9h2.3C22.6,1,23,1.4,23,1.9v20.2c0,0.5-0.4,0.9-0.9,0.9h-2.3
	C19.3,23,18.9,22.6,18.9,22.1z"/>
<path class="st0" d="M1,22.1V2c0-0.5,0.4-1,1-1h2.3c0.5,0,0.9,0.5,0.9,1v20.1c0,0.5-0.4,0.9-0.9,0.9H2C1.4,23,1,22.6,1,22.1z"/>
<path class="st1" d="M8.9,12.8v-12C8.9,0.4,9.3,0,9.8,0h4.5c0.4,0,0.8,0.4,0.8,0.8v12c0,0.4-0.4,0.8-0.8,0.8H9.8
	C9.3,13.6,8.9,13.3,8.9,12.8z"/>
<path class="st1" d="M16,23.6c-0.4,0.4-0.9,0.4-1.4,0.1l-2.5-2.4l-2.5,2.4c-0.4,0.4-1.1,0.4-1.6,0.1l-0.1-0.1
	c-0.4-0.4-0.4-1.2,0-1.6l2.5-2.4l-2.5-2.4c-0.4-0.4-0.4-1-0.1-1.5l0.1-0.1c0.4-0.4,1.2-0.4,1.8,0l2.5,2.4l2.5-2.3
	c0.9-0.7,2.5,0.9,1.8,1.8L14,20l2.5,2.3C16.6,22.5,16.6,23,16,23.6z"/>
</svg>
