<?xml version="1.0" encoding="utf-8"?>
<!-- Generator: Adobe Illustrator 25.0.1, SVG Export Plug-In . SVG Version: 6.00 Build 0)  -->
<svg version="1.1" id="图层_1" xmlns="http://www.w3.org/2000/svg" xmlns:xlink="http://www.w3.org/1999/xlink" x="0px" y="0px"
	 viewBox="0 0 24 24" style="enable-background:new 0 0 24 24;" xml:space="preserve">
<style type="text/css">
	.st0{fill:#C3C6CA;}
	.st1{fill:#FFFFFF;}
</style>
<path class="st0" d="M21.6,0c1.2,0,2.1,0.9,2.3,2.1v6.1H9.3V24H2.2C1,24,0,23.1,0,21.9V2.3C0,1,0.6,0,2.3,0H21.6z"/>
<path class="st1" d="M7.3,8.3H2.7v13.5c0,0.3,0.2,0.5,0.5,0.5h4C7.3,22.3,7.3,8.3,7.3,8.3z"/>
<path class="st1" d="M7.3,2.4h-4C3,2.4,2.7,2.7,2.7,3v2.8h4.6V2.4z"/>
<path class="st1" d="M20.6,2.4c-0.4,0-11.2,0-11.2,0v3.4h11.7c0,0,0-1.7,0-2.8C21.1,2.7,20.9,2.4,20.6,2.4z"/>
<path class="st0" d="M23.5,11.4c0.6,0.6,0.6,1.3,0.1,2.1l-3.5,3.7l3.5,3.7c0.6,0.6,0.6,1.6,0.2,2.4l-0.2,0.2c-0.6,0.6-1.7,0.6-2.4,0
	l-3.5-3.7l-3.5,3.7c-0.6,0.6-1.5,0.6-2.2,0.2l-0.2-0.2c-0.6-0.6-0.6-1.8,0-2.6l3.5-3.7L12,13.5c-1-1.3,1.3-3.7,2.6-2.6l3.5,3.7
	l3.4-3.6C21.9,10.5,22.6,10.5,23.5,11.4z"/>
</svg>
