<svg id="图层_1" data-name="图层 1" xmlns="http://www.w3.org/2000/svg" xmlns:xlink="http://www.w3.org/1999/xlink" viewBox="0 0 733.42 794.5"><defs><style>.cls-1{fill:none;}.cls-2{clip-path:url(#clip-path);}.cls-3{fill:#e6e6e6;}</style><clipPath id="clip-path" transform="translate(-592.99 -143.3)"><rect class="cls-1" x="593" y="143" width="733.9" height="795.8"/></clipPath></defs><g class="cls-2"><path class="cls-3" d="M602.8,717.4l24.8,42.9c21.1,36.5,65.1,48.3,101.6,27.2l45.1-26-24.8-42.9-45.1,26c-12.9,7.5-26.4,3.8-33.9-9.1l-24.8-42.9c-7.4-12.9-3.8-26.4,9.1-33.9l45.1-26-24.8-42.9-45.1,26c-34.4,19.8-47,67.3-27.2,101.6Zm541.6-395.7,24.8,42.9,45.1-26.1c12.9-7.4,26.4-3.8,33.9,9.1l24.8,42.9c7.4,12.9,3.8,26.4-9.1,33.9l-45.1,26,24.8,42.9,45.1-26c36.5-21.1,48.3-65.1,27.2-101.6l-24.8-42.9c-21.1-36.5-65.1-48.3-101.6-27.2l-42.9,24.8c-1.3-2.1-3.4-.9-2.2,1.3Zm-162.8-178-48.9-.4c-40,.2-74.6,34.5-74.4,74.4l-.4,48.9a2.48,2.48,0,0,1-.9,3.4l48.9.4.9-3.4-.8-31-.1-20c.2-14.5,11.9-24.1,25.1-26l48.9.4c14.5.3,24.1,11.9,26,25.1l-.4,48.9-.9,3.4,48.9.4.9-3.4.4-48.9c-.2-39.9-33.3-72.3-73.2-72.2Zm77.7,665.2-48.9-.4-.9,3.4-.9,3.4.5,45.5c1,16.6-10.7,26.2-25.1,26l-48.9-.4c-14.5-.3-24-11.9-26-25.1l-1.7-47.6L907,808l-48.9-.4-.9,3.4-.4,48.9c6,45.2,39.1,77.6,79.1,77.5l48.9.4c40-.2,74.6-34.5,74.4-74.4l.4-48.9c-1.3-2.2.9-3.5-.3-5.6ZM627.4,313.8l-24.1,42.5c-20.1,34.5-10.7,80.6,27.2,101.7L673,482.1l3.4.9,24.1-42.5-3.4-.9-26.5-16.2-17.3-10.1c-12.7-7-15.8-22.4-8.8-35l24.1-42.5c7-12.7,22.4-15.8,35-8.8l42.5,24.1,3.4.9,24.1-42.5a2.45,2.45,0,0,0-3.4-.9l-42.5-24.1c-35.3-16.8-80.1-5.2-100.3,29.3Zm614.5,280.8-24.1,42.5,6.8,1.8,39.2,23.2c12.6,7,15.8,22.4,8.8,35l-24.1,42.5c-7,12.7-22.4,15.8-35,8.8l-40.4-25.3-4.6-3.1-24.1,42.5a2.37,2.37,0,0,0,3.4.9l42.5,24.1c34.5,20.1,80.6,10.7,101.7-27.2l24.1-42.5c20.1-34.5,10.7-80.6-27.2-101.7L1246.4,592a3.68,3.68,0,0,1-4.5,2.6Z" transform="translate(-592.99 -143.3)"/></g><path class="cls-3" d="M708.9,450l-43.8-26.3c-26.7,72.7-28.5,153.9.4,228.8l42.9-24.8c-22.3-58.6-18.3-121,.5-177.7ZM908.7,280.3l-.8-51a330.45,330.45,0,0,0-106.6,38.6c-34.4,19.8-60.7,43.7-84.6,71.7l43.8,26.2a241,241,0,0,1,65.6-55,254,254,0,0,1,82.6-30.5Zm97.8.8c58.5,12.1,112.4,41,154.2,88.5l42.9-24.8a311.44,311.44,0,0,0-196.7-112.6Zm202,350,43.8,26.2c26.7-72.7,28.5-153.9-.4-228.8L1209,453.3c22.4,58.7,18.4,121.1-.5,177.8Zm-296.7,220L911,800c-58.5-12.1-112.4-41-154.2-88.5l-42.9,24.8C765.5,801,836.8,840,911.8,851.1Zm97-50.3.8,51.1c36.3-6.6,72.2-18.8,106.5-38.6,32.2-18.6,60.7-43.6,84.6-71.7l-43.8-26.3a242.06,242.06,0,0,1-65.5,55,254.83,254.83,0,0,1-82.6,30.5Zm20.9-355.6a19.41,19.41,0,0,0,5.6,19.7c31.8,30.3,41.2,76.4,21.8,122-17.7,38.8-58.5,62.4-101.8,61.7-70.1-2.5-115.3-70.8-96.9-133,10-37.3,39.4-65.7,74.4-74.4A19.36,19.36,0,0,0,947.5,427l.9-3.4c3.6-13.6-10.6-28.3-25.9-25.1-60.2,14.7-108.3,65.3-112,133.3a145.49,145.49,0,0,0,83.1,143.9c86.9,41.4,186.3-4.5,210.9-96,14.5-54.2-2-107.6-39.7-143.1-9.7-11.8-29.4-6.2-35.1,8.6Z" transform="translate(-592.99 -143.3)"/></svg>