<?xml version="1.0" encoding="utf-8"?>
<!-- Generator: Adobe Illustrator 25.0.1, SVG Export Plug-In . SVG Version: 6.00 Build 0)  -->
<svg version="1.1" id="图层_1" xmlns="http://www.w3.org/2000/svg" xmlns:xlink="http://www.w3.org/1999/xlink" x="0px" y="0px"
	 viewBox="0 0 24 24" style="enable-background:new 0 0 24 24;" xml:space="preserve">
<style type="text/css">
	.st0{fill:#C3C6CA;}
</style>
<path class="st0" d="M12,0C5.4,0,0,5.4,0,12s5.4,12,12,12s12-5.4,12-12S18.6,0,12,0z M12,21.3c-5.1,0-9.3-4.2-9.3-9.3
	S6.9,2.7,12,2.7s9.3,4.2,9.3,9.3S17.1,21.3,12,21.3z"/>
<path class="st0" d="M11.9,5.2L11.9,5.2c0.9,0,1.4,0.5,1.4,1.4v5.1c0,0.9-0.5,1.4-1.4,1.4l0,0c-0.9,0-1.4-0.5-1.4-1.4V6.6
	C10.5,5.7,11,5.2,11.9,5.2z"/>
<path class="st0" d="M17.9,17.9L17.9,17.9c-0.7,0.7-1.3,0.7-2,0L11,13c-0.7-0.7-0.7-1.3,0-2l0,0c0.7-0.7,1.3-0.7,2,0l4.9,4.9
	C18.6,16.6,18.6,17.3,17.9,17.9z"/>
</svg>
