<svg id="图层_1" data-name="图层 1" xmlns="http://www.w3.org/2000/svg" viewBox="0 0 708.8 709.15"><defs><style>.cls-1{fill:#fff;}</style></defs><path class="cls-1" d="M1659.7,720h-34.3a34.09,34.09,0,0,0-30.5,19,282.31,282.31,0,0,1-26.7,42.9,33.81,33.81,0,0,0-2.2,37.2l18.7,32.5a33.32,33.32,0,0,1-12.2,45.5l-115.3,66.7a33.46,33.46,0,0,1-45.6-12.2l-22.1-38.3a33.86,33.86,0,0,0-31.8-16.9c-5.5.4-11.1.7-16.7.7s-11.2-.2-16.7-.7a33.83,33.83,0,0,0-31.9,16.9l-22.1,38.3a33.26,33.26,0,0,1-45.6,12.2l-115.5-66.7a33.49,33.49,0,0,1-12.3-45.5l18.8-32.5a33.77,33.77,0,0,0-2.4-37.5,273,273,0,0,1-26.4-42.6,34.18,34.18,0,0,0-30.5-19.1h-.3a69.44,69.44,0,0,1-69.4-69.4V543a35.42,35.42,0,0,1,35.5-35.4h34.3a34.09,34.09,0,0,0,30.5-19,286.73,286.73,0,0,1,26.6-42.9,34,34,0,0,0,2.1-37.3L1097,376a33.44,33.44,0,0,1,12.3-45.5l115.5-66.7a33.44,33.44,0,0,1,45.6,12.2l22.1,38.3a33.78,33.78,0,0,0,31.8,16.9c5.6-.4,11.1-.7,16.8-.7s11.1.2,16.6.6a33.83,33.83,0,0,0,31.9-16.9l22.1-38.3a33.29,33.29,0,0,1,45.6-12.2l115.5,66.7a33.32,33.32,0,0,1,12.2,45.5l-18.8,32.5a34,34,0,0,0,2.4,37.5,291.56,291.56,0,0,1,26.5,42.6,34.09,34.09,0,0,0,30.5,19H1660a35.42,35.42,0,0,1,35.5,35.4V684.6a35.87,35.87,0,0,1-35.8,35.4ZM1340.9,472.5a141.3,141.3,0,1,0,141.3,141.3,141.35,141.35,0,0,0-141.3-141.3Z" transform="translate(-986.7 -259.17)"/></svg>