<svg id="图层_1" data-name="图层 1" xmlns="http://www.w3.org/2000/svg" viewBox="0 0 656.13 682.86"><defs><style>.cls-1{fill:#b4b5b5;}</style></defs><path class="cls-1" d="M1105.6,649.6c5.9-11.7,8-56-23.4-87-2.3-2.2-6.9-.9-7.7,2.2l-11.4,33.4a4.11,4.11,0,0,1-5.7,2.7L994.6,572a25,25,0,0,0-22.5,44.7l64,28.2a4.07,4.07,0,0,1,2.1,5.4l-12.8,30.3a4.15,4.15,0,0,0,3.2,5.7c32.9,5.2,71.1-24.9,77-36.7Z" transform="translate(-954.8 -373.27)"/><path class="cls-1" d="M958.4,832.6c5.9,11.7,44,41.9,76.9,36.6a4.15,4.15,0,0,0,3.2-5.7l-12.8-30.3a4.15,4.15,0,0,1,2.1-5.4l64-28.2a25,25,0,0,0-22.5-44.7l-62.8,28.9a4.11,4.11,0,0,1-5.7-2.7l-11.4-33.4c-.8-3.1-5.5-4.4-7.7-2.2-31.4,31.1-29.3,75.4-23.3,87.1Z" transform="translate(-954.8 -373.27)"/><path class="cls-1" d="M1191.6,782.7a25,25,0,0,0,0,50h99.9v78.6a25,25,0,1,0,50,0V832.7h99.9a25,25,0,0,0,0-50h-99.9V716.1h99.9a25,25,0,0,0,0-50h-64.6l54.4-54.4a25,25,0,1,0-35.3-35.3l-79.4,79.4-79.4-79.4a25,25,0,1,0-35.3,35.3l54.4,54.4h-64.6a25,25,0,0,0,0,50h99.9v66.6Z" transform="translate(-954.8 -373.27)"/><path class="cls-1" d="M1065.8,921.4c77.8,76.6,195.7,105.8,304.7,65.3,150.2-55.8,226.8-222.8,171-373s-222.8-226.8-373-171a288.6,288.6,0,0,0-97,59.8c-5.1,4.7-22,18.3-38.6,1.5-15.8-15.9-4.2-31.5,1.4-36.8a339.89,339.89,0,0,1,116.4-72.5c176.7-65.6,373.2,24.5,438.8,201.2s-24.5,373.2-201.2,438.8c-129,47.9-268.5,12.8-360-78.3C994.6,922.6,1036.5,892.5,1065.8,921.4Z" transform="translate(-954.8 -373.27)"/></svg>