<svg id="图层_1" data-name="图层 1" xmlns="http://www.w3.org/2000/svg" viewBox="0 0 580.84 580.42"><defs><style>.cls-1{fill:#575d6d;}</style></defs><path class="cls-1" d="M1255.2,933.9c-139.1,55.9-226.1,43.1-247.7,45.2-13.9,1.3-17.9,7.6-17.9,14.8,0,23.7,151.6,23.5,234.8-1.4,234.3-70.3,318.1,44.8,343.5,10.5C1584.7,980.3,1522.2,826.5,1255.2,933.9Z" transform="translate(-989.6 -431.01)"/><path class="cls-1" d="M1268.9,553.5l40.2-39.1,126.4,130.8-40.1,39.1Z" transform="translate(-989.6 -431.01)"/><path class="cls-1" d="M1372.5,503.1,1092.5,776a55.56,55.56,0,0,0-14.8,25.3l-18.5,70a11.45,11.45,0,0,0,13.6,14.1l70.2-16.5a54.49,54.49,0,0,0,25.6-14.1L1447,583.5a27.07,27.07,0,0,0,.6-38.1l-40.4-41.8A24.42,24.42,0,0,0,1372.5,503.1Zm131.8,101L1195.8,904.7a55.37,55.37,0,0,1-25.6,14.1l-144.4,33.9c-21.6,5.1-40.9-14.8-35.1-36.4l38.2-143.9a54.69,54.69,0,0,1,14.8-25.3L1352,446.5a54.48,54.48,0,0,1,77.3,1.2l76.1,78.8A55,55,0,0,1,1504.3,604.1Z" transform="translate(-989.6 -431.01)"/></svg>