<svg id="图层_1" data-name="图层 1" xmlns="http://www.w3.org/2000/svg" xmlns:xlink="http://www.w3.org/1999/xlink" viewBox="0 0 769.18 649.7"><defs><style>.cls-1{fill:none;}.cls-2{clip-path:url(#clip-path);}.cls-3{fill:#c3c7cb;}</style><clipPath id="clip-path" transform="translate(-574.93 -215.2)"><rect class="cls-1" x="575" y="215" width="769.9" height="650.9"/></clipPath></defs><g class="cls-2"><path class="cls-3" d="M958.3,864.9c-17.9,0-35.8-6.4-51.2-19.2-92.2-81.9-249.6-221.4-265-236.8-51.2-51.2-74.2-121.6-65.3-193.3,12.8-101.1,96-185.6,198.4-198.4,67.8-9,134.4,12.8,184.3,57.6,49.9-44.8,116.5-65.3,184.3-57.6,103.7,12.8,184.3,94.7,198.4,198.4,9,71.7-14.1,142.1-65.3,193.3-17.9,15.4-175.4,154.9-267.5,236.8-15.2,12.8-33.1,19.2-51.1,19.2ZM678,573.1c10.2,10.2,111.4,99.8,263.7,234.2,10.2,9,24.3,9,33.3,0,154.9-135.7,253.4-224,263.7-234.2,39.7-39.7,57.6-94.7,51.2-151-10.2-79.4-74.2-143.4-153.6-153.6-60.2-7.7-117.8,14.1-158.7,58.9a25.68,25.68,0,0,1-38.4,0c-39.7-46.1-97.3-66.6-158.7-58.9-79.4,10.2-143.4,74.2-153.6,153.6-6.5,56.3,11.4,111.3,51.1,151Zm506.9-28.2a25.3,25.3,0,0,1-17.9-7.7c-10.2-10.2-10.2-25.6,0-35.8,14.1-14.1,23-33.3,23-53.8a77.08,77.08,0,0,0-76.8-76.8,25.6,25.6,0,0,1,0-51.2c70.4,0,128,57.6,128,128,0,34.6-12.8,66.6-37.1,90.9-6.4,3.9-12.8,6.4-19.2,6.4Z" transform="translate(-574.93 -215.2)"/></g></svg>