<svg id="图层_1" data-name="图层 1" xmlns="http://www.w3.org/2000/svg" xmlns:xlink="http://www.w3.org/1999/xlink" viewBox="0 0 822.68 580.1"><defs><style>.cls-1{fill:none;}.cls-2{clip-path:url(#clip-path);}.cls-3{fill:#e6e6e6;}</style><clipPath id="clip-path" transform="translate(-547.82 -250.6)"><rect class="cls-1" x="548" y="250" width="822.9" height="581.8"/></clipPath></defs><g class="cls-2"><path class="cls-3" d="M1339.8,318.8H947.2c-13.7,0-27.3-17.1-27.3-34.1,0-20.5,10.2-34.1,27.3-34.1h392.5c13.7,0,27.3,13.7,27.3,34.1.1,17-10.2,34.1-27.2,34.1ZM960.9,421.2H1333c20.5,0,37.5,17.1,37.5,34.1,0,20.5-17.1,34.1-37.5,34.1H960.9c-20.5,0-37.5-13.7-37.5-34.1s17-34.1,37.5-34.1Zm0,238.9c-20.5,0-37.5-17.1-37.5-34.1,0-20.5,17.1-34.1,37.5-34.1H1333c20.5,0,37.5,13.7,37.5,34.1s-17.1,34.1-37.5,34.1Zm3.4,102.4h361.8c23.9,0,41,13.7,41,34.1s-17.1,34.1-41,34.1H964.3c-23.9,0-41-13.7-41-34.1s17.1-34.1,41-34.1ZM810.7,783c-13.7,13.7-37.5,13.7-51.2,0L558.1,564.6c-13.7-13.7-13.7-41,0-54.6L759.5,291.5c13.7-13.7,37.5-13.7,51.2,0s13.7,41,0,54.6L633.2,537.3,810.7,728.4c13.7,17.1,13.7,41,0,54.6Z" transform="translate(-547.82 -250.6)"/></g></svg>