<svg id="图层_1" data-name="图层 1" xmlns="http://www.w3.org/2000/svg" xmlns:xlink="http://www.w3.org/1999/xlink" viewBox="0 0 468.99 716.73"><defs><style>.cls-1{fill:none;}.cls-2{clip-path:url(#clip-path);}</style><clipPath id="clip-path" transform="translate(-725.1 -182.1)"><rect class="cls-1" x="725" y="182" width="469.9" height="717.8"/></clipPath></defs><g class="cls-2"><path d="M1008.8,625.1,1103.3,828a22.63,22.63,0,0,1-11.1,30.2l-82.6,38.5a22.63,22.63,0,0,1-30.2-11.1L882.8,678.2l-119,119A22.65,22.65,0,0,1,725.1,781V204.9a22.79,22.79,0,0,1,22.8-22.8,22.15,22.15,0,0,1,15.3,6l423.4,385.1a22.77,22.77,0,0,1-13.6,39.5Z" transform="translate(-725.1 -182.1)"/></g></svg>