<svg id="图层_1" data-name="图层 1" xmlns="http://www.w3.org/2000/svg" viewBox="0 0 273.1 307.2"><defs><style>.cls-1{fill:#e6e6e6;}</style></defs><path class="cls-1" d="M1280,549.3a102.34,102.34,0,0,1,102.4,102.4v34.1h17.1a17.19,17.19,0,0,1,12.1,5,17,17,0,0,1,5,12.1V839.4a17.19,17.19,0,0,1-5,12.1,17,17,0,0,1-12.1,5H1160.6a17.19,17.19,0,0,1-12.1-5,17,17,0,0,1-5-12.1V702.9a17.19,17.19,0,0,1,5-12.1,17,17,0,0,1,12.1-5h17.1V651.7A102.26,102.26,0,0,1,1280,549.3Zm3,52.5c-36.3,0-45.9,28.8-47.9,46l-.2,4v34.1h95.3V651.8c0-17.3-12.2-50-41.2-50Z" transform="translate(-1143.5 -549.3)"/></svg>