<svg id="图层_1" data-name="图层 1" xmlns="http://www.w3.org/2000/svg" viewBox="0 0 647.2 722.81"><defs><style>.cls-1{fill:#e6e6e6;}</style></defs><path class="cls-1" d="M1161.6,1062.7l-222-74.1a58.18,58.18,0,0,1-21.3-50V400.1c0-22.1,9.4-35.2,21.3-29.5l222,73.7c21.4,13.2,22.5,30.9,21.3,50v538.6c0,22.1-9.8,35.2-21.3,29.8Z" transform="translate(-913 -341.1)"/><path class="cls-1" d="M1408.6,999.8H972.8A59.92,59.92,0,0,1,913,939.5V401.4a59.92,59.92,0,0,1,59.8-60.3h435.8a60.18,60.18,0,0,1,59.8,60.2v54.4c-.2,11.2-11.7,23.2-28.1,23.1s-28-10.6-27.8-21.7V417.3a19.19,19.19,0,0,0-18.8-19.2H972.8a18.68,18.68,0,0,0-13.5,5.7,19,19,0,0,0-5.4,13.6V924a18.63,18.63,0,0,0,5.4,13.6,18.91,18.91,0,0,0,13.5,5.7h420.8a19.19,19.19,0,0,0,18.8-19.2v-32c0-5.4,4.6-26.1,27.5-26.3,23.2-.2,28.4,20.8,28.4,26.3v48a59.92,59.92,0,0,1-59.7,59.7Z" transform="translate(-913 -341.1)"/><path class="cls-1" d="M1395.9,836a32.75,32.75,0,0,1-23.4-55.8l113-107.1-113-111.7a33.31,33.31,0,1,1,48.1-46.1l129.9,129.9a34.12,34.12,0,0,1,9.7,23.4,33.35,33.35,0,0,1-9.7,22.7L1420.6,821a32.72,32.72,0,0,1-24.7,15Z" transform="translate(-913 -341.1)"/><path class="cls-1" d="M1453.5,707h-194a33,33,0,0,1-33-33h0a33,33,0,0,1,33-33h194a33,33,0,0,1,33,33h0A33,33,0,0,1,1453.5,707Z" transform="translate(-913 -341.1)"/></svg>