<svg id="图层_1" data-name="图层 1" xmlns="http://www.w3.org/2000/svg" viewBox="0 0 786.4 786.5"><defs><style>.cls-1{fill:#c3c7cb;}.cls-2{fill:#fff;}</style></defs><g id="图层_1-2" data-name="图层 1"><polygon class="cls-1" points="786.4 0 786.4 786.5 0 786.5 786.4 0"/><path class="cls-2" d="M1651.3,868.2a17.46,17.46,0,0,0,0-13.1,15.84,15.84,0,0,0-3.6-5.6l-49.4-51.6a16,16,0,0,0-23.3,0,17.78,17.78,0,0,0,0,24.3l21.3,22.2H1455V696.7l21.3,22.2a15.77,15.77,0,0,0,11.6,5,16.16,16.16,0,0,0,11.6-5,17.78,17.78,0,0,0,0-24.3L1450.1,643a14.48,14.48,0,0,0-5.4-3.7,16.2,16.2,0,0,0-12.6,0,17.93,17.93,0,0,0-5.4,3.7l-49.4,51.6a17.78,17.78,0,0,0,0,24.3,16,16,0,0,0,23.3,0l21.3-22.2V844.4H1280.6l21.3-22.2a17.78,17.78,0,0,0,0-24.3,16,16,0,0,0-23.3,0l-49.4,51.6a19.2,19.2,0,0,0-3.6,5.6,17.46,17.46,0,0,0,0,13.1,15.84,15.84,0,0,0,3.6,5.6l49.4,51.6a15.77,15.77,0,0,0,11.6,5,16.16,16.16,0,0,0,11.6-5,17.78,17.78,0,0,0,0-24.3l-21.3-22.2h141.3v147.7l-21.3-22.2a16,16,0,0,0-23.3,0,17.78,17.78,0,0,0,0,24.3l49.4,51.6a14.48,14.48,0,0,0,5.4,3.7,15.14,15.14,0,0,0,6.3,1.3,17.31,17.31,0,0,0,6.3-1.3,17.93,17.93,0,0,0,5.4-3.7l49.4-51.6a17.78,17.78,0,0,0,0-24.3,16,16,0,0,0-23.3,0l-21.3,22.2V878.9h141.3l-21.3,22.2a17.78,17.78,0,0,0,0,24.3,15.77,15.77,0,0,0,11.6,5,16.16,16.16,0,0,0,11.6-5l49.4-51.6a12.16,12.16,0,0,0,3.9-5.6Z" transform="translate(-895.9 -336.5)"/></g></svg>