<svg id="图层_1" data-name="图层 1" xmlns="http://www.w3.org/2000/svg" xmlns:xlink="http://www.w3.org/1999/xlink" viewBox="0 0 796.18 641.2"><defs><style>.cls-1{fill:none;}.cls-2{fill:#575d6d;}.cls-3{clip-path:url(#clip-path);}</style><clipPath id="clip-path" transform="translate(-560.76 -219.8)"><rect class="cls-1" x="561" y="219" width="796.8" height="643"/></clipPath></defs><path class="cls-2" d="M943.2,861c-177.1,0-320.6-143.5-320.6-320.6S766.1,219.8,943.2,219.8s320.6,143.5,320.6,320.6S1120.2,861,943.2,861Zm0-71.2c137.7,0,249.3-111.6,249.3-249.3S1080.9,291.2,943.2,291.2,693.9,402.8,693.9,540.5,805.5,789.8,943.2,789.8Z" transform="translate(-560.76 -219.8)"/><g class="cls-3"><path class="cls-2" d="M800.7,469.2a35.6,35.6,0,1,0,35.6-35.6,35.55,35.55,0,0,0-35.6,35.6Z" transform="translate(-560.76 -219.8)"/></g><g class="cls-3"><path class="cls-2" d="M634,673.4c3.1,2.7,8.3,5.5,15.5,8.1,17.5,6.4,43.3,10.3,75.3,11.2,69,1.8,159.7-10.7,253.7-35.9s178.8-59.7,237.6-95.8c27.3-16.7,47.7-33.1,59.6-47.3,5-5.9,8.1-11,9.4-14.8.6-1.9.7-2.4.7-2.4-.3-1-3.6-4.1-12.9-8.1-13.9-5.9-34.7-10.2-60.9-12l5.1-71.1c74.8,5.3,125.2,26.9,137.5,72.7,23.9,89.3-138,188.6-357.7,247.5S587.3,779.4,563.3,690c-12.6-47.1,22.4-92.2,88.1-135.3l39.1,59.6c-23.4,15.3-40.6,30.1-50.4,42.8-4,5.1-6.4,9.5-7.4,12.7-.4,1.4-.5,1.8-.5,1.8a11.5,11.5,0,0,0,1.8,1.8Z" transform="translate(-560.76 -219.8)"/></g></svg>