<?xml version="1.0" encoding="utf-8"?>
<!-- Generator: Adobe Illustrator 25.0.1, SVG Export Plug-In . SVG Version: 6.00 Build 0)  -->
<svg version="1.1" id="图层_1" xmlns="http://www.w3.org/2000/svg" xmlns:xlink="http://www.w3.org/1999/xlink" x="0px" y="0px"
	 viewBox="0 0 24 24" style="enable-background:new 0 0 24 24;" xml:space="preserve">
<style type="text/css">
	.st0{display:none;fill:#F5F6F7;}
	.st1{fill:#EDEEEF;}
	.st2{display:none;}
	.st3{display:inline;fill:#EFEFEF;}
	.st4{fill:#C3C6CA;}
</style>
<rect x="0" y="0" class="st0" width="24" height="24"/>
<g>
	<rect x="0" y="0" class="st1" width="4" height="4"/>
	<rect x="4" y="4" class="st1" width="4" height="4"/>
	<rect x="0" y="8" class="st1" width="4" height="4"/>
	<rect x="4" y="12" class="st1" width="4" height="4"/>
	<rect x="0" y="16" class="st1" width="4" height="4"/>
	<rect x="4" y="20" class="st1" width="4" height="4"/>
	<rect x="8" y="0" class="st1" width="4" height="4"/>
	<rect x="12" y="4" class="st1" width="4" height="4"/>
	<rect x="8" y="8" class="st1" width="4" height="4"/>
	<rect x="12" y="12" class="st1" width="4" height="4"/>
	<rect x="8" y="16" class="st1" width="4" height="4"/>
	<rect x="12" y="20" class="st1" width="4" height="4"/>
	<rect x="16" y="0" class="st1" width="4" height="4"/>
	<rect x="20" y="4" class="st1" width="4" height="4"/>
	<rect x="16" y="8" class="st1" width="4" height="4"/>
	<rect x="20" y="12" class="st1" width="4" height="4"/>
	<rect x="16" y="16" class="st1" width="4" height="4"/>
	<rect x="20" y="20" class="st1" width="4" height="4"/>
</g>
<g class="st2">
	<rect x="0" y="0" class="st3" width="6" height="6"/>
	<rect x="6" y="6" class="st3" width="6" height="6"/>
	<rect x="0" y="12" class="st3" width="6" height="6"/>
	<rect x="12" y="0" class="st3" width="6" height="6"/>
	<rect x="12" y="12" class="st3" width="6" height="6"/>
	<rect x="6" y="18" class="st3" width="6" height="6"/>
	<rect x="18" y="6" class="st3" width="6" height="6"/>
	<rect x="18" y="18" class="st3" width="6" height="6"/>
</g>
<g>
	<path class="st4" d="M7.5,13.6l-3,7.8c-0.1,0.3-0.1,0.4-0.1,0.6c0,0.1,0.1,0.3,0.1,0.4c0.1,0,1.6,0.2,2.3,0.4
		c0.4,0.1,1.4,1.1,0.4,1.1L0.3,24c-0.3,0-0.6-1.1,0.1-1.2c0.9-0.2,1.3-1.1,1.4-1.5L9.2,2.2c1.3-3.2,4.3-2.6,5.5,0l6.9,18.9
		c0.1,0.4,0.3,0.7,0.6,0.9c0.1,0.3,0.6,0.6,1.1,0.7c0.6,0,0.9,1.2,0.3,1.2c-0.9,0-9.8,0-9.8,0c-0.3,0-0.6-1-0.1-1.1
		c0.4-0.1,1.6-0.1,1.7-0.2c0.1-0.1,0.1-0.3,0.1-0.4s-0.1-0.4-0.1-0.7l-2.8-7.8L7.5,13.6z M12.1,12.1L10.2,7l-2,5.2H12.1z"/>
</g>
</svg>
