<?xml version="1.0" encoding="utf-8"?>
<!-- Generator: Adobe Illustrator 25.0.1, SVG Export Plug-In . SVG Version: 6.00 Build 0)  -->
<svg version="1.1" id="图层_1" xmlns="http://www.w3.org/2000/svg" xmlns:xlink="http://www.w3.org/1999/xlink" x="0px" y="0px"
	 viewBox="0 0 24 24" style="enable-background:new 0 0 24 24;" xml:space="preserve">
<style type="text/css">
	.st0{fill:#C3C6CA;}
	.st1{fill:none;stroke:#C3C6CA;stroke-width:2;stroke-miterlimit:10;}
</style>
<g>
	<g>
		<path class="st0" d="M12.7,6.2c1.1-0.2,1.6-0.3,2.7-0.4c0.3,0,0.2,0.3-0.3,0.4c-0.5,0.1-0.7,0.6-0.7,0.7
			c-0.3,1.9-1.5,10.4-1.7,10.9c-0.2,0.5-0.6,0.6-1.2,0.5c-0.8-0.1-1.1-0.1-1.2-0.2c-0.1-0.1-1.1-8.2-1.1-8.2s-1.1,7.1-1.3,7.5
			s-0.6,0.5-1.2,0.5c-0.4,0-0.8-0.1-0.9-0.1c-0.1-0.1-1.9-8.8-2-9.1c0,0,0-0.5-0.8-0.5c-0.4,0-0.5-0.4-0.1-0.4
			c1.5-0.3,2.2-0.4,3.5-0.6c0.3,0,0.2,0.2,0,0.3C5.7,7.6,5.8,8.1,5.8,8.1c0.1,0.7,1.3,7.4,1.4,7.4s1.2-7.5,1.2-7.9
			c0.1-0.4,0.3-0.7,1.1-0.9c0.3-0.1,1-0.2,1.1,0.5s1.2,8.5,1.3,8.5c0.1,0,1.1-7.9,1.1-8.8c0,0,0.1-0.5-0.5-0.4
			C12.7,6.5,12.6,6.2,12.7,6.2z"/>
	</g>
</g>
<path class="st1" d="M18.5,3.9V2.5c0-1.3-0.8-1.5-1.9-1.3L1.8,3.7C1.4,3.8,1,4.1,1,4.5v16c0,0.4,0.3,0.8,0.8,0.8l14.7,1.5
	c1.4,0,2-0.9,2-2.3v-1.3V3.9z"/>
<path class="st0" d="M22.9,21.3l-4.1-0.1V3.7H23c0.6-0.1,1,0.4,1,1v15.5C24,20.8,23.5,21.4,22.9,21.3z"/>
</svg>
