<?xml version="1.0" encoding="utf-8"?>
<!-- Generator: Adobe Illustrator 25.0.1, SVG Export Plug-In . SVG Version: 6.00 Build 0)  -->
<svg version="1.1" id="图层_1" xmlns="http://www.w3.org/2000/svg" xmlns:xlink="http://www.w3.org/1999/xlink" x="0px" y="0px"
	 viewBox="0 0 295 295" style="enable-background:new 0 0 295 295;" xml:space="preserve">
<style type="text/css">
	.st0{fill:#C3C7CB;}
</style>
<path class="st0" d="M147.5,101.6L55.7,9.8C42.6-3.3,22.9-3.3,9.8,9.8s-13.1,32.8,0,45.9l91.8,91.8L9.8,239.3
	c-13.1,13.1-13.1,32.8,0,45.9c13.1,13.1,32.8,13.1,45.9,0l91.8-91.7l91.7,91.7c13.1,13.1,32.8,13.1,45.9,0s13.1-32.8,0-45.9
	l-91.8-91.8l91.8-91.8c13.1-13.1,13.1-32.8,0-45.9s-32.8-13.1-45.9,0L147.5,101.6z"/>
</svg>
