<?xml version="1.0" encoding="utf-8"?>
<!-- Generator: Adobe Illustrator 25.0.1, SVG Export Plug-In . SVG Version: 6.00 Build 0)  -->
<svg version="1.1" id="图层_1" xmlns="http://www.w3.org/2000/svg" xmlns:xlink="http://www.w3.org/1999/xlink" x="0px" y="0px"
	 viewBox="0 0 24 24" style="enable-background:new 0 0 24 24;" xml:space="preserve">
<style type="text/css">
	.st0{fill:#C3C6CA;}
</style>
<g>
	<path class="st0" d="M18.2,3c0-1.5-0.7-2.2-2.4-2.2c-0.7,0-0.6-0.8-0.6-0.8h6.9c0,0,0,0.9-0.5,0.9c-1.3,0-2,1-2,2.4v8.9
		c0,1-0.1,2.3-0.1,3c-0.1,1.4-1.6,3.8-3.8,3.8c-1.1,0-2.7,0-5.3,0c-2.7,0-4.8-1.1-5.9-3.4C4.2,14.9,4,14.1,4,13.2V2.8
		c0-1.2-0.7-2-2.2-2C1,0.8,1.1,0.3,1.1,0.3V0H11c0,0,0.1,0.9-0.8,0.9c-1.3,0-2,0.8-2,2v9.7c0,0.6,0,1.3,0.1,1.9
		c0.1,0.6,0.3,1.2,0.6,1.8c0.3,0.6,0.9,0.9,1.6,1.3c0.7,0.3,4.2,0.4,5,0.2c0.5-0.1,1.6-0.7,2-1.3c0.3-0.5,0.5-1.1,0.6-1.7
		c0.1-0.7,0.1-1.5,0.1-2.1V3.2V3z"/>
</g>
<rect y="22" class="st0" width="24" height="2"/>
</svg>
