<?xml version="1.0" encoding="utf-8"?>
<!-- Generator: Adobe Illustrator 25.0.1, SVG Export Plug-In . SVG Version: 6.00 Build 0)  -->
<svg version="1.1" id="图层_1" xmlns="http://www.w3.org/2000/svg" xmlns:xlink="http://www.w3.org/1999/xlink" x="0px" y="0px"
	 viewBox="0 0 24 24" style="enable-background:new 0 0 24 24;" xml:space="preserve">
<style type="text/css">
	.st0{fill:#C3C6CA;}
	.st1{font-family:'Arial-Black';}
	.st2{font-size:12px;}
</style>
<g>
	<path class="st0" d="M5.2,13.7l-2.1,7.8c-0.1,0.3-0.1,0.4-0.1,0.6c0,0.1,0.1,0.3,0.1,0.4c0.1,0,1.1,0.2,1.6,0.4C5,23,5.7,24,5,24
		l-4.9,0.1c-0.2,0-0.4-1.1,0.1-1.2c0.6-0.2,0.9-1.1,1-1.5L6.4,2.2c0.9-3.2,3-2.6,3.9,0l4.9,19c0.1,0.4,0.2,0.7,0.4,0.9
		c0.1,0.3,0.4,0.6,0.8,0.7c0.4,0,0.6,1.2,0.2,1.2c-0.6,0-6.9,0-6.9,0c-0.2,0-0.4-1-0.1-1.1s1.1-0.1,1.2-0.2c0.1-0.1,0.1-0.3,0.1-0.4
		s-0.1-0.4-0.1-0.7l-2-7.8L5.2,13.7z M8.4,12.2L7.1,7l-1.4,5.2H8.4z"/>
</g>
<text transform="matrix(1 0 0 1 16.4651 23.9998)" class="st0 st1 st2">2</text>
</svg>
