<?xml version="1.0" encoding="utf-8"?>
<!-- Generator: Adobe Illustrator 25.0.1, SVG Export Plug-In . SVG Version: 6.00 Build 0)  -->
<svg version="1.1" id="图层_1" xmlns="http://www.w3.org/2000/svg" xmlns:xlink="http://www.w3.org/1999/xlink" x="0px" y="0px"
	 viewBox="0 0 24 24" style="enable-background:new 0 0 24 24;" xml:space="preserve">
<style type="text/css">
	.st0{fill:#C3C6CA;}
</style>
<path class="st0" d="M24,17.1v4.4c0,1.7-0.5,2.5-2.1,2.5H2.1C0.7,24,0,23.1,0,21.5v-5.1c0-0.3,2.2,0.4,2.2,0.7v3.2h10.4v-3.8
	l1.9-2.3l0.1,6.1h6.8v-4.9V8.1V3.7h-6.8V9l-2.1-2.3v-3H2.2l0,13.9c0,0.3-2.2,0.9-2.2,0.6V2.5C0,0.8,0.9,0,2.1,0h19.8
	C23.3,0,24,0.8,24,2.5V17.1"/>
<path class="st0" d="M12.8,8.1"/>
<path class="st0" d="M7.3,17.3v-3.5H3.2V9h4.1V5.7c2.3,2.7,4.5,5.1,4.5,5.6v0.4C11.9,12.1,10.1,14.3,7.3,17.3z"/>
</svg>
