<?xml version="1.0" encoding="utf-8"?>
<!-- Generator: Adobe Illustrator 25.0.1, SVG Export Plug-In . SVG Version: 6.00 Build 0)  -->
<svg version="1.1" id="图层_1" xmlns="http://www.w3.org/2000/svg" xmlns:xlink="http://www.w3.org/1999/xlink" x="0px" y="0px"
	 viewBox="0 0 24 24" style="enable-background:new 0 0 24 24;" xml:space="preserve">
<style type="text/css">
	.st0{fill:#C3C6CA;}
</style>
<path class="st0" d="M6.9,24H2.5C0.8,24,0,23.5,0,21.9V2.1C0,0.7,0.9,0,2.5,0h5.1c0.3,0-0.4,2.2-0.7,3.2H2.7v9.4h4.8l2.3,1.9
	l-7.1,0.1v5.8h5.9h7.3h5.4v-5.8H15l2.3-2.1h4V3.2H6.4C6.1,2.2,5.5,0,5.8,0h15.7C23.2,0,24,0.9,24,2.1v19.8c0,1.4-0.8,2.1-2.5,2.1
	H6.9"/>
<path class="st0" d="M15.9,12.8"/>
<path class="st0" d="M6.4,8.7h3.5V4.6h4.8v4.1H18c-2.7,2.3-5.1,4.5-5.6,4.5H12C11.6,13.3,9.4,11.5,6.4,8.7z"/>
</svg>
