<svg id="图层_1" data-name="图层 1" xmlns="http://www.w3.org/2000/svg" viewBox="0 0 830.27 819.48"><defs><style>.cls-1{fill:#e6e6e6;}.cls-2{fill:#e6e6e5;}</style></defs><path class="cls-1" d="M1279.3,369a57.21,57.21,0,0,1,24.1,5.3l323.6,154a15,15,0,0,1,3.4,1.6,15.57,15.57,0,0,1-2.8,1.6l-324.2,154a58.94,58.94,0,0,1-48.3,0l-323.6-154a15,15,0,0,1-3.4-1.6,15.57,15.57,0,0,1,2.8-1.6l324.2-154a59.59,59.59,0,0,1,24.2-5.3m0-58.5a115.21,115.21,0,0,0-49.3,11L906.4,475.4a58.56,58.56,0,0,0,0,109.2L1230,738.4a116.46,116.46,0,0,0,98.6,0l323.6-153.9a58.56,58.56,0,0,0,0-109.2L1328.6,321.4a116.6,116.6,0,0,0-49.3-10.9Z" transform="translate(-868.82 -310.5)"/><path class="cls-1" d="M1215.9,914.7l-330-164A29.29,29.29,0,1,1,912,698.3l330,163.8C1265.5,873.7,1235.6,924.4,1215.9,914.7Z" transform="translate(-868.82 -310.5)"/><path class="cls-1" d="M1279.3,1129.7a144.35,144.35,0,0,1-63.3-14.6l-330-164a29.29,29.29,0,1,1,26.1-52.4l330,163.8a84.3,84.3,0,0,0,53.1,7.2,30.79,30.79,0,0,1,33.3,16.6h0a28.23,28.23,0,0,1-19.3,40.2,137.53,137.53,0,0,1-29.9,3.2Z" transform="translate(-868.82 -310.5)"/><path class="cls-2" d="M1683.7,928.3l-19.2,5.1a19.81,19.81,0,0,0-14.3,15.2,161.74,161.74,0,0,1-8.6,28,19.44,19.44,0,0,0,4.3,21.2l15.3,15.4a19.28,19.28,0,0,1-.1,27.3l-54.8,54.4a19.28,19.28,0,0,1-27.3-.1l-18-18.2a19.83,19.83,0,0,0-20.3-4.8c-3,1.1-6.1,2-9.2,2.9s-6.3,1.5-9.5,2.1a19.79,19.79,0,0,0-15.4,14.2l-6.7,24.7a19.32,19.32,0,0,1-23.7,13.6l-74.5-20.3a19.4,19.4,0,0,1-13.6-23.7l5.7-21a19.64,19.64,0,0,0-6.9-20.7,159.25,159.25,0,0,1-21.1-20,19.93,19.93,0,0,0-19.9-6.2h-.2a40.15,40.15,0,0,1-49.1-28.6l-15.9-60.3a20.49,20.49,0,0,1,14.7-25l19.2-5.1a19.81,19.81,0,0,0,14.3-15.2,161.74,161.74,0,0,1,8.6-28,19.62,19.62,0,0,0-4.3-21.2l-15.3-15.4a19.38,19.38,0,0,1,.2-27.3l54.8-54.4a19.28,19.28,0,0,1,27.3.1l18,18.2a19.62,19.62,0,0,0,20.3,4.8c3.1-1.1,6.1-2,9.3-2.9s6.2-1.5,9.4-2.1a19.79,19.79,0,0,0,15.4-14.2l6.7-24.7a19.32,19.32,0,0,1,23.7-13.6l74.5,20.3a19.26,19.26,0,0,1,13.5,23.7l-5.7,21a19.64,19.64,0,0,0,6.9,20.7,159.59,159.59,0,0,1,21.1,20,19.68,19.68,0,0,0,19.9,6.1l19.2-5.1a20.49,20.49,0,0,1,25.1,14.6l20.9,79.4a20.5,20.5,0,0,1-14.7,25.1Zm-215.1-91.5a81.85,81.85,0,1,0,100,58.3,81.87,81.87,0,0,0-100-58.3Z" transform="translate(-868.82 -310.5)"/></svg>