<svg id="图层_1" data-name="图层 1" xmlns="http://www.w3.org/2000/svg" viewBox="0 0 818.9 686.51"><defs><style>.cls-1{fill:#c3c7cb;}</style></defs><path class="cls-1" d="M1484.7,633.1c0-113.1-91.7-204.8-204.8-204.8-106,0-193.3,80.6-203.7,183.9a25.18,25.18,0,0,1-21.9,22.3A153.64,153.64,0,0,0,921.5,786.7c0,77.4,57.3,141.4,131.7,152.1a25.29,25.29,0,0,1,21.9,24.9v.9a25.13,25.13,0,0,1-28.6,24.9A204.77,204.77,0,0,1,1014,591.2a25.52,25.52,0,0,0,17.1-18.2,256.11,256.11,0,0,1,497.7.1,25.38,25.38,0,0,0,17,18.2,204.92,204.92,0,0,1-32.4,398.2,25.11,25.11,0,0,1-28.7-24.9v-.8a25.21,25.21,0,0,1,21.9-24.9,153.55,153.55,0,0,0,131.7-152.1c0-84.9-68.8-153.7-153.6-153.7ZM1075.1,991.5V940.3" transform="translate(-870.1 -377.5)"/><path class="cls-1" d="M1301.2,976.5V710.1a26,26,0,0,0-25.6-25.8c-14.1,0-25.6,11.9-25.6,25.8V976.5l-72.5-67.9a25.62,25.62,0,0,0-36,.2,25.27,25.27,0,0,0-7.6,18,25.58,25.58,0,0,0,7.5,18.1l116.3,111.8a25.33,25.33,0,0,0,18,7.3,23.77,23.77,0,0,0,17.9-7.3l122.6-111.5a25.75,25.75,0,0,0-.2-36.1,25.27,25.27,0,0,0-18-7.6,25.58,25.58,0,0,0-18.1,7.5Z" transform="translate(-870.1 -377.5)"/></svg>