<?xml version="1.0" encoding="utf-8"?>
<!-- Generator: Adobe Illustrator 25.0.1, SVG Export Plug-In . SVG Version: 6.00 Build 0)  -->
<svg version="1.1" id="图层_1" xmlns="http://www.w3.org/2000/svg" xmlns:xlink="http://www.w3.org/1999/xlink" x="0px" y="0px"
	 viewBox="0 0 24 24" style="enable-background:new 0 0 24 24;" xml:space="preserve">
<style type="text/css">
	.st0{fill:#C3C6CA;}
</style>
<path class="st0" d="M23.5,3c-6-0.1-9.9-2-11.1-2.8C12.3,0,12.1,0,12,0c-0.1,0-0.3,0-0.4,0.1C10.5,1,6.6,2.8,0.6,3
	C0.2,3,0,3.2,0,3.4v9.9C0,17.9,7.6,24,12,24c4.3,0,12-6.1,12-10.6V3.4C24,3.2,23.8,3,23.5,3z M21,13.2c0,3.4-6.2,8.7-9,8.7
	c-1.4,0-3.8-1.1-5.7-2.7c-2-1.7-3.3-4.5-3.3-5.9V4.7c4.2-0.4,7.3-1.3,9-2.5c1.7,1.2,4.8,2.1,9,2.5V13.2z"/>
<path class="st0" d="M6.6,11L6.6,11c-0.5,0.5-0.5,1.4,0,1.9l3.5,3.6c0.3,0.3,0.7,0.5,1.1,0.5c0.4,0,0.8-0.2,1.1-0.5l6.4-6.7
	c0.5-0.5,0.5-1.4,0-1.9l0,0c-0.5-0.5-1.3-0.5-1.8,0l-5.5,5.7c-0.1,0.2-0.4,0.2-0.5,0L8.4,11C7.9,10.4,7.1,10.4,6.6,11z"/>
</svg>
