<?xml version="1.0" encoding="utf-8"?>
<!-- Generator: Adobe Illustrator 25.0.1, SVG Export Plug-In . SVG Version: 6.00 Build 0)  -->
<svg version="1.1" id="图层_1" xmlns="http://www.w3.org/2000/svg" xmlns:xlink="http://www.w3.org/1999/xlink" x="0px" y="0px"
	 viewBox="0 0 24 24" style="enable-background:new 0 0 24 24;" xml:space="preserve">
<style type="text/css">
	.st0{fill:#C3C6CA;}
</style>
<path class="st0" d="M9.8,6.2c0-0.8,0.6-1.4,1.3-1.4h5.8c0.7,0,1.3,0.6,1.2,1.4c0,0.8-0.6,1.4-1.2,1.4H11C10.3,7.6,9.8,6.9,9.8,6.2z
	"/>
<path class="st0" d="M9.8,10.7c0-0.8,0.6-1.4,1.3-1.4h5.8c0.7,0,1.3,0.6,1.2,1.4c0,0.8-0.6,1.4-1.2,1.4H11
	C10.3,12.1,9.8,11.5,9.8,10.7z"/>
<path class="st0" d="M23.2,15.3V3c0-1.6-1.3-3-3-3H7.7C6.5,0,5.4,0.8,5,2H3.8c-1.6,0-3,1.3-3,3v10.3C0.3,15.6,0,16.2,0,16.9v5.2
	C0,23.1,0.9,24,1.9,24h20.1c1.1,0,1.9-0.9,1.9-1.9v-5.2C24,16.2,23.7,15.6,23.2,15.3z M6.6,3c0-0.6,0.5-1.2,1.2-1.2h12.5
	c0.6,0,1.2,0.5,1.2,1.2v12h-6c-0.5,0-0.8,0.4-0.9,0.8c0,0.5-1,1.1-2.4,1.1s-2.4-0.7-2.4-1.1c0-0.5-0.4-0.8-0.9-0.8H6.6V3z M2.6,5
	c0-0.6,0.5-1.2,1.2-1.2h1v11.1H2.6V5z M22.2,22.1c0,0.1-0.1,0.1-0.1,0.1H1.9c-0.1,0-0.1-0.1-0.1-0.1v-5.2c0,0,0,0,0,0
	c0-0.1,0.1-0.1,0.1-0.1H8c0.6,1.1,2.1,1.9,4,1.9c1.8,0,3.4-0.8,4-1.9h6.1c0,0,0,0,0,0c0.1,0,0.1,0.1,0.1,0.1V22.1z"/>
</svg>
