<svg id="图层_1" data-name="图层 1" xmlns="http://www.w3.org/2000/svg" viewBox="0 0 765.04 769.05"><defs><style>.cls-1{fill:#989898;}</style></defs><path class="cls-1" d="M941.5,608.7a25.61,25.61,0,0,0,31.7-14.5,334.79,334.79,0,0,1,612.2-15.5,25.57,25.57,0,0,0,32.4,12.9h0a25.69,25.69,0,0,0,13.9-34.8,385.93,385.93,0,0,0-705.9,17.8,25.57,25.57,0,0,0,15.7,34.1Z" transform="translate(-896.98 -335.57)"/><path class="cls-1" d="M903.5,655a11.4,11.4,0,0,0,17.9,8.7l85.1-59.3a9,9,0,0,0-3.4-16.2,189.71,189.71,0,0,1-90.8-45.8,9.18,9.18,0,0,0-15.3,7.4Zm701.1,172.3a11.44,11.44,0,0,0-14.3,6.9,334.85,334.85,0,0,1-622.1,15.7,11.4,11.4,0,0,0-14.6-6.2L927.1,854a11.44,11.44,0,0,0-6.4,15.1,385.93,385.93,0,0,0,718-18.2,11.44,11.44,0,0,0-7.1-14.8Z" transform="translate(-896.98 -335.57)"/><path class="cls-1" d="M1655.4,784.3a10.89,10.89,0,0,0-17.1-8.3l-82.5,57.5a10.66,10.66,0,0,0,3.9,19.2,189.64,189.64,0,0,1,87.1,45.1,9.05,9.05,0,0,0,15.2-7.2Z" transform="translate(-896.98 -335.57)"/><path class="cls-1" d="M1224.5,818.4l-103.1-76a25.57,25.57,0,0,1-5.4-35.8h0a25.57,25.57,0,0,1,35.8-5.4l103,76a25.57,25.57,0,0,1,5.4,35.8h0A25.45,25.45,0,0,1,1224.5,818.4Z" transform="translate(-896.98 -335.57)"/><path class="cls-1" d="M1449.1,631.9,1261.2,814.1a25.59,25.59,0,0,1-36.2-.6h0a25.59,25.59,0,0,1,.6-36.2l187.9-182.2a25.59,25.59,0,0,1,36.2.6h0A25.59,25.59,0,0,1,1449.1,631.9Z" transform="translate(-896.98 -335.57)"/></svg>