<svg id="图层_1" data-name="图层 1" xmlns="http://www.w3.org/2000/svg" xmlns:xlink="http://www.w3.org/1999/xlink" viewBox="0 0 762.8 819.21"><defs><style>.cls-1{fill:none;}.cls-2{clip-path:url(#clip-path);}.cls-3{fill:#575d6d;}</style><clipPath id="clip-path" transform="translate(-577.9 -130.5)"><rect class="cls-1" x="578" y="130" width="762.9" height="820.7"/></clipPath></defs><g class="cls-2"><path class="cls-3" d="M1310,949.7a30.71,30.71,0,0,1-30.7-30.7,288.37,288.37,0,0,0-105.5-220.7,30.71,30.71,0,0,1,39.9-46.6,348.78,348.78,0,0,1,127,267.3,30.58,30.58,0,0,1-30.7,30.7Zm-701.4,0A30.71,30.71,0,0,1,577.9,919c3.2-199.9,163.2-361.9,363-367.6a30.1,30.1,0,0,1,32.2,29.1,30.88,30.88,0,0,1-7.9,22.2,30.55,30.55,0,0,1-21.3,10.1C776.6,617.2,642.5,752.7,639.8,920a30.61,30.61,0,0,1-31.2,29.7Z" transform="translate(-577.9 -130.5)"/></g><path class="cls-3" d="M958.8,192a179.69,179.69,0,0,1,179.7,179.7c0,99.2-80.5,179.7-179.7,179.7S779.1,470.9,779.1,371.7A179.59,179.59,0,0,1,958.8,192m0-61.5c-133.2,0-241.2,108-241.2,241.2s108,241.1,241.2,241.1S1200,504.8,1200,371.7,1092,130.5,958.8,130.5Z" transform="translate(-577.9 -130.5)"/></svg>