<?xml version="1.0" encoding="utf-8"?>
<!-- Generator: Adobe Illustrator 25.0.1, SVG Export Plug-In . SVG Version: 6.00 Build 0)  -->
<svg version="1.1" id="图层_1" xmlns="http://www.w3.org/2000/svg" xmlns:xlink="http://www.w3.org/1999/xlink" x="0px" y="0px"
	 viewBox="0 0 24 24" style="enable-background:new 0 0 24 24;" xml:space="preserve">
<style type="text/css">
	.st0{fill:#C3C6CA;}
</style>
<path class="st0" d="M22.2,24h1.2c0.4,0,0.7-0.3,0.7-0.7V0.7C24,0.3,23.7,0,23.3,0h-1.2c-0.4,0-0.7,0.3-0.7,0.7v22.7
	C21.5,23.7,21.8,24,22.2,24z"/>
<path class="st0" d="M8.7,10.4H19c0.4,0,0.7-0.3,0.7-0.7V4c0-0.4-0.3-0.7-0.7-0.7H8.7C8.3,3.4,8,3.7,8,4v5.7
	C8,10.1,8.3,10.4,8.7,10.4z"/>
<path class="st0" d="M0.7,20.5H19c0.4,0,0.7-0.3,0.7-0.7v-5.7c0-0.4-0.3-0.7-0.7-0.7H0.7c-0.4,0-0.7,0.3-0.7,0.7v5.7
	C0,20.2,0.3,20.5,0.7,20.5z"/>
</svg>
