<?xml version="1.0" encoding="utf-8"?>
<!-- Generator: Adobe Illustrator 25.0.1, SVG Export Plug-In . SVG Version: 6.00 Build 0)  -->
<svg version="1.1" id="图层_1" xmlns="http://www.w3.org/2000/svg" xmlns:xlink="http://www.w3.org/1999/xlink" x="0px" y="0px"
	 viewBox="0 0 24 24" style="enable-background:new 0 0 24 24;" xml:space="preserve">
<style type="text/css">
	.st0{fill:#C3C6CA;}
</style>
<path class="st0" d="M11.4,24h1.2c0.4,0,0.7-0.3,0.7-0.7V0.7C13.2,0.3,13,0,12.6,0h-1.2c-0.4,0-0.7,0.3-0.7,0.7v22.7
	C10.8,23.7,11,24,11.4,24z"/>
<path class="st0" d="M5.7,10.3h12.7c0.5,0,0.9-0.3,0.9-0.7V4c0-0.4-0.4-0.7-0.9-0.7H5.7C5.2,3.3,4.8,3.6,4.8,4v5.7
	C4.8,10,5.2,10.3,5.7,10.3z"/>
<path class="st0" d="M0.9,20.5h22.3c0.5,0,0.9-0.3,0.9-0.7v-5.7c0-0.4-0.4-0.7-0.9-0.7H0.9c-0.5,0-0.9,0.3-0.9,0.7v5.7
	C0,20.2,0.4,20.5,0.9,20.5z"/>
</svg>
