<?xml version="1.0" encoding="utf-8"?>
<!-- Generator: Adobe Illustrator 25.0.1, SVG Export Plug-In . SVG Version: 6.00 Build 0)  -->
<svg version="1.1" id="图层_1" xmlns="http://www.w3.org/2000/svg" xmlns:xlink="http://www.w3.org/1999/xlink" x="0px" y="0px"
	 viewBox="0 0 24 24" style="enable-background:new 0 0 24 24;" xml:space="preserve">
<style type="text/css">
	.st0{fill:#C3C6CA;}
</style>
<g>
	<path class="st0" d="M10.2,14l-0.7,0L8.1,9.9l2.7-7.6c1.1-3.2,3.9-2.6,5,0L22,21.3c0.2,0.4,0.2,0.6,0.4,0.8
		c0.2,0.2,0.4,0.6,1.1,0.6c0.4,0,0.7,1.2,0.2,1.2c-0.7,0-8.9,0-8.9,0c-0.2,0-0.4-1-0.2-1s1.5,0,1.5-0.2c0.2,0,0.2-0.2,0.2-0.4
		c0-0.2,0-0.4-0.2-0.6L13.7,14L10.2,14z M13.4,12.4l-1.7-5.1l-1.8,5.1H13.4z"/>
</g>
<g>
	<path class="st0" d="M3.5,18.8l-1.4,3.9c0,0.1,0,0.2,0,0.3c0,0,0,0.1,0.1,0.2c0,0,0.7,0.1,1.1,0.2c0.1,0,0.6,0.5,0.1,0.5H0.1
		c-0.1,0-0.2-0.5,0.1-0.6c0.4-0.1,0.6-0.5,0.7-0.7l3.5-10c0.6-1.7,2-1.4,2.6,0l3.3,10c0.1,0.2,0.1,0.3,0.2,0.4
		c0.1,0.1,0.2,0.3,0.6,0.3c0.2,0,0.4,0.6,0.1,0.6c-0.4,0-4.7,0-4.7,0c-0.1,0-0.2-0.5-0.1-0.5s0.8,0,0.8-0.1c0.1,0,0.1-0.1,0.1-0.2
		c0-0.1,0-0.2-0.1-0.3l-1.2-4L3.5,18.8z M5.7,17.9l-0.9-2.7l-1,2.7H5.7z"/>
</g>
</svg>
