<?xml version="1.0" encoding="utf-8"?>
<!-- Generator: Adobe Illustrator 25.0.1, SVG Export Plug-In . SVG Version: 6.00 Build 0)  -->
<svg version="1.1" id="图层_1" xmlns="http://www.w3.org/2000/svg" xmlns:xlink="http://www.w3.org/1999/xlink" x="0px" y="0px"
	 viewBox="0 0 24 24" style="enable-background:new 0 0 24 24;" xml:space="preserve">
<style type="text/css">
	.st0{fill:#C3C6CA;}
</style>
<g>
	<path class="st0" d="M6.4,14l-2.5,7.5c0,0.2,0,0.4,0,0.6c0,0,0,0.2,0.2,0.4c0,0,1.2,0.2,1.9,0.4c0.2,0,1,1,0.2,1H0.2
		c-0.2,0-0.3-1,0.2-1.2c0.7-0.2,1-1,1.2-1.4L7.9,2.2c1-3.2,3.7-2.6,4.7,0l5.9,18.9c0.2,0.4,0.2,0.6,0.3,0.8c0.2,0.2,0.3,0.6,1,0.6
		c0.3,0,0.7,1.2,0.2,1.2c-0.7,0-8.4,0-8.4,0c-0.2,0-0.3-1-0.2-1s1.4,0,1.4-0.2c0.2,0,0.2-0.2,0.2-0.4s0-0.4-0.2-0.6L10.7,14L6.4,14z
		 M10.3,12.3L8.7,7.3L7,12.3H10.3z"/>
</g>
<g>
	<path class="st0" d="M16.3,13.8l-0.2-0.6c0.2,0.5-0.7-2.1-0.9-2.7l1.3-3.8c0.6-2,2.2-1.6,2.8,0l3.6,11.4c0.1,0.2,0.1,0.4,0.2,0.5
		s0.2,0.4,0.6,0.4c0.2,0,0.4,0.7,0.1,0.7c-0.4,0-5,0-5,0c-0.1,0-0.2-0.6-0.1-0.6s0.8,0,0.8-0.1c0.1,0,0.1-0.1,0.1-0.2s0-0.2-0.1-0.4
		l-1.4-4.5L16.3,13.8z M18,12.8L17,9.7l-1.1,3.1l0.6,0L18,12.8z"/>
</g>
</svg>
