<?xml version="1.0" encoding="utf-8"?>
<!-- Generator: Adobe Illustrator 25.0.1, SVG Export Plug-In . SVG Version: 6.00 Build 0)  -->
<svg version="1.1" id="图层_1" xmlns="http://www.w3.org/2000/svg" xmlns:xlink="http://www.w3.org/1999/xlink" x="0px" y="0px"
	 viewBox="0 0 24 24" style="enable-background:new 0 0 24 24;" xml:space="preserve">
<style type="text/css">
	.st0{fill:#C3C6CA;}
</style>
<g>
	<path class="st0" d="M7.5,13.7l-3,7.8c-0.1,0.3-0.1,0.4-0.1,0.6c0,0.1,0.1,0.3,0.2,0.4c0.1,0,1.5,0.2,2.3,0.4
		c0.2,0.1,1.3,1.1,0.3,1.1l-7,0.1c-0.3,0-0.5-1.1,0.2-1.2c0.9-0.2,1.3-1.1,1.4-1.5L9.2,2.2c1.3-3.2,4.3-2.6,5.5,0l7,19
		c0.2,0.4,0.3,0.7,0.5,0.9c0.2,0.3,0.5,0.6,1.2,0.7c0.5,0,0.8,1.2,0.3,1.2c-0.9,0-9.9,0-9.9,0c-0.3,0-0.5-1-0.2-1.1
		c0.3-0.1,1.6-0.1,1.7-0.2c0.2-0.1,0.2-0.3,0.2-0.4c0-0.1-0.1-0.4-0.2-0.7l-2.8-7.8L7.5,13.7z M12,12.2l-1.9-5.2l-2,5.2L12,12.2z"/>
</g>
</svg>
