<?xml version="1.0" encoding="utf-8"?>
<!-- Generator: Adobe Illustrator 25.0.1, SVG Export Plug-In . SVG Version: 6.00 Build 0)  -->
<svg version="1.1" id="图层_1" xmlns="http://www.w3.org/2000/svg" xmlns:xlink="http://www.w3.org/1999/xlink" x="0px" y="0px"
	 viewBox="0 0 24 24" style="enable-background:new 0 0 24 24;" xml:space="preserve">
<style type="text/css">
	.st0{fill:#C3C6CA;}
</style>
<path class="st0" d="M24,3.5h-8.1V1.1H24V3.5z"/>
<path class="st0" d="M24,8.6h-5.9V6.2H24V8.6z"/>
<path class="st0" d="M24,13.8h-2.8v-2.4H24V13.8z"/>
<g>
	<path class="st0" d="M6.9,13.7l-2.4,7.8c-0.1,0.3-0.1,0.4-0.1,0.6c0,0.1,0.1,0.3,0.2,0.4c0.1,0,1.5,0.2,2.3,0.4
		c0.2,0.1,1.3,1.1,0.3,1.1l-7,0.1c-0.3,0-0.5-1.1,0.2-1.2c0.9-0.2,1.3-1.1,1.4-1.5L8.2,2.2c1.3-3.2,4.3-2.6,5.5,0l8.1,19
		c0.2,0.4,0.3,0.7,0.5,0.9c0.2,0.3,0.5,0.6,1.2,0.7c0.5,0,0.6,1.3,0.2,1.3c-0.9,0-9.6,0-9.6,0c-0.3,0-0.5-1-0.2-1.1
		c0.3-0.1,1.6-0.1,1.7-0.2c0.2-0.1,0.2-0.3,0.2-0.4c0-0.1-0.1-0.4-0.2-0.7l-2.9-7.8H6.9z M12.2,12.2L9.4,5.6l-2.1,6.6H12.2z"/>
</g>
</svg>
