<?xml version="1.0" encoding="utf-8"?>
<!-- Generator: Adobe Illustrator 25.0.1, SVG Export Plug-In . SVG Version: 6.00 Build 0)  -->
<svg version="1.1" id="图层_1" xmlns="http://www.w3.org/2000/svg" xmlns:xlink="http://www.w3.org/1999/xlink" x="0px" y="0px"
	 viewBox="0 0 24 24" style="enable-background:new 0 0 24 24;" xml:space="preserve">
<style type="text/css">
	.st0{fill:#C3C6CA;}
</style>
<path class="st0" d="M24,24H0l0-4.8h24L24,24z"/>
<g>
	<path class="st0" d="M8,9.5l-2.6,5.8c-0.1,0.2-0.1,0.3-0.1,0.4c0,0.1,0.1,0.2,0.2,0.3c0.1,0,1.2,0.1,1.9,0.2c0.3,0,0.3,0.5,0,0.5
		h-6c-0.3,0-0.4-0.5,0-0.5c0.8,0,1.6-0.6,1.7-0.9L9.6,1.5c1.1-2.2,3.7-1.8,4.7,0L20.6,15c0.2,0.3,0.3,0.5,0.4,0.6
		c0.2,0.2,0.9,0.4,1.5,0.5c0.4,0,0.4,0.5,0,0.5c-0.8,0-8.7,0-8.7,0c-0.3,0-0.3-0.4,0-0.5c0.3-0.1,2.1-0.2,2.2-0.3
		c0.2-0.1,0.2-0.2,0.2-0.3c0-0.1-0.1-0.3-0.2-0.5l-2.6-5.5H8z M13.2,8.5l-2.5-5l-2.5,5H13.2z"/>
</g>
</svg>
