<?xml version="1.0" encoding="utf-8"?>
<!-- Generator: Adobe Illustrator 25.0.1, SVG Export Plug-In . SVG Version: 6.00 Build 0)  -->
<svg version="1.1" xmlns="http://www.w3.org/2000/svg" xmlns:xlink="http://www.w3.org/1999/xlink" x="0px" y="0px"
	 viewBox="0 0 24 24" style="enable-background:new 0 0 24 24;" xml:space="preserve">
<style type="text/css">
	.st0{fill:#C3C6CA;}
</style>
<g id="图层_1">
	<path class="st0" d="M0,11.8h24V14H0V11.8z"/>
	<path class="st0" d="M2.8,17.7C5,19.2,7.5,20,10.4,20c1.6,0,2.8-0.2,3.6-0.7s1.2-1.1,1.2-1.8c0-0.6-0.3-1.2-1-1.8
		c-0.6-0.6-2.3-1.3-5.1-2.3C4.8,12,2.7,9.7,2.7,6.8c0-2.2,1-3.8,2.9-5S10.1,0,13.3,0c2.5,0,4.5,0.2,6.3,0.7c0.3,0.1,0.5,0.4,0.5,0.7
		v3.4c0,0.3-0.3,0.5-0.6,0.4c-1.7-0.8-3.7-1.3-5.9-1.3c-1.4,0-2.6,0.2-3.5,0.7C9.2,5,8.8,5.6,8.8,6.4c0,0.6,0.3,1.1,0.9,1.7
		s2.1,1.2,4.4,2c2.7,1,4.6,2,5.6,3.1s1.5,2.4,1.5,3.9c0,2.2-0.9,3.9-2.8,5.1s-4.5,1.8-8,1.8c-2.9,0-5.3-0.4-7.3-1.1
		c-0.3-0.1-0.5-0.4-0.5-0.7L2.8,17.7z"/>
</g>
<g id="图层_2">
</g>
</svg>
