<?xml version="1.0" encoding="utf-8"?>
<!-- Generator: Adobe Illustrator 25.0.1, SVG Export Plug-In . SVG Version: 6.00 Build 0)  -->
<svg version="1.1" id="图层_1" xmlns="http://www.w3.org/2000/svg" xmlns:xlink="http://www.w3.org/1999/xlink" x="0px" y="0px"
	 viewBox="0 0 24 24" style="enable-background:new 0 0 24 24;" xml:space="preserve">
<style type="text/css">
	.st0{fill:#C3C6CA;}
</style>
<path class="st0" d="M1.9,24H0.7C0.3,24,0,23.7,0,23.3V0.7C0,0.3,0.3,0,0.7,0h1.2c0.4,0,0.7,0.3,0.7,0.7v22.7
	C2.5,23.7,2.2,24,1.9,24z"/>
<path class="st0" d="M15.3,10.4H5.1c-0.4,0-0.7-0.3-0.7-0.7V4c0-0.4,0.3-0.7,0.7-0.7h10.3C15.7,3.4,16,3.7,16,4v5.7
	C16,10.1,15.7,10.4,15.3,10.4z"/>
<path class="st0" d="M23.2,20.5H5.1c-0.4,0-0.7-0.3-0.7-0.7v-5.7c0-0.4,0.3-0.7,0.7-0.7h18.2c0.4,0,0.7,0.3,0.7,0.7v5.7
	C23.9,20.2,23.6,20.5,23.2,20.5z"/>
</svg>
