<?xml version="1.0" encoding="utf-8"?>
<!-- Generator: Adobe Illustrator 25.0.1, SVG Export Plug-In . SVG Version: 6.00 Build 0)  -->
<svg version="1.1" id="图层_1" xmlns="http://www.w3.org/2000/svg" xmlns:xlink="http://www.w3.org/1999/xlink" x="0px" y="0px"
	 viewBox="0 0 24 24" style="enable-background:new 0 0 24 24;" xml:space="preserve">
<style type="text/css">
	.st0{fill:#C3C6CA;}
</style>
<path class="st0" d="M23.4,24H0.6C0.3,24,0,23.7,0,23.4v-3.2c0-0.3,0.3-0.6,0.6-0.6h22.8c0.3,0,0.6,0.3,0.6,0.6v3.2
	C24,23.7,23.7,24,23.4,24z"/>
<path class="st0" d="M23.8,14.2H13.6c-0.1,0-0.2-0.3-0.2-0.6v-3.2c0-0.3,0.1-0.6,0.2-0.6h10.2c0.1,0,0.2,0.3,0.2,0.6v3.2
	C24,13.9,23.9,14.2,23.8,14.2z"/>
<path class="st0" d="M23.5,4.3H0.5C0.3,4.3,0,4,0,3.7V0.6C0,0.3,0.3,0,0.5,0h22.9C23.7,0,24,0.3,24,0.6v3.2
	C24,4.1,23.7,4.3,23.5,4.3z"/>
<g>
	<path class="st0" d="M3.8,12.8l-1.4,4C2.3,17,2.3,17,2.3,17s0.1,0.2,0.1,0.2c0.1,0,0.7,0.1,1,0.2c0.2,0,0.2,0.3,0,0.3H0.2
		c-0.2,0-0.3-0.3,0-0.3c0.4,0,0.9-0.4,1-0.7l3.5-9.5c0.6-1.5,2-1.2,2.6,0l3.5,9.4c0.1,0.2,0.2,0.3,0.3,0.4c0.1,0.2,0.5,0.2,0.8,0.3
		c0.3,0,0.3,0.3,0,0.3c-0.4,0-4.8,0-4.8,0c-0.2,0-0.2-0.2,0-0.3c0.2-0.1,1.1-0.2,1.2-0.2C8.3,17,8.3,17,8.3,16.9
		c0-0.1-0.1-0.2-0.1-0.3l-1.5-3.7H3.8z M6.6,12.1L5.2,8.7l-1.4,3.4H6.6z"/>
</g>
</svg>
