<svg id="图层_1" data-name="图层 1" xmlns="http://www.w3.org/2000/svg" viewBox="0 0 635.9 513.6"><defs><style>.cls-1{fill:#575d6d;}</style></defs><path class="cls-1" d="M1165.1,609.3a144.26,144.26,0,0,1-53.3-112.2c0-79.6,64-144.1,143-144.1s143,64.5,143,144.1a144.11,144.11,0,0,1-53.3,112.2,238.67,238.67,0,0,1,147.1,220.9v3.2a25.57,25.57,0,0,1-25.5,25.3h0a25.46,25.46,0,0,1-25.5-25.7v-2.7c0-103.4-83.2-187.2-185.8-187.2S1069,726.9,1069,830.3V833a25.4,25.4,0,0,1-25.5,25.7h0a25.57,25.57,0,0,1-25.5-25.3v-3.1a238.71,238.71,0,0,1,147.1-221Zm89.7-19.6c50.8,0,92-41.5,92-92.7s-41.2-92.7-92-92.7-92,41.5-92,92.7,41.2,92.7,92,92.7Zm208.3-17.1c82.2,42.3,110.3,127.2,110.3,184.5,0,35.2-52.1,34.6-52.1,0,0-65.2-52.7-142.1-111-153.2-12.1-2.3-19.2-11-20.5-19.3-2.1-13.5,9.8-22.9,20.5-30.2C1471,512.7,1469,409.3,1381,390c-9.9-2.2-19.5-5.6-21.3-17.1-.1-.5-.1-1.1-.2-1.6-1.3-14.5,11.7-26.2,24.4-26.2C1484,345.1,1557.1,480.4,1463.1,572.6Zm-415.3,0c-82.2,42.3-110.3,127.2-110.3,184.5,0,35.2,52.1,34.6,52.1,0,0-65.2,52.7-142.1,111-153.2,12.1-2.3,19.2-11,20.5-19.3,2.1-13.5-9.8-22.9-20.5-30.2C1039.9,512.7,1042,409.3,1130,390c9.9-2.2,19.5-5.6,21.3-17.1.1-.5.1-1.1.2-1.6,1.3-14.5-11.7-26.2-24.4-26.2C1026.9,345.1,953.8,480.4,1047.8,572.6Z" transform="translate(-937.5 -345.1)"/></svg>