<svg id="图层_1" data-name="图层 1" xmlns="http://www.w3.org/2000/svg" viewBox="0 0 811.52 648.7"><defs><style>.cls-1{fill:#b4b5b5;}</style></defs><path class="cls-1" d="M873.9,933.9V439.1a42.74,42.74,0,0,1,42.7-42.7h202.7a42.77,42.77,0,0,1,30.2,12.5l83.3,83.3c5.7,5.5,8.8,6.5,16.2,6.6h299c23.6,0,42.6-.9,42.7,22.7v16.7H1009.8c-26.6,0-56.1,40.8-57.2,44.9Zm768.6-371.5H1012.9a42.79,42.79,0,0,0-41.2,31.5L883.3,991.2a42.75,42.75,0,0,0,41.2,53.9h629.6a42.79,42.79,0,0,0,41.2-31.5l88.4-397.3c2.7-9.8,3.1-25-5.4-36.6C1668.5,566.4,1651.7,562.3,1642.5,562.4Z" transform="translate(-873.9 -396.4)"/></svg>