<svg id="图层_1" data-name="图层 1" xmlns="http://www.w3.org/2000/svg" viewBox="0 0 610.6 716.8"><defs><style>.cls-1{fill:#b4b5b5;}</style></defs><path class="cls-1" d="M1162.4,534.9a32,32,0,1,0,32-32,32,32,0,0,0-32,32Z" transform="translate(-1055.9 -362.1)"/><path class="cls-1" d="M1162.4,720.5a32,32,0,1,0,32-32,32,32,0,0,0-32,32Z" transform="translate(-1055.9 -362.1)"/><path class="cls-1" d="M1162.4,906.1a32,32,0,1,0,32-32,32,32,0,0,0-32,32Z" transform="translate(-1055.9 -362.1)"/><path class="cls-1" d="M1542.1,502.9H1301c-15.7,0-28.4,14.3-28.4,32s12.7,32,28.4,32h241.2c15.7,0,28.4-14.3,28.4-32s-12.8-32-28.5-32Zm0,371.2H1301c-15.7,0-28.4,14.3-28.4,32s12.7,32,28.4,32h241.2c15.7,0,28.4-14.3,28.4-32s-12.8-32-28.5-32Zm0-185.6H1301c-15.7,0-28.4,14.3-28.4,32s12.7,32,28.4,32h241.2c15.7,0,28.4-14.3,28.4-32s-12.8-32-28.5-32Z" transform="translate(-1055.9 -362.1)"/><path class="cls-1" d="M1604,362.1H1106.4c-27.4,0-50.5,25.1-50.5,56v604.8c0,30.9,21.7,56,48.5,56H1618c26.8,0,48.5-25.1,48.5-56V418.1c0-30.9-21.7-56-48.5-56Zm15.8,640.1c0,12.5-8.8,22.7-19.7,22.7h-478c-10.8,0-19.5-10.1-19.5-22.5V435.7c0-10.8,4.3-19.6,19.3-19.6h478.4c14,0,19.4,9,19.4,20l.1,566.1Z" transform="translate(-1055.9 -362.1)"/></svg>