<svg id="图层_1" data-name="图层 1" xmlns="http://www.w3.org/2000/svg" xmlns:xlink="http://www.w3.org/1999/xlink" viewBox="0 0 712 711.73"><defs><style>.cls-1{fill:none;}.cls-2{clip-path:url(#clip-path);}.cls-3{fill:#575d6d;}</style><clipPath id="clip-path" transform="translate(-603.9 -184.07)"><rect class="cls-1" x="604" y="184" width="711.8" height="712.8"/></clipPath></defs><g class="cls-2"><path class="cls-3" d="M692.5,693.3a24.07,24.07,0,0,1-17.6-7.4,24.87,24.87,0,0,1,0-35L1070.8,255a24.75,24.75,0,0,1,35,35L710.1,686.2a24.8,24.8,0,0,1-17.6,7.1Zm237.6,79.5a24.07,24.07,0,0,1-17.6-7.4,24.87,24.87,0,0,1,0-35l39.7-39.7a24.75,24.75,0,0,1,35,35l-39.7,39.7a24.29,24.29,0,0,1-17.4,7.4Zm89-89.1a24.07,24.07,0,0,1-17.6-7.4,24.87,24.87,0,0,1,0-35l79.2-79.2a24.75,24.75,0,0,1,35,35l-79,79.2a25.28,25.28,0,0,1-17.6,7.4Z" transform="translate(-603.9 -184.07)"/></g><g class="cls-2"><path class="cls-3" d="M930.1,895.8c-32.5,0-65-19.8-104.3-59.2L663.2,674.1c-79.2-79.2-78.9-130.1,1-209.9L884,244.2c79.8-79.8,130.9-80.2,209.9-1l162.6,162.6c79.2,79.2,78.9,130.1-1,209.9l-219.8,220c-40,40-72.8,60.1-105.6,60.1Zm59.5-662.2c-17.3,0-39,14.2-70.6,45.8L699.2,499.2c-31.5,31.5-45.8,53.3-45.8,70.2,0,17.3,13.3,38.1,44.6,69.6L860.6,801.6c31.5,31.5,52,44.6,69.3,44.6h.3c17.3,0,38.7-14.2,70.2-45.8l219.8-219.8c31.5-31.5,45.8-53.3,45.8-70.2,0-17.3-13.3-38.1-44.6-69.6L1058.8,278.2c-30.9-31.3-51.9-44.6-69.2-44.6Z" transform="translate(-603.9 -184.07)"/></g><g class="cls-2"><path class="cls-3" d="M1291.1,895.8H628.7a24.8,24.8,0,0,1,0-49.6h662.4a24.8,24.8,0,1,1,0,49.6Z" transform="translate(-603.9 -184.07)"/></g></svg>