<svg id="图层_1" data-name="图层 1" xmlns="http://www.w3.org/2000/svg" xmlns:xlink="http://www.w3.org/1999/xlink" viewBox="0 0 664.1 664.1"><defs><style>.cls-1{fill:none;}.cls-2{clip-path:url(#clip-path);}.cls-3{fill:#575d6d;}</style><clipPath id="clip-path" transform="translate(-626.8 -208.7)"><rect class="cls-1" x="627" y="208" width="664.8" height="665.8"/></clipPath></defs><g class="cls-2"><path class="cls-3" d="M779,256.7A104.13,104.13,0,0,1,883.2,360.9V465H779a104.15,104.15,0,1,1,0-208.3m0-48A152.15,152.15,0,1,0,779,513H921.6a9.6,9.6,0,0,0,9.6-9.6V361c0-84.1-68.2-152.3-152.2-152.3ZM883.2,616.4V719.2a105.8,105.8,0,0,1-30.8,74.5c-19.8,20-45.8,31-73.4,31h-.8a103.59,103.59,0,0,1-73.1-176.8,106.24,106.24,0,0,1,34-23.1,104.46,104.46,0,0,1,41.3-8.4H883.2m38.4-48H780.4c-84.3,0-154.2,69-153.5,153.4a152.16,152.16,0,0,0,151,151H779c83.8,0,152.2-69.6,152.2-153.5V578a9.6,9.6,0,0,0-9.6-9.6Zm217.1-311.7a104.31,104.31,0,0,1,104.2,104c.1,27.3-10.8,53.2-30.6,73a107.15,107.15,0,0,1-33.9,23,104.78,104.78,0,0,1-41,8.4H1034.5V361a104.3,104.3,0,0,1,104.2-104.3m0-48A152.21,152.21,0,0,0,986.5,360.9V503.5a9.6,9.6,0,0,0,9.6,9.6h141.3c83.8,0,153.6-68.6,153.5-152.5s-68.3-151.9-152.2-151.9Zm-1.3,407.7a104.82,104.82,0,0,1,41.3,8.4,106.24,106.24,0,0,1,34,23.1,102.45,102.45,0,0,1,30.3,73.4,104.14,104.14,0,0,1-103.4,103.4h-.8a102.81,102.81,0,0,1-73.4-31,105.8,105.8,0,0,1-30.8-74.5V616.4h102.8m0-48H996.2a9.6,9.6,0,0,0-9.6,9.6V719.2c0,84,68.4,153.5,152.2,153.5h1.1a152.16,152.16,0,0,0,151-151c.6-84.3-69.2-153.3-153.5-153.3Z" transform="translate(-626.8 -208.7)"/></g></svg>