<svg id="图层_1" data-name="图层 1" xmlns="http://www.w3.org/2000/svg" viewBox="0 0 761.2 750.9"><defs><style>.cls-1{fill:#e6e6e6;}</style></defs><path class="cls-1" d="M1462.3,561.8c0-104.1-74.1-193.9-176.5-213s-204.1,37.2-242,134.1-1,207.5,87.4,262.5a341.91,341.91,0,0,0-227.3,321.5,28.9,28.9,0,0,0,14.5,25.1,29.2,29.2,0,0,0,33.2-2.9,29.92,29.92,0,0,0,10.4-22.8c.3-156.4,127.5-283.5,284-283.5a278.93,278.93,0,0,1,97.1,17.5,29.85,29.85,0,0,0,38-16.7l1.3-3.1a24.19,24.19,0,0,0-14-31.8c-2.7-1-5.4-1.9-8.1-2.8a217.32,217.32,0,0,0,102-184.1Zm-375.5,0a158.8,158.8,0,1,1,158.7,158.7c-87.3,0-158.3-71-158.7-158.7Z" transform="translate(-903.9 -345.1)"/><path class="cls-1" d="M1316.1,1096h0a36.08,36.08,0,0,1-36.1-36.1V872.1a36.08,36.08,0,0,1,36.1-36.1h0a36.08,36.08,0,0,1,36.1,36.1v187.8A36.21,36.21,0,0,1,1316.1,1096Z" transform="translate(-903.9 -345.1)"/><path class="cls-1" d="M1478,1096h0a36.08,36.08,0,0,1-36.1-36.1V966a36.08,36.08,0,0,1,36.1-36.1h0a36.08,36.08,0,0,1,36.1,36.1v93.9A36.15,36.15,0,0,1,1478,1096Z" transform="translate(-903.9 -345.1)"/><path class="cls-1" d="M1629,1096h0a36.08,36.08,0,0,1-36.1-36.1V665.4a36.08,36.08,0,0,1,36.1-36.1h0a36.08,36.08,0,0,1,36.1,36.1v394.4A36.11,36.11,0,0,1,1629,1096Z" transform="translate(-903.9 -345.1)"/></svg>