<svg id="图层_1" data-name="图层 1" xmlns="http://www.w3.org/2000/svg" xmlns:xlink="http://www.w3.org/1999/xlink" viewBox="0 0 820.68 819.2"><defs><style>.cls-1{fill:none;}.cls-2{clip-path:url(#clip-path);}.cls-3{fill:#e6e6e6;}</style><clipPath id="clip-path" transform="translate(-548.92 -130.5)"><rect class="cls-1" x="549" y="130" width="820.8" height="820.7"/></clipPath></defs><g class="cls-2"><path class="cls-3" d="M959.3,189a57.21,57.21,0,0,1,24.1,5.3l323.6,154a15,15,0,0,1,3.4,1.6,15.57,15.57,0,0,1-2.8,1.6l-324.2,154a58.94,58.94,0,0,1-48.3,0l-323.6-154a15,15,0,0,1-3.4-1.6,15.57,15.57,0,0,1,2.8-1.6l324.2-154a59.59,59.59,0,0,1,24.2-5.3m0-58.5a115.21,115.21,0,0,0-49.3,11L586.4,295.4a58.56,58.56,0,0,0,0,109.2L910,558.4a116.46,116.46,0,0,0,98.6,0l323.6-153.9a58.56,58.56,0,0,0,0-109.2L1008.6,141.4a116.6,116.6,0,0,0-49.3-10.9Z" transform="translate(-548.92 -130.5)"/></g><g class="cls-2"><path class="cls-3" d="M959.3,749.3A141.32,141.32,0,0,1,896,734.7l-330-164a29.29,29.29,0,1,1,26.1-52.4l330,163.8a84.31,84.31,0,0,0,74.6,0l330-163.8a29.26,29.26,0,0,1,26,52.4l-330,163.8a140.92,140.92,0,0,1-63.4,14.8Z" transform="translate(-548.92 -130.5)"/></g><g class="cls-2"><path class="cls-3" d="M959.3,949.7A144.35,144.35,0,0,1,896,935.1l-330-164a29.29,29.29,0,1,1,26.1-52.4l330,163.8a84.31,84.31,0,0,0,74.6,0l330-163.8a29.26,29.26,0,0,1,26,52.4l-330,164a142.67,142.67,0,0,1-63.4,14.6Z" transform="translate(-548.92 -130.5)"/></g></svg>