<svg id="图层_1" data-name="图层 1" xmlns="http://www.w3.org/2000/svg" xmlns:xlink="http://www.w3.org/1999/xlink" viewBox="0 0 24 22.18"><defs><style>.cls-1{fill:none;}.cls-2{clip-path:url(#clip-path);}.cls-3{fill:#575d6d;}</style><clipPath id="clip-path" transform="translate(0 -0.72)"><rect class="cls-1" y="0.7" width="24" height="22.1"/></clipPath></defs><g class="cls-2"><path class="cls-3" d="M1.8,2.5V16.3a1,1,0,0,0,.6.8L11.9,21h0l9.5-3.9a1.56,1.56,0,0,0,.6-.8V2.5L12.4,5.3l-.4.2-.5-.1ZM1.8.8,12,3.6,22.2.8A1.31,1.31,0,0,1,24,2.1V16.3a3,3,0,0,1-1.7,2.5l-9.5,3.9a1.88,1.88,0,0,1-.8.2,3.09,3.09,0,0,1-.8-.2L1.7,18.8A3,3,0,0,1,0,16.3V2.1A1.31,1.31,0,0,1,1.8.8Z" transform="translate(0 -0.72)"/></g><path class="cls-3" d="M6.8,13.7,4.3,15l.5-2.9L2.8,10l2.8-.4L6.8,7,8.1,9.7l2.8.4-2.1,2L9.4,15,6.8,13.7Zm8.4-3.4,5.4-1.8a.82.82,0,0,0,.5-.5.85.85,0,0,0,0-.7A.81.81,0,0,0,20,6.8L14.6,8.6a.82.82,0,0,0-.5.5.85.85,0,0,0,0,.7.82.82,0,0,0,.5.5.63.63,0,0,0,.6,0Zm0,3.6,5.4-1.8a.82.82,0,0,0,.5-.5.85.85,0,0,0,0-.7,1,1,0,0,0-1.1-.6l-5.4,1.8a.82.82,0,0,0-.5.5,1,1,0,0,0,1.1,1.3Zm0,3.5,5.4-1.8a.82.82,0,0,0,.5-.5.85.85,0,0,0,0-.7.89.89,0,0,0-1.1-.5l-5.4,1.8a.82.82,0,0,0-.5.5.85.85,0,0,0,0,.7.82.82,0,0,0,.5.5.63.63,0,0,0,.6,0Z" transform="translate(0 -0.72)"/></svg>