<svg id="图层_1" data-name="图层 1" xmlns="http://www.w3.org/2000/svg" viewBox="0 0 745 745.14"><defs><style>.cls-1{fill:#e6e6e6;}</style></defs><path class="cls-1" d="M1474.7,1093H1084.5c-11.2,0-20.4-10.6-20.4-23.7V760l-13.4,15.6a19.26,19.26,0,0,1-14.5,7,18.56,18.56,0,0,1-14.4-7L913,640.3c-8-9.3-8-24.2,0-33.5l217.3-251.7a19.9,19.9,0,0,1,13.3-7h.2c11.2-.6,20.8,9.3,21.4,22.3,3.6,70,54.1,104.2,114.7,104.2,60.4,0,109.9-33.9,113.7-103.6a26.69,26.69,0,0,1,2-9.7c3.8-9,12-14.4,20.6-13.3a19.49,19.49,0,0,1,12.6,7.1L1646,607c8,9.3,8,24.2,0,33.5L1537.3,775.8a19.22,19.22,0,0,1-14.4,7,18.56,18.56,0,0,1-14.4-7l-13.4-15.6v309.3c0,12.9-9.1,23.5-20.4,23.5Z" transform="translate(-907 -347.86)"/></svg>