<svg id="图层_1" data-name="图层 1" xmlns="http://www.w3.org/2000/svg" viewBox="0 0 650 616"><defs><style>.cls-1{fill:#e6e6e6;}</style></defs><path class="cls-1" d="M1506,542.8H986a65,65,0,0,1-65-65h0a65,65,0,0,1,65-65h520a65,65,0,0,1,65,65h0A65,65,0,0,1,1506,542.8Z" transform="translate(-921 -412.8)"/><path class="cls-1" d="M1156,790H986a65,65,0,0,1-65-65h0a65,65,0,0,1,65-65h170a65,65,0,0,1,65,65h0A65,65,0,0,1,1156,790Z" transform="translate(-921 -412.8)"/><path class="cls-1" d="M1056,1028.8H986a65,65,0,0,1-65-65h0a65,65,0,0,1,65-65h70a65,65,0,0,1,65,65h0A65,65,0,0,1,1056,1028.8Z" transform="translate(-921 -412.8)"/><path class="cls-1" d="M1281,1028.8h-70a65,65,0,0,1-65-65h0a65,65,0,0,1,65-65h70a65,65,0,0,1,65,65h0A65,65,0,0,1,1281,1028.8Z" transform="translate(-921 -412.8)"/><path class="cls-1" d="M1506,1028.8h-70a65,65,0,0,1-65-65h0a65,65,0,0,1,65-65h70a65,65,0,0,1,65,65h0A65,65,0,0,1,1506,1028.8Z" transform="translate(-921 -412.8)"/><path class="cls-1" d="M1506,790H1336a65,65,0,0,1-65-65h0a65,65,0,0,1,65-65h170a65,65,0,0,1,65,65h0A65,65,0,0,1,1506,790Z" transform="translate(-921 -412.8)"/></svg>