<svg id="图层_1" data-name="图层 1" xmlns="http://www.w3.org/2000/svg" viewBox="0 0 722.05 615.7"><defs><style>.cls-1{fill:#e6e6e6;}</style></defs><path class="cls-1" d="M1625.9,957.8,1497.1,829A186.64,186.64,0,0,0,1527,727.7c0-104.2-84.9-189-189-189s-189,84.9-189,189,84.9,189,189,189a187.49,187.49,0,0,0,101.3-29.9l128.8,128.8a40.35,40.35,0,0,0,29.1,11.9,41.87,41.87,0,0,0,29.1-11.9A41.17,41.17,0,0,0,1625.9,957.8Zm-288.3-123a107,107,0,1,1,107-107A107.12,107.12,0,0,1,1337.6,834.8Z" transform="translate(-915.9 -412.1)"/><path class="cls-1" d="M950,480.3h531.8a34.1,34.1,0,1,0,0-68.2H950a34.1,34.1,0,0,0,0,68.2Z" transform="translate(-915.9 -412.1)"/><path class="cls-1" d="M955.1,732.9H1087a34.1,34.1,0,0,0,0-68.2H955.1a34.1,34.1,0,0,0,0,68.2Z" transform="translate(-915.9 -412.1)"/><path class="cls-1" d="M1263.4,959.6H955.1a34.1,34.1,0,0,0,0,68.2h308.2a34.1,34.1,0,0,0,.1-68.2Z" transform="translate(-915.9 -412.1)"/></svg>