<svg id="图层_1" data-name="图层 1" xmlns="http://www.w3.org/2000/svg" viewBox="0 0 467.69 718.17"><defs><style>.cls-1{fill:#c9c9c9;}</style></defs><path class="cls-1" d="M1528.5,561.6c0,84.2-41.4,127-106.6,171.2-37.2,25.2-56.5,59.4-55,86.2.8,14.2,3.2,25.3-20,17.9-36.8-14.4-84.7-16.6-119,3.1-18.9,9.1-31.6-9-35-24.7-15.3-70.7,31-113.9,121.4-174.4,33.3-22.3,56.9-57.1,60.4-82.1,12.4-88.2-124-119.1-169.3-29.7-18.3,36.1-35.5,52.2-62.6,56.9-62.6,9.8-97.2-33.5-75.5-88.4,63.1-159.1,218-154.3,243.5-153.6a218,218,0,0,1,217.7,217.6Zm-136.6,398a102.4,102.4,0,1,1-204.8-1c.5-55.5,45.9-100.9,101.4-101.4a102.43,102.43,0,0,1,103.4,102.4Z" transform="translate(-1060.81 -343.83)"/></svg>